%TF.GenerationSoftware,KiCad,Pcbnew,(5.1.4)-1*%
%TF.CreationDate,2020-11-13T13:28:28-08:00*%
%TF.ProjectId,powerglove_pcb,706f7765-7267-46c6-9f76-655f7063622e,rev?*%
%TF.SameCoordinates,Original*%
%TF.FileFunction,Legend,Top*%
%TF.FilePolarity,Positive*%
%FSLAX46Y46*%
G04 Gerber Fmt 4.6, Leading zero omitted, Abs format (unit mm)*
G04 Created by KiCad (PCBNEW (5.1.4)-1) date 2020-11-13 13:28:28*
%MOMM*%
%LPD*%
G04 APERTURE LIST*
%ADD10C,0.150000*%
%ADD11C,0.190500*%
%ADD12C,0.120000*%
%ADD13C,0.254000*%
G04 APERTURE END LIST*
D10*
X115403380Y-76422095D02*
X115403380Y-75803047D01*
X115784333Y-76136380D01*
X115784333Y-75993523D01*
X115831952Y-75898285D01*
X115879571Y-75850666D01*
X115974809Y-75803047D01*
X116212904Y-75803047D01*
X116308142Y-75850666D01*
X116355761Y-75898285D01*
X116403380Y-75993523D01*
X116403380Y-76279238D01*
X116355761Y-76374476D01*
X116308142Y-76422095D01*
X115403380Y-75517333D02*
X116403380Y-75184000D01*
X115403380Y-74850666D01*
X115403380Y-74612571D02*
X115403380Y-73993523D01*
X115784333Y-74326857D01*
X115784333Y-74184000D01*
X115831952Y-74088761D01*
X115879571Y-74041142D01*
X115974809Y-73993523D01*
X116212904Y-73993523D01*
X116308142Y-74041142D01*
X116355761Y-74088761D01*
X116403380Y-74184000D01*
X116403380Y-74469714D01*
X116355761Y-74564952D01*
X116308142Y-74612571D01*
X114006380Y-76422095D02*
X114006380Y-75850666D01*
X115006380Y-76136380D02*
X114006380Y-76136380D01*
X114006380Y-75326857D02*
X114006380Y-75136380D01*
X114054000Y-75041142D01*
X114149238Y-74945904D01*
X114339714Y-74898285D01*
X114673047Y-74898285D01*
X114863523Y-74945904D01*
X114958761Y-75041142D01*
X115006380Y-75136380D01*
X115006380Y-75326857D01*
X114958761Y-75422095D01*
X114863523Y-75517333D01*
X114673047Y-75564952D01*
X114339714Y-75564952D01*
X114149238Y-75517333D01*
X114054000Y-75422095D01*
X114006380Y-75326857D01*
X114482571Y-74136380D02*
X114482571Y-74469714D01*
X115006380Y-74469714D02*
X114006380Y-74469714D01*
X114006380Y-73993523D01*
D11*
X79465714Y-69269428D02*
X79574571Y-69305714D01*
X79756000Y-69305714D01*
X79828571Y-69269428D01*
X79864857Y-69233142D01*
X79901142Y-69160571D01*
X79901142Y-69088000D01*
X79864857Y-69015428D01*
X79828571Y-68979142D01*
X79756000Y-68942857D01*
X79610857Y-68906571D01*
X79538285Y-68870285D01*
X79502000Y-68834000D01*
X79465714Y-68761428D01*
X79465714Y-68688857D01*
X79502000Y-68616285D01*
X79538285Y-68580000D01*
X79610857Y-68543714D01*
X79792285Y-68543714D01*
X79901142Y-68580000D01*
X80227714Y-69305714D02*
X80227714Y-68543714D01*
X80989714Y-68580000D02*
X80917142Y-68543714D01*
X80808285Y-68543714D01*
X80699428Y-68580000D01*
X80626857Y-68652571D01*
X80590571Y-68725142D01*
X80554285Y-68870285D01*
X80554285Y-68979142D01*
X80590571Y-69124285D01*
X80626857Y-69196857D01*
X80699428Y-69269428D01*
X80808285Y-69305714D01*
X80880857Y-69305714D01*
X80989714Y-69269428D01*
X81026000Y-69233142D01*
X81026000Y-68979142D01*
X80880857Y-68979142D01*
X82296000Y-68543714D02*
X81933142Y-68543714D01*
X81896857Y-68906571D01*
X81933142Y-68870285D01*
X82005714Y-68834000D01*
X82187142Y-68834000D01*
X82259714Y-68870285D01*
X82296000Y-68906571D01*
X82332285Y-68979142D01*
X82332285Y-69160571D01*
X82296000Y-69233142D01*
X82259714Y-69269428D01*
X82187142Y-69305714D01*
X82005714Y-69305714D01*
X81933142Y-69269428D01*
X81896857Y-69233142D01*
X82550000Y-68543714D02*
X82804000Y-69305714D01*
X83058000Y-68543714D01*
X84291714Y-68580000D02*
X84219142Y-68543714D01*
X84110285Y-68543714D01*
X84001428Y-68580000D01*
X83928857Y-68652571D01*
X83892571Y-68725142D01*
X83856285Y-68870285D01*
X83856285Y-68979142D01*
X83892571Y-69124285D01*
X83928857Y-69196857D01*
X84001428Y-69269428D01*
X84110285Y-69305714D01*
X84182857Y-69305714D01*
X84291714Y-69269428D01*
X84328000Y-69233142D01*
X84328000Y-68979142D01*
X84182857Y-68979142D01*
X84654571Y-69305714D02*
X84654571Y-68543714D01*
X85090000Y-69305714D01*
X85090000Y-68543714D01*
X85452857Y-69305714D02*
X85452857Y-68543714D01*
X85634285Y-68543714D01*
X85743142Y-68580000D01*
X85815714Y-68652571D01*
X85852000Y-68725142D01*
X85888285Y-68870285D01*
X85888285Y-68979142D01*
X85852000Y-69124285D01*
X85815714Y-69196857D01*
X85743142Y-69269428D01*
X85634285Y-69305714D01*
X85452857Y-69305714D01*
X68543714Y-69269428D02*
X68652571Y-69305714D01*
X68834000Y-69305714D01*
X68906571Y-69269428D01*
X68942857Y-69233142D01*
X68979142Y-69160571D01*
X68979142Y-69088000D01*
X68942857Y-69015428D01*
X68906571Y-68979142D01*
X68834000Y-68942857D01*
X68688857Y-68906571D01*
X68616285Y-68870285D01*
X68580000Y-68834000D01*
X68543714Y-68761428D01*
X68543714Y-68688857D01*
X68580000Y-68616285D01*
X68616285Y-68580000D01*
X68688857Y-68543714D01*
X68870285Y-68543714D01*
X68979142Y-68580000D01*
X69305714Y-69305714D02*
X69305714Y-68543714D01*
X70067714Y-68580000D02*
X69995142Y-68543714D01*
X69886285Y-68543714D01*
X69777428Y-68580000D01*
X69704857Y-68652571D01*
X69668571Y-68725142D01*
X69632285Y-68870285D01*
X69632285Y-68979142D01*
X69668571Y-69124285D01*
X69704857Y-69196857D01*
X69777428Y-69269428D01*
X69886285Y-69305714D01*
X69958857Y-69305714D01*
X70067714Y-69269428D01*
X70104000Y-69233142D01*
X70104000Y-68979142D01*
X69958857Y-68979142D01*
X71374000Y-68543714D02*
X71011142Y-68543714D01*
X70974857Y-68906571D01*
X71011142Y-68870285D01*
X71083714Y-68834000D01*
X71265142Y-68834000D01*
X71337714Y-68870285D01*
X71374000Y-68906571D01*
X71410285Y-68979142D01*
X71410285Y-69160571D01*
X71374000Y-69233142D01*
X71337714Y-69269428D01*
X71265142Y-69305714D01*
X71083714Y-69305714D01*
X71011142Y-69269428D01*
X70974857Y-69233142D01*
X71628000Y-68543714D02*
X71882000Y-69305714D01*
X72136000Y-68543714D01*
X73369714Y-68580000D02*
X73297142Y-68543714D01*
X73188285Y-68543714D01*
X73079428Y-68580000D01*
X73006857Y-68652571D01*
X72970571Y-68725142D01*
X72934285Y-68870285D01*
X72934285Y-68979142D01*
X72970571Y-69124285D01*
X73006857Y-69196857D01*
X73079428Y-69269428D01*
X73188285Y-69305714D01*
X73260857Y-69305714D01*
X73369714Y-69269428D01*
X73406000Y-69233142D01*
X73406000Y-68979142D01*
X73260857Y-68979142D01*
X73732571Y-69305714D02*
X73732571Y-68543714D01*
X74168000Y-69305714D01*
X74168000Y-68543714D01*
X74530857Y-69305714D02*
X74530857Y-68543714D01*
X74712285Y-68543714D01*
X74821142Y-68580000D01*
X74893714Y-68652571D01*
X74930000Y-68725142D01*
X74966285Y-68870285D01*
X74966285Y-68979142D01*
X74930000Y-69124285D01*
X74893714Y-69196857D01*
X74821142Y-69269428D01*
X74712285Y-69305714D01*
X74530857Y-69305714D01*
D12*
X88265000Y-77470000D02*
X88265000Y-79248000D01*
X70485000Y-77470000D02*
X70485000Y-79248000D01*
X88265000Y-77470000D02*
X70485000Y-77470000D01*
D11*
X76109285Y-81243714D02*
X75746428Y-81243714D01*
X75710142Y-81606571D01*
X75746428Y-81570285D01*
X75819000Y-81534000D01*
X76000428Y-81534000D01*
X76073000Y-81570285D01*
X76109285Y-81606571D01*
X76145571Y-81679142D01*
X76145571Y-81860571D01*
X76109285Y-81933142D01*
X76073000Y-81969428D01*
X76000428Y-82005714D01*
X75819000Y-82005714D01*
X75746428Y-81969428D01*
X75710142Y-81933142D01*
X76363285Y-81243714D02*
X76617285Y-82005714D01*
X76871285Y-81243714D01*
X78105000Y-81280000D02*
X78032428Y-81243714D01*
X77923571Y-81243714D01*
X77814714Y-81280000D01*
X77742142Y-81352571D01*
X77705857Y-81425142D01*
X77669571Y-81570285D01*
X77669571Y-81679142D01*
X77705857Y-81824285D01*
X77742142Y-81896857D01*
X77814714Y-81969428D01*
X77923571Y-82005714D01*
X77996142Y-82005714D01*
X78105000Y-81969428D01*
X78141285Y-81933142D01*
X78141285Y-81679142D01*
X77996142Y-81679142D01*
X78467857Y-82005714D02*
X78467857Y-81243714D01*
X78903285Y-82005714D01*
X78903285Y-81243714D01*
X79266142Y-82005714D02*
X79266142Y-81243714D01*
X79447571Y-81243714D01*
X79556428Y-81280000D01*
X79629000Y-81352571D01*
X79665285Y-81425142D01*
X79701571Y-81570285D01*
X79701571Y-81679142D01*
X79665285Y-81824285D01*
X79629000Y-81896857D01*
X79556428Y-81969428D01*
X79447571Y-82005714D01*
X79266142Y-82005714D01*
X80499857Y-81243714D02*
X80753857Y-82005714D01*
X81007857Y-81243714D01*
X81515857Y-81606571D02*
X81624714Y-81642857D01*
X81661000Y-81679142D01*
X81697285Y-81751714D01*
X81697285Y-81860571D01*
X81661000Y-81933142D01*
X81624714Y-81969428D01*
X81552142Y-82005714D01*
X81261857Y-82005714D01*
X81261857Y-81243714D01*
X81515857Y-81243714D01*
X81588428Y-81280000D01*
X81624714Y-81316285D01*
X81661000Y-81388857D01*
X81661000Y-81461428D01*
X81624714Y-81534000D01*
X81588428Y-81570285D01*
X81515857Y-81606571D01*
X81261857Y-81606571D01*
X81987571Y-81788000D02*
X82350428Y-81788000D01*
X81915000Y-82005714D02*
X82169000Y-81243714D01*
X82423000Y-82005714D01*
X82568142Y-81243714D02*
X83003571Y-81243714D01*
X82785857Y-82005714D02*
X82785857Y-81243714D01*
X83838142Y-81606571D02*
X84092142Y-81606571D01*
X84201000Y-82005714D02*
X83838142Y-82005714D01*
X83838142Y-81243714D01*
X84201000Y-81243714D01*
X84527571Y-82005714D02*
X84527571Y-81243714D01*
X84963000Y-82005714D01*
X84963000Y-81243714D01*
X85906428Y-82005714D02*
X85906428Y-81243714D01*
X86196714Y-81243714D01*
X86269285Y-81280000D01*
X86305571Y-81316285D01*
X86341857Y-81388857D01*
X86341857Y-81497714D01*
X86305571Y-81570285D01*
X86269285Y-81606571D01*
X86196714Y-81642857D01*
X85906428Y-81642857D01*
X87067571Y-81280000D02*
X86995000Y-81243714D01*
X86886142Y-81243714D01*
X86777285Y-81280000D01*
X86704714Y-81352571D01*
X86668428Y-81425142D01*
X86632142Y-81570285D01*
X86632142Y-81679142D01*
X86668428Y-81824285D01*
X86704714Y-81896857D01*
X86777285Y-81969428D01*
X86886142Y-82005714D01*
X86958714Y-82005714D01*
X87067571Y-81969428D01*
X87103857Y-81933142D01*
X87103857Y-81679142D01*
X86958714Y-81679142D01*
X100928714Y-69178714D02*
X100928714Y-68416714D01*
X101182714Y-68961000D01*
X101436714Y-68416714D01*
X101436714Y-69178714D01*
X101944714Y-68416714D02*
X102089857Y-68416714D01*
X102162428Y-68453000D01*
X102235000Y-68525571D01*
X102271285Y-68670714D01*
X102271285Y-68924714D01*
X102235000Y-69069857D01*
X102162428Y-69142428D01*
X102089857Y-69178714D01*
X101944714Y-69178714D01*
X101872142Y-69142428D01*
X101799571Y-69069857D01*
X101763285Y-68924714D01*
X101763285Y-68670714D01*
X101799571Y-68525571D01*
X101872142Y-68453000D01*
X101944714Y-68416714D01*
X102597857Y-69178714D02*
X102597857Y-68416714D01*
X103033285Y-69178714D01*
X103033285Y-68416714D01*
X103940428Y-69142428D02*
X104049285Y-69178714D01*
X104230714Y-69178714D01*
X104303285Y-69142428D01*
X104339571Y-69106142D01*
X104375857Y-69033571D01*
X104375857Y-68961000D01*
X104339571Y-68888428D01*
X104303285Y-68852142D01*
X104230714Y-68815857D01*
X104085571Y-68779571D01*
X104013000Y-68743285D01*
X103976714Y-68707000D01*
X103940428Y-68634428D01*
X103940428Y-68561857D01*
X103976714Y-68489285D01*
X104013000Y-68453000D01*
X104085571Y-68416714D01*
X104267000Y-68416714D01*
X104375857Y-68453000D01*
X105137857Y-69106142D02*
X105101571Y-69142428D01*
X104992714Y-69178714D01*
X104920142Y-69178714D01*
X104811285Y-69142428D01*
X104738714Y-69069857D01*
X104702428Y-68997285D01*
X104666142Y-68852142D01*
X104666142Y-68743285D01*
X104702428Y-68598142D01*
X104738714Y-68525571D01*
X104811285Y-68453000D01*
X104920142Y-68416714D01*
X104992714Y-68416714D01*
X105101571Y-68453000D01*
X105137857Y-68489285D01*
X105827285Y-69178714D02*
X105464428Y-69178714D01*
X105464428Y-68416714D01*
X106625571Y-69142428D02*
X106734428Y-69178714D01*
X106915857Y-69178714D01*
X106988428Y-69142428D01*
X107024714Y-69106142D01*
X107061000Y-69033571D01*
X107061000Y-68961000D01*
X107024714Y-68888428D01*
X106988428Y-68852142D01*
X106915857Y-68815857D01*
X106770714Y-68779571D01*
X106698142Y-68743285D01*
X106661857Y-68707000D01*
X106625571Y-68634428D01*
X106625571Y-68561857D01*
X106661857Y-68489285D01*
X106698142Y-68453000D01*
X106770714Y-68416714D01*
X106952142Y-68416714D01*
X107061000Y-68453000D01*
X107387571Y-69178714D02*
X107387571Y-68416714D01*
X107569000Y-68416714D01*
X107677857Y-68453000D01*
X107750428Y-68525571D01*
X107786714Y-68598142D01*
X107823000Y-68743285D01*
X107823000Y-68852142D01*
X107786714Y-68997285D01*
X107750428Y-69069857D01*
X107677857Y-69142428D01*
X107569000Y-69178714D01*
X107387571Y-69178714D01*
X108113285Y-68961000D02*
X108476142Y-68961000D01*
X108040714Y-69178714D02*
X108294714Y-68416714D01*
X108548714Y-69178714D01*
X109383285Y-69178714D02*
X109383285Y-68416714D01*
X109746142Y-69178714D02*
X109746142Y-68416714D01*
X110181571Y-69178714D01*
X110181571Y-68416714D01*
X110435571Y-68416714D02*
X110871000Y-68416714D01*
X110653285Y-69178714D02*
X110653285Y-68416714D01*
X112249857Y-69142428D02*
X112358714Y-69178714D01*
X112540142Y-69178714D01*
X112612714Y-69142428D01*
X112649000Y-69106142D01*
X112685285Y-69033571D01*
X112685285Y-68961000D01*
X112649000Y-68888428D01*
X112612714Y-68852142D01*
X112540142Y-68815857D01*
X112395000Y-68779571D01*
X112322428Y-68743285D01*
X112286142Y-68707000D01*
X112249857Y-68634428D01*
X112249857Y-68561857D01*
X112286142Y-68489285D01*
X112322428Y-68453000D01*
X112395000Y-68416714D01*
X112576428Y-68416714D01*
X112685285Y-68453000D01*
X112975571Y-68489285D02*
X113011857Y-68453000D01*
X113084428Y-68416714D01*
X113265857Y-68416714D01*
X113338428Y-68453000D01*
X113374714Y-68489285D01*
X113411000Y-68561857D01*
X113411000Y-68634428D01*
X113374714Y-68743285D01*
X112939285Y-69178714D01*
X113411000Y-69178714D01*
X114862428Y-69142428D02*
X114971285Y-69178714D01*
X115152714Y-69178714D01*
X115225285Y-69142428D01*
X115261571Y-69106142D01*
X115297857Y-69033571D01*
X115297857Y-68961000D01*
X115261571Y-68888428D01*
X115225285Y-68852142D01*
X115152714Y-68815857D01*
X115007571Y-68779571D01*
X114935000Y-68743285D01*
X114898714Y-68707000D01*
X114862428Y-68634428D01*
X114862428Y-68561857D01*
X114898714Y-68489285D01*
X114935000Y-68453000D01*
X115007571Y-68416714D01*
X115189000Y-68416714D01*
X115297857Y-68453000D01*
X116023571Y-69178714D02*
X115588142Y-69178714D01*
X115805857Y-69178714D02*
X115805857Y-68416714D01*
X115733285Y-68525571D01*
X115660714Y-68598142D01*
X115588142Y-68634428D01*
D13*
X70478952Y-76526571D02*
X71253047Y-76526571D01*
X70478952Y-80082571D02*
X71253047Y-80082571D01*
X70866000Y-80469619D02*
X70866000Y-79695523D01*
D11*
X67092285Y-82132714D02*
X67092285Y-81370714D01*
X67092285Y-81661000D02*
X67164857Y-81624714D01*
X67310000Y-81624714D01*
X67382571Y-81661000D01*
X67418857Y-81697285D01*
X67455142Y-81769857D01*
X67455142Y-81987571D01*
X67418857Y-82060142D01*
X67382571Y-82096428D01*
X67310000Y-82132714D01*
X67164857Y-82132714D01*
X67092285Y-82096428D01*
X68108285Y-82132714D02*
X68108285Y-81733571D01*
X68072000Y-81661000D01*
X67999428Y-81624714D01*
X67854285Y-81624714D01*
X67781714Y-81661000D01*
X68108285Y-82096428D02*
X68035714Y-82132714D01*
X67854285Y-82132714D01*
X67781714Y-82096428D01*
X67745428Y-82023857D01*
X67745428Y-81951285D01*
X67781714Y-81878714D01*
X67854285Y-81842428D01*
X68035714Y-81842428D01*
X68108285Y-81806142D01*
X68362285Y-81624714D02*
X68652571Y-81624714D01*
X68471142Y-81370714D02*
X68471142Y-82023857D01*
X68507428Y-82096428D01*
X68580000Y-82132714D01*
X68652571Y-82132714D01*
X90478428Y-82005714D02*
X90478428Y-81497714D01*
X90478428Y-81570285D02*
X90514714Y-81534000D01*
X90587285Y-81497714D01*
X90696142Y-81497714D01*
X90768714Y-81534000D01*
X90805000Y-81606571D01*
X90805000Y-82005714D01*
X90805000Y-81606571D02*
X90841285Y-81534000D01*
X90913857Y-81497714D01*
X91022714Y-81497714D01*
X91095285Y-81534000D01*
X91131571Y-81606571D01*
X91131571Y-82005714D01*
X91603285Y-82005714D02*
X91530714Y-81969428D01*
X91494428Y-81933142D01*
X91458142Y-81860571D01*
X91458142Y-81642857D01*
X91494428Y-81570285D01*
X91530714Y-81534000D01*
X91603285Y-81497714D01*
X91712142Y-81497714D01*
X91784714Y-81534000D01*
X91821000Y-81570285D01*
X91857285Y-81642857D01*
X91857285Y-81860571D01*
X91821000Y-81933142D01*
X91784714Y-81969428D01*
X91712142Y-82005714D01*
X91603285Y-82005714D01*
X92075000Y-81497714D02*
X92365285Y-81497714D01*
X92183857Y-81243714D02*
X92183857Y-81896857D01*
X92220142Y-81969428D01*
X92292714Y-82005714D01*
X92365285Y-82005714D01*
X92728142Y-82005714D02*
X92655571Y-81969428D01*
X92619285Y-81933142D01*
X92583000Y-81860571D01*
X92583000Y-81642857D01*
X92619285Y-81570285D01*
X92655571Y-81534000D01*
X92728142Y-81497714D01*
X92837000Y-81497714D01*
X92909571Y-81534000D01*
X92945857Y-81570285D01*
X92982142Y-81642857D01*
X92982142Y-81860571D01*
X92945857Y-81933142D01*
X92909571Y-81969428D01*
X92837000Y-82005714D01*
X92728142Y-82005714D01*
X93308714Y-82005714D02*
X93308714Y-81497714D01*
X93308714Y-81642857D02*
X93345000Y-81570285D01*
X93381285Y-81534000D01*
X93453857Y-81497714D01*
X93526428Y-81497714D01*
X112957428Y-81280000D02*
X112884857Y-81243714D01*
X112776000Y-81243714D01*
X112667142Y-81280000D01*
X112594571Y-81352571D01*
X112558285Y-81425142D01*
X112522000Y-81570285D01*
X112522000Y-81679142D01*
X112558285Y-81824285D01*
X112594571Y-81896857D01*
X112667142Y-81969428D01*
X112776000Y-82005714D01*
X112848571Y-82005714D01*
X112957428Y-81969428D01*
X112993714Y-81933142D01*
X112993714Y-81679142D01*
X112848571Y-81679142D01*
X113320285Y-82005714D02*
X113320285Y-81243714D01*
X113755714Y-82005714D01*
X113755714Y-81243714D01*
X114118571Y-82005714D02*
X114118571Y-81243714D01*
X114300000Y-81243714D01*
X114408857Y-81280000D01*
X114481428Y-81352571D01*
X114517714Y-81425142D01*
X114554000Y-81570285D01*
X114554000Y-81679142D01*
X114517714Y-81824285D01*
X114481428Y-81896857D01*
X114408857Y-81969428D01*
X114300000Y-82005714D01*
X114118571Y-82005714D01*
X109582857Y-81243714D02*
X109220000Y-81243714D01*
X109183714Y-81606571D01*
X109220000Y-81570285D01*
X109292571Y-81534000D01*
X109474000Y-81534000D01*
X109546571Y-81570285D01*
X109582857Y-81606571D01*
X109619142Y-81679142D01*
X109619142Y-81860571D01*
X109582857Y-81933142D01*
X109546571Y-81969428D01*
X109474000Y-82005714D01*
X109292571Y-82005714D01*
X109220000Y-81969428D01*
X109183714Y-81933142D01*
X109836857Y-81243714D02*
X110090857Y-82005714D01*
X110344857Y-81243714D01*
X106063142Y-81243714D02*
X106534857Y-81243714D01*
X106280857Y-81534000D01*
X106389714Y-81534000D01*
X106462285Y-81570285D01*
X106498571Y-81606571D01*
X106534857Y-81679142D01*
X106534857Y-81860571D01*
X106498571Y-81933142D01*
X106462285Y-81969428D01*
X106389714Y-82005714D01*
X106172000Y-82005714D01*
X106099428Y-81969428D01*
X106063142Y-81933142D01*
X106861428Y-81933142D02*
X106897714Y-81969428D01*
X106861428Y-82005714D01*
X106825142Y-81969428D01*
X106861428Y-81933142D01*
X106861428Y-82005714D01*
X107151714Y-81243714D02*
X107623428Y-81243714D01*
X107369428Y-81534000D01*
X107478285Y-81534000D01*
X107550857Y-81570285D01*
X107587142Y-81606571D01*
X107623428Y-81679142D01*
X107623428Y-81860571D01*
X107587142Y-81933142D01*
X107550857Y-81969428D01*
X107478285Y-82005714D01*
X107260571Y-82005714D01*
X107188000Y-81969428D01*
X107151714Y-81933142D01*
X107841142Y-81243714D02*
X108095142Y-82005714D01*
X108349142Y-81243714D01*
X99713142Y-81243714D02*
X100184857Y-81243714D01*
X99930857Y-81534000D01*
X100039714Y-81534000D01*
X100112285Y-81570285D01*
X100148571Y-81606571D01*
X100184857Y-81679142D01*
X100184857Y-81860571D01*
X100148571Y-81933142D01*
X100112285Y-81969428D01*
X100039714Y-82005714D01*
X99822000Y-82005714D01*
X99749428Y-81969428D01*
X99713142Y-81933142D01*
X100511428Y-81933142D02*
X100547714Y-81969428D01*
X100511428Y-82005714D01*
X100475142Y-81969428D01*
X100511428Y-81933142D01*
X100511428Y-82005714D01*
X100801714Y-81243714D02*
X101273428Y-81243714D01*
X101019428Y-81534000D01*
X101128285Y-81534000D01*
X101200857Y-81570285D01*
X101237142Y-81606571D01*
X101273428Y-81679142D01*
X101273428Y-81860571D01*
X101237142Y-81933142D01*
X101200857Y-81969428D01*
X101128285Y-82005714D01*
X100910571Y-82005714D01*
X100838000Y-81969428D01*
X100801714Y-81933142D01*
X101491142Y-81243714D02*
X101745142Y-82005714D01*
X101999142Y-81243714D01*
D12*
%TO.C,U1*%
X90211000Y-72517000D02*
X90211000Y-74017000D01*
X90211000Y-72517000D02*
X90211000Y-71017000D01*
X93431000Y-72517000D02*
X93431000Y-74017000D01*
X93431000Y-72517000D02*
X93431000Y-69592000D01*
%TO.C,R9*%
X99697000Y-70656267D02*
X99697000Y-70313733D01*
X98677000Y-70656267D02*
X98677000Y-70313733D01*
%TO.C,R8*%
X96772000Y-70313733D02*
X96772000Y-70656267D01*
X97792000Y-70313733D02*
X97792000Y-70656267D01*
%TO.C,R7*%
X96014000Y-70656267D02*
X96014000Y-70313733D01*
X94994000Y-70656267D02*
X94994000Y-70313733D01*
%TO.C,J2*%
X116138000Y-69790000D02*
X116138000Y-71120000D01*
X114808000Y-69790000D02*
X116138000Y-69790000D01*
X113538000Y-69790000D02*
X113538000Y-72450000D01*
X113538000Y-72450000D02*
X100778000Y-72450000D01*
X113538000Y-69790000D02*
X100778000Y-69790000D01*
X100778000Y-69790000D02*
X100778000Y-72450000D01*
%TO.C,J8*%
X103318000Y-76514000D02*
X103318000Y-75184000D01*
X104648000Y-76514000D02*
X103318000Y-76514000D01*
X105918000Y-76514000D02*
X105918000Y-73854000D01*
X105918000Y-73854000D02*
X113598000Y-73854000D01*
X105918000Y-76514000D02*
X113598000Y-76514000D01*
X113598000Y-76514000D02*
X113598000Y-73854000D01*
%TO.C,R6*%
X80802267Y-74424000D02*
X80459733Y-74424000D01*
X80802267Y-73404000D02*
X80459733Y-73404000D01*
%TO.C,R5*%
X70162267Y-74424000D02*
X69819733Y-74424000D01*
X70162267Y-73404000D02*
X69819733Y-73404000D01*
%TO.C,R4*%
X87120000Y-75242267D02*
X87120000Y-74899733D01*
X88140000Y-75242267D02*
X88140000Y-74899733D01*
%TO.C,R3*%
X76960000Y-75242267D02*
X76960000Y-74899733D01*
X77980000Y-75242267D02*
X77980000Y-74899733D01*
%TO.C,R2*%
X98042000Y-75722266D02*
X98042000Y-75379732D01*
X99062000Y-75722266D02*
X99062000Y-75379732D01*
%TO.C,R1*%
X100201000Y-75722266D02*
X100201000Y-75379732D01*
X101221000Y-75722266D02*
X101221000Y-75379732D01*
%TO.C,Q2*%
X83838000Y-73416000D02*
X83838000Y-74346000D01*
X83838000Y-76576000D02*
X83838000Y-75646000D01*
X83838000Y-76576000D02*
X85998000Y-76576000D01*
X83838000Y-73416000D02*
X85298000Y-73416000D01*
%TO.C,Q1*%
X73170000Y-73416000D02*
X73170000Y-74346000D01*
X73170000Y-76576000D02*
X73170000Y-75646000D01*
X73170000Y-76576000D02*
X75330000Y-76576000D01*
X73170000Y-73416000D02*
X74630000Y-73416000D01*
%TO.C,J7*%
X86420000Y-72577000D02*
X86420000Y-69917000D01*
X81280000Y-72577000D02*
X86420000Y-72577000D01*
X81280000Y-69917000D02*
X86420000Y-69917000D01*
X81280000Y-72577000D02*
X81280000Y-69917000D01*
X80010000Y-72577000D02*
X78680000Y-72577000D01*
X78680000Y-72577000D02*
X78680000Y-71247000D01*
%TO.C,J6*%
X75752000Y-72577000D02*
X75752000Y-69917000D01*
X70612000Y-72577000D02*
X75752000Y-72577000D01*
X70612000Y-69917000D02*
X75752000Y-69917000D01*
X70612000Y-72577000D02*
X70612000Y-69917000D01*
X69342000Y-72577000D02*
X68012000Y-72577000D01*
X68012000Y-72577000D02*
X68012000Y-71247000D01*
%TO.C,J5*%
X87817000Y-80578000D02*
X87817000Y-77918000D01*
X77597000Y-80578000D02*
X87817000Y-80578000D01*
X77597000Y-77918000D02*
X87817000Y-77918000D01*
X77597000Y-80578000D02*
X77597000Y-77918000D01*
X76327000Y-80578000D02*
X74997000Y-80578000D01*
X74997000Y-80578000D02*
X74997000Y-79248000D01*
%TO.C,J4*%
X94548000Y-77918000D02*
X89348000Y-77918000D01*
X94548000Y-77978000D02*
X94548000Y-77918000D01*
X89348000Y-80578000D02*
X89348000Y-77918000D01*
X94548000Y-77978000D02*
X91948000Y-77978000D01*
X91948000Y-77978000D02*
X91948000Y-80578000D01*
X91948000Y-80578000D02*
X89348000Y-80578000D01*
X94548000Y-79248000D02*
X94548000Y-80578000D01*
X94548000Y-80578000D02*
X93218000Y-80578000D01*
%TO.C,J3*%
X98238000Y-77918000D02*
X98238000Y-80578000D01*
X113538000Y-77918000D02*
X98238000Y-77918000D01*
X113538000Y-80578000D02*
X98238000Y-80578000D01*
X113538000Y-77918000D02*
X113538000Y-80578000D01*
X114808000Y-77918000D02*
X116138000Y-77918000D01*
X116138000Y-77918000D02*
X116138000Y-79248000D01*
%TO.C,J1*%
X69402000Y-75378000D02*
X66742000Y-75378000D01*
X69402000Y-77978000D02*
X69402000Y-75378000D01*
X66742000Y-77978000D02*
X66742000Y-75378000D01*
X69402000Y-77978000D02*
X66742000Y-77978000D01*
X69402000Y-79248000D02*
X69402000Y-80578000D01*
X69402000Y-80578000D02*
X68072000Y-80578000D01*
%TO.C,C2*%
X95125000Y-75153733D02*
X95125000Y-75496267D01*
X94105000Y-75153733D02*
X94105000Y-75496267D01*
%TO.C,C1*%
X89537000Y-70948733D02*
X89537000Y-71291267D01*
X88517000Y-70948733D02*
X88517000Y-71291267D01*
%TO.C,R9*%
D10*
X99655333Y-73350380D02*
X99322000Y-72874190D01*
X99083904Y-73350380D02*
X99083904Y-72350380D01*
X99464857Y-72350380D01*
X99560095Y-72398000D01*
X99607714Y-72445619D01*
X99655333Y-72540857D01*
X99655333Y-72683714D01*
X99607714Y-72778952D01*
X99560095Y-72826571D01*
X99464857Y-72874190D01*
X99083904Y-72874190D01*
X100131523Y-73350380D02*
X100322000Y-73350380D01*
X100417238Y-73302761D01*
X100464857Y-73255142D01*
X100560095Y-73112285D01*
X100607714Y-72921809D01*
X100607714Y-72540857D01*
X100560095Y-72445619D01*
X100512476Y-72398000D01*
X100417238Y-72350380D01*
X100226761Y-72350380D01*
X100131523Y-72398000D01*
X100083904Y-72445619D01*
X100036285Y-72540857D01*
X100036285Y-72778952D01*
X100083904Y-72874190D01*
X100131523Y-72921809D01*
X100226761Y-72969428D01*
X100417238Y-72969428D01*
X100512476Y-72921809D01*
X100560095Y-72874190D01*
X100607714Y-72778952D01*
%TO.C,R8*%
X96988333Y-73350380D02*
X96655000Y-72874190D01*
X96416904Y-73350380D02*
X96416904Y-72350380D01*
X96797857Y-72350380D01*
X96893095Y-72398000D01*
X96940714Y-72445619D01*
X96988333Y-72540857D01*
X96988333Y-72683714D01*
X96940714Y-72778952D01*
X96893095Y-72826571D01*
X96797857Y-72874190D01*
X96416904Y-72874190D01*
X97559761Y-72778952D02*
X97464523Y-72731333D01*
X97416904Y-72683714D01*
X97369285Y-72588476D01*
X97369285Y-72540857D01*
X97416904Y-72445619D01*
X97464523Y-72398000D01*
X97559761Y-72350380D01*
X97750238Y-72350380D01*
X97845476Y-72398000D01*
X97893095Y-72445619D01*
X97940714Y-72540857D01*
X97940714Y-72588476D01*
X97893095Y-72683714D01*
X97845476Y-72731333D01*
X97750238Y-72778952D01*
X97559761Y-72778952D01*
X97464523Y-72826571D01*
X97416904Y-72874190D01*
X97369285Y-72969428D01*
X97369285Y-73159904D01*
X97416904Y-73255142D01*
X97464523Y-73302761D01*
X97559761Y-73350380D01*
X97750238Y-73350380D01*
X97845476Y-73302761D01*
X97893095Y-73255142D01*
X97940714Y-73159904D01*
X97940714Y-72969428D01*
X97893095Y-72874190D01*
X97845476Y-72826571D01*
X97750238Y-72778952D01*
%TO.C,R7*%
X94829333Y-73350380D02*
X94496000Y-72874190D01*
X94257904Y-73350380D02*
X94257904Y-72350380D01*
X94638857Y-72350380D01*
X94734095Y-72398000D01*
X94781714Y-72445619D01*
X94829333Y-72540857D01*
X94829333Y-72683714D01*
X94781714Y-72778952D01*
X94734095Y-72826571D01*
X94638857Y-72874190D01*
X94257904Y-72874190D01*
X95162666Y-72350380D02*
X95829333Y-72350380D01*
X95400761Y-73350380D01*
%TO.C,R6*%
X80464333Y-75796380D02*
X80131000Y-75320190D01*
X79892904Y-75796380D02*
X79892904Y-74796380D01*
X80273857Y-74796380D01*
X80369095Y-74844000D01*
X80416714Y-74891619D01*
X80464333Y-74986857D01*
X80464333Y-75129714D01*
X80416714Y-75224952D01*
X80369095Y-75272571D01*
X80273857Y-75320190D01*
X79892904Y-75320190D01*
X81321476Y-74796380D02*
X81131000Y-74796380D01*
X81035761Y-74844000D01*
X80988142Y-74891619D01*
X80892904Y-75034476D01*
X80845285Y-75224952D01*
X80845285Y-75605904D01*
X80892904Y-75701142D01*
X80940523Y-75748761D01*
X81035761Y-75796380D01*
X81226238Y-75796380D01*
X81321476Y-75748761D01*
X81369095Y-75701142D01*
X81416714Y-75605904D01*
X81416714Y-75367809D01*
X81369095Y-75272571D01*
X81321476Y-75224952D01*
X81226238Y-75177333D01*
X81035761Y-75177333D01*
X80940523Y-75224952D01*
X80892904Y-75272571D01*
X80845285Y-75367809D01*
%TO.C,R5*%
X67143333Y-74366380D02*
X66810000Y-73890190D01*
X66571904Y-74366380D02*
X66571904Y-73366380D01*
X66952857Y-73366380D01*
X67048095Y-73414000D01*
X67095714Y-73461619D01*
X67143333Y-73556857D01*
X67143333Y-73699714D01*
X67095714Y-73794952D01*
X67048095Y-73842571D01*
X66952857Y-73890190D01*
X66571904Y-73890190D01*
X68048095Y-73366380D02*
X67571904Y-73366380D01*
X67524285Y-73842571D01*
X67571904Y-73794952D01*
X67667142Y-73747333D01*
X67905238Y-73747333D01*
X68000476Y-73794952D01*
X68048095Y-73842571D01*
X68095714Y-73937809D01*
X68095714Y-74175904D01*
X68048095Y-74271142D01*
X68000476Y-74318761D01*
X67905238Y-74366380D01*
X67667142Y-74366380D01*
X67571904Y-74318761D01*
X67524285Y-74271142D01*
%TO.C,R4*%
X89733380Y-74080666D02*
X89257190Y-74414000D01*
X89733380Y-74652095D02*
X88733380Y-74652095D01*
X88733380Y-74271142D01*
X88781000Y-74175904D01*
X88828619Y-74128285D01*
X88923857Y-74080666D01*
X89066714Y-74080666D01*
X89161952Y-74128285D01*
X89209571Y-74175904D01*
X89257190Y-74271142D01*
X89257190Y-74652095D01*
X89066714Y-73223523D02*
X89733380Y-73223523D01*
X88685761Y-73461619D02*
X89400047Y-73699714D01*
X89400047Y-73080666D01*
%TO.C,R3*%
X77049333Y-73096380D02*
X76716000Y-72620190D01*
X76477904Y-73096380D02*
X76477904Y-72096380D01*
X76858857Y-72096380D01*
X76954095Y-72144000D01*
X77001714Y-72191619D01*
X77049333Y-72286857D01*
X77049333Y-72429714D01*
X77001714Y-72524952D01*
X76954095Y-72572571D01*
X76858857Y-72620190D01*
X76477904Y-72620190D01*
X77382666Y-72096380D02*
X78001714Y-72096380D01*
X77668380Y-72477333D01*
X77811238Y-72477333D01*
X77906476Y-72524952D01*
X77954095Y-72572571D01*
X78001714Y-72667809D01*
X78001714Y-72905904D01*
X77954095Y-73001142D01*
X77906476Y-73048761D01*
X77811238Y-73096380D01*
X77525523Y-73096380D01*
X77430285Y-73048761D01*
X77382666Y-73001142D01*
%TO.C,R2*%
X97607380Y-77509666D02*
X97131190Y-77843000D01*
X97607380Y-78081095D02*
X96607380Y-78081095D01*
X96607380Y-77700142D01*
X96655000Y-77604904D01*
X96702619Y-77557285D01*
X96797857Y-77509666D01*
X96940714Y-77509666D01*
X97035952Y-77557285D01*
X97083571Y-77604904D01*
X97131190Y-77700142D01*
X97131190Y-78081095D01*
X96702619Y-77128714D02*
X96655000Y-77081095D01*
X96607380Y-76985857D01*
X96607380Y-76747761D01*
X96655000Y-76652523D01*
X96702619Y-76604904D01*
X96797857Y-76557285D01*
X96893095Y-76557285D01*
X97035952Y-76604904D01*
X97607380Y-77176333D01*
X97607380Y-76557285D01*
%TO.C,R1*%
X102687380Y-75604666D02*
X102211190Y-75938000D01*
X102687380Y-76176095D02*
X101687380Y-76176095D01*
X101687380Y-75795142D01*
X101735000Y-75699904D01*
X101782619Y-75652285D01*
X101877857Y-75604666D01*
X102020714Y-75604666D01*
X102115952Y-75652285D01*
X102163571Y-75699904D01*
X102211190Y-75795142D01*
X102211190Y-76176095D01*
X102687380Y-74652285D02*
X102687380Y-75223714D01*
X102687380Y-74938000D02*
X101687380Y-74938000D01*
X101830238Y-75033238D01*
X101925476Y-75128476D01*
X101973095Y-75223714D01*
%TO.C,C2*%
X96402142Y-75491666D02*
X96449761Y-75539285D01*
X96497380Y-75682142D01*
X96497380Y-75777380D01*
X96449761Y-75920238D01*
X96354523Y-76015476D01*
X96259285Y-76063095D01*
X96068809Y-76110714D01*
X95925952Y-76110714D01*
X95735476Y-76063095D01*
X95640238Y-76015476D01*
X95545000Y-75920238D01*
X95497380Y-75777380D01*
X95497380Y-75682142D01*
X95545000Y-75539285D01*
X95592619Y-75491666D01*
X95592619Y-75110714D02*
X95545000Y-75063095D01*
X95497380Y-74967857D01*
X95497380Y-74729761D01*
X95545000Y-74634523D01*
X95592619Y-74586904D01*
X95687857Y-74539285D01*
X95783095Y-74539285D01*
X95925952Y-74586904D01*
X96497380Y-75158333D01*
X96497380Y-74539285D01*
%TO.C,C1*%
X87987142Y-71286666D02*
X88034761Y-71334285D01*
X88082380Y-71477142D01*
X88082380Y-71572380D01*
X88034761Y-71715238D01*
X87939523Y-71810476D01*
X87844285Y-71858095D01*
X87653809Y-71905714D01*
X87510952Y-71905714D01*
X87320476Y-71858095D01*
X87225238Y-71810476D01*
X87130000Y-71715238D01*
X87082380Y-71572380D01*
X87082380Y-71477142D01*
X87130000Y-71334285D01*
X87177619Y-71286666D01*
X88082380Y-70334285D02*
X88082380Y-70905714D01*
X88082380Y-70620000D02*
X87082380Y-70620000D01*
X87225238Y-70715238D01*
X87320476Y-70810476D01*
X87368095Y-70905714D01*
%TD*%
M02*
