%TF.GenerationSoftware,KiCad,Pcbnew,(5.1.4)-1*%
%TF.CreationDate,2020-11-13T13:28:28-08:00*%
%TF.ProjectId,powerglove_pcb,706f7765-7267-46c6-9f76-655f7063622e,rev?*%
%TF.SameCoordinates,Original*%
%TF.FileFunction,Copper,L2,Bot*%
%TF.FilePolarity,Positive*%
%FSLAX46Y46*%
G04 Gerber Fmt 4.6, Leading zero omitted, Abs format (unit mm)*
G04 Created by KiCad (PCBNEW (5.1.4)-1) date 2020-11-13 13:28:28*
%MOMM*%
%LPD*%
G04 APERTURE LIST*
%TA.AperFunction,ComponentPad*%
%ADD10O,1.700000X1.700000*%
%TD*%
%TA.AperFunction,ComponentPad*%
%ADD11R,1.700000X1.700000*%
%TD*%
%TA.AperFunction,ViaPad*%
%ADD12C,0.800000*%
%TD*%
%TA.AperFunction,Conductor*%
%ADD13C,0.152400*%
%TD*%
%TA.AperFunction,Conductor*%
%ADD14C,0.254000*%
%TD*%
%TA.AperFunction,Conductor*%
%ADD15C,0.508000*%
%TD*%
G04 APERTURE END LIST*
D10*
%TO.P,J2,6*%
%TO.N,/monitor*%
X102108000Y-71120000D03*
%TO.P,J2,5*%
%TO.N,/SCL*%
X104648000Y-71120000D03*
%TO.P,J2,4*%
%TO.N,/SDA*%
X107188000Y-71120000D03*
%TO.P,J2,3*%
%TO.N,/INT*%
X109728000Y-71120000D03*
%TO.P,J2,2*%
%TO.N,/SERVO2*%
X112268000Y-71120000D03*
D11*
%TO.P,J2,1*%
%TO.N,/SERVO1*%
X114808000Y-71120000D03*
%TD*%
D10*
%TO.P,J8,4*%
%TO.N,+3V3*%
X112268000Y-75184000D03*
%TO.P,J8,3*%
%TO.N,GND*%
X109728000Y-75184000D03*
%TO.P,J8,2*%
%TO.N,/SDA*%
X107188000Y-75184000D03*
D11*
%TO.P,J8,1*%
%TO.N,/SCL*%
X104648000Y-75184000D03*
%TD*%
D10*
%TO.P,J7,3*%
%TO.N,GND*%
X85090000Y-71247000D03*
%TO.P,J7,2*%
%TO.N,+5V*%
X82550000Y-71247000D03*
D11*
%TO.P,J7,1*%
%TO.N,Net-(J7-Pad1)*%
X80010000Y-71247000D03*
%TD*%
D10*
%TO.P,J6,3*%
%TO.N,GND*%
X74422000Y-71247000D03*
%TO.P,J6,2*%
%TO.N,+5V*%
X71882000Y-71247000D03*
D11*
%TO.P,J6,1*%
%TO.N,Net-(J6-Pad1)*%
X69342000Y-71247000D03*
%TD*%
D10*
%TO.P,J5,5*%
%TO.N,/PG*%
X86487000Y-79248000D03*
%TO.P,J5,4*%
%TO.N,/EN*%
X83947000Y-79248000D03*
%TO.P,J5,3*%
%TO.N,/VBAT*%
X81407000Y-79248000D03*
%TO.P,J5,2*%
%TO.N,GND*%
X78867000Y-79248000D03*
D11*
%TO.P,J5,1*%
%TO.N,+5V*%
X76327000Y-79248000D03*
%TD*%
D10*
%TO.P,J4,2*%
%TO.N,Net-(J4-Pad2)*%
X90678000Y-79248000D03*
D11*
%TO.P,J4,1*%
%TO.N,Net-(J4-Pad1)*%
X93218000Y-79248000D03*
%TD*%
D10*
%TO.P,J3,7*%
%TO.N,+3V3*%
X99568000Y-79248000D03*
%TO.P,J3,6*%
X102108000Y-79248000D03*
%TO.P,J3,5*%
%TO.N,Net-(J3-Pad5)*%
X104648000Y-79248000D03*
%TO.P,J3,4*%
%TO.N,+3V3*%
X107188000Y-79248000D03*
%TO.P,J3,3*%
%TO.N,+5V*%
X109728000Y-79248000D03*
%TO.P,J3,2*%
%TO.N,GND*%
X112268000Y-79248000D03*
D11*
%TO.P,J3,1*%
X114808000Y-79248000D03*
%TD*%
D10*
%TO.P,J1,2*%
%TO.N,GND*%
X68072000Y-76708000D03*
D11*
%TO.P,J1,1*%
%TO.N,/VBAT*%
X68072000Y-79248000D03*
%TD*%
D12*
%TO.N,GND*%
X89535000Y-76962000D03*
X91821000Y-76835000D03*
X98679000Y-73279000D03*
X95885000Y-78232000D03*
%TO.N,/INT*%
X91694000Y-72517012D03*
%TO.N,/VBAT*%
X94106999Y-71373999D03*
%TO.N,/SERVO1*%
X82550000Y-76835000D03*
%TO.N,/SERVO2*%
X89408000Y-75396790D03*
%TD*%
D13*
%TO.N,/INT*%
X94488012Y-69723000D02*
X91694000Y-72517012D01*
X109728000Y-71120000D02*
X108331000Y-69723000D01*
X108331000Y-69723000D02*
X94488012Y-69723000D01*
D14*
%TO.N,/VBAT*%
X94106999Y-71628001D02*
X94106999Y-71373999D01*
X82423000Y-73533000D02*
X92202000Y-73533000D01*
X80010000Y-77851000D02*
X80010000Y-75946000D01*
X81407000Y-79248000D02*
X80010000Y-77851000D01*
X80010000Y-75946000D02*
X82423000Y-73533000D01*
X92202000Y-73533000D02*
X94106999Y-71628001D01*
D13*
%TO.N,/SERVO1*%
X82949999Y-76435001D02*
X82550000Y-76835000D01*
X83312000Y-76073000D02*
X82949999Y-76435001D01*
X102489000Y-73533000D02*
X99949000Y-76073000D01*
X99949000Y-76073000D02*
X83312000Y-76073000D01*
X114808000Y-71120000D02*
X112395000Y-73533000D01*
X112395000Y-73533000D02*
X102489000Y-73533000D01*
%TO.N,/SERVO2*%
X110363000Y-73025000D02*
X102235000Y-73025000D01*
X99863210Y-75396790D02*
X89408000Y-75396790D01*
X102235000Y-73025000D02*
X99863210Y-75396790D01*
X112268000Y-71120000D02*
X110363000Y-73025000D01*
D15*
%TO.N,+5V*%
X72810000Y-79248000D02*
X76327000Y-79248000D01*
X71882000Y-78320000D02*
X72810000Y-79248000D01*
X71882000Y-78320000D02*
X71882000Y-71247000D01*
X76327000Y-77470000D02*
X82550000Y-71247000D01*
X76327000Y-79248000D02*
X76327000Y-77470000D01*
%TD*%
D14*
%TO.N,GND*%
G36*
X116434000Y-82144000D02*
G01*
X66446000Y-82144000D01*
X66446000Y-78398000D01*
X66839157Y-78398000D01*
X66839157Y-80098000D01*
X66846513Y-80172689D01*
X66868299Y-80244508D01*
X66903678Y-80310696D01*
X66951289Y-80368711D01*
X67009304Y-80416322D01*
X67075492Y-80451701D01*
X67147311Y-80473487D01*
X67222000Y-80480843D01*
X68922000Y-80480843D01*
X68996689Y-80473487D01*
X69068508Y-80451701D01*
X69134696Y-80416322D01*
X69192711Y-80368711D01*
X69240322Y-80310696D01*
X69275701Y-80244508D01*
X69297487Y-80172689D01*
X69304843Y-80098000D01*
X69304843Y-78398000D01*
X69297487Y-78323311D01*
X69275701Y-78251492D01*
X69240322Y-78185304D01*
X69192711Y-78127289D01*
X69134696Y-78079678D01*
X69068508Y-78044299D01*
X68996689Y-78022513D01*
X68922000Y-78015157D01*
X67222000Y-78015157D01*
X67147311Y-78022513D01*
X67075492Y-78044299D01*
X67009304Y-78079678D01*
X66951289Y-78127289D01*
X66903678Y-78185304D01*
X66868299Y-78251492D01*
X66846513Y-78323311D01*
X66839157Y-78398000D01*
X66446000Y-78398000D01*
X66446000Y-77024980D01*
X66882511Y-77024980D01*
X66906866Y-77105288D01*
X67006761Y-77324961D01*
X67147592Y-77520924D01*
X67323948Y-77685647D01*
X67529051Y-77812799D01*
X67755019Y-77897495D01*
X67945000Y-77837187D01*
X67945000Y-76835000D01*
X68199000Y-76835000D01*
X68199000Y-77837187D01*
X68388981Y-77897495D01*
X68614949Y-77812799D01*
X68820052Y-77685647D01*
X68996408Y-77520924D01*
X69137239Y-77324961D01*
X69237134Y-77105288D01*
X69261489Y-77024980D01*
X69200627Y-76835000D01*
X68199000Y-76835000D01*
X67945000Y-76835000D01*
X66943373Y-76835000D01*
X66882511Y-77024980D01*
X66446000Y-77024980D01*
X66446000Y-76391020D01*
X66882511Y-76391020D01*
X66943373Y-76581000D01*
X67945000Y-76581000D01*
X67945000Y-75578813D01*
X68199000Y-75578813D01*
X68199000Y-76581000D01*
X69200627Y-76581000D01*
X69261489Y-76391020D01*
X69237134Y-76310712D01*
X69137239Y-76091039D01*
X68996408Y-75895076D01*
X68820052Y-75730353D01*
X68614949Y-75603201D01*
X68388981Y-75518505D01*
X68199000Y-75578813D01*
X67945000Y-75578813D01*
X67755019Y-75518505D01*
X67529051Y-75603201D01*
X67323948Y-75730353D01*
X67147592Y-75895076D01*
X67006761Y-76091039D01*
X66906866Y-76310712D01*
X66882511Y-76391020D01*
X66446000Y-76391020D01*
X66446000Y-70397000D01*
X68109157Y-70397000D01*
X68109157Y-72097000D01*
X68116513Y-72171689D01*
X68138299Y-72243508D01*
X68173678Y-72309696D01*
X68221289Y-72367711D01*
X68279304Y-72415322D01*
X68345492Y-72450701D01*
X68417311Y-72472487D01*
X68492000Y-72479843D01*
X70192000Y-72479843D01*
X70266689Y-72472487D01*
X70338508Y-72450701D01*
X70404696Y-72415322D01*
X70462711Y-72367711D01*
X70510322Y-72309696D01*
X70545701Y-72243508D01*
X70567487Y-72171689D01*
X70574843Y-72097000D01*
X70574843Y-71247000D01*
X70645044Y-71247000D01*
X70668812Y-71488318D01*
X70739202Y-71720363D01*
X70853509Y-71934216D01*
X71007340Y-72121660D01*
X71194784Y-72275491D01*
X71247001Y-72303402D01*
X71247000Y-78288819D01*
X71243929Y-78320000D01*
X71247000Y-78351181D01*
X71247000Y-78351191D01*
X71256188Y-78444481D01*
X71292498Y-78564179D01*
X71351463Y-78674493D01*
X71430815Y-78771185D01*
X71455050Y-78791074D01*
X72338930Y-79674955D01*
X72358815Y-79699185D01*
X72455506Y-79778537D01*
X72565820Y-79837502D01*
X72685518Y-79873812D01*
X72778808Y-79883000D01*
X72778818Y-79883000D01*
X72809999Y-79886071D01*
X72841180Y-79883000D01*
X75094157Y-79883000D01*
X75094157Y-80098000D01*
X75101513Y-80172689D01*
X75123299Y-80244508D01*
X75158678Y-80310696D01*
X75206289Y-80368711D01*
X75264304Y-80416322D01*
X75330492Y-80451701D01*
X75402311Y-80473487D01*
X75477000Y-80480843D01*
X77177000Y-80480843D01*
X77251689Y-80473487D01*
X77323508Y-80451701D01*
X77389696Y-80416322D01*
X77447711Y-80368711D01*
X77495322Y-80310696D01*
X77530701Y-80244508D01*
X77552487Y-80172689D01*
X77559843Y-80098000D01*
X77559843Y-79564981D01*
X77677505Y-79564981D01*
X77762201Y-79790949D01*
X77889353Y-79996052D01*
X78054076Y-80172408D01*
X78250039Y-80313239D01*
X78469712Y-80413134D01*
X78550020Y-80437489D01*
X78740000Y-80376627D01*
X78740000Y-79375000D01*
X78994000Y-79375000D01*
X78994000Y-80376627D01*
X79183980Y-80437489D01*
X79264288Y-80413134D01*
X79483961Y-80313239D01*
X79679924Y-80172408D01*
X79844647Y-79996052D01*
X79971799Y-79790949D01*
X80056495Y-79564981D01*
X79996187Y-79375000D01*
X78994000Y-79375000D01*
X78740000Y-79375000D01*
X77737813Y-79375000D01*
X77677505Y-79564981D01*
X77559843Y-79564981D01*
X77559843Y-78931019D01*
X77677505Y-78931019D01*
X77737813Y-79121000D01*
X78740000Y-79121000D01*
X78740000Y-78119373D01*
X78994000Y-78119373D01*
X78994000Y-79121000D01*
X79996187Y-79121000D01*
X80056495Y-78931019D01*
X79971799Y-78705051D01*
X79844647Y-78499948D01*
X79679924Y-78323592D01*
X79483961Y-78182761D01*
X79264288Y-78082866D01*
X79183980Y-78058511D01*
X78994000Y-78119373D01*
X78740000Y-78119373D01*
X78550020Y-78058511D01*
X78469712Y-78082866D01*
X78250039Y-78182761D01*
X78054076Y-78323592D01*
X77889353Y-78499948D01*
X77762201Y-78705051D01*
X77677505Y-78931019D01*
X77559843Y-78931019D01*
X77559843Y-78398000D01*
X77552487Y-78323311D01*
X77530701Y-78251492D01*
X77495322Y-78185304D01*
X77447711Y-78127289D01*
X77389696Y-78079678D01*
X77323508Y-78044299D01*
X77251689Y-78022513D01*
X77177000Y-78015157D01*
X76962000Y-78015157D01*
X76962000Y-77733024D01*
X78749024Y-75946000D01*
X79499543Y-75946000D01*
X79502001Y-75970954D01*
X79502000Y-77826056D01*
X79499543Y-77851000D01*
X79502000Y-77875944D01*
X79502000Y-77875946D01*
X79509351Y-77950584D01*
X79538399Y-78046342D01*
X79585571Y-78134595D01*
X79649052Y-78211948D01*
X79668435Y-78227855D01*
X80252801Y-78812221D01*
X80193812Y-79006682D01*
X80170044Y-79248000D01*
X80193812Y-79489318D01*
X80264202Y-79721363D01*
X80378509Y-79935216D01*
X80532340Y-80122660D01*
X80719784Y-80276491D01*
X80933637Y-80390798D01*
X81165682Y-80461188D01*
X81346528Y-80479000D01*
X81467472Y-80479000D01*
X81648318Y-80461188D01*
X81880363Y-80390798D01*
X82094216Y-80276491D01*
X82281660Y-80122660D01*
X82435491Y-79935216D01*
X82549798Y-79721363D01*
X82620188Y-79489318D01*
X82643956Y-79248000D01*
X82710044Y-79248000D01*
X82733812Y-79489318D01*
X82804202Y-79721363D01*
X82918509Y-79935216D01*
X83072340Y-80122660D01*
X83259784Y-80276491D01*
X83473637Y-80390798D01*
X83705682Y-80461188D01*
X83886528Y-80479000D01*
X84007472Y-80479000D01*
X84188318Y-80461188D01*
X84420363Y-80390798D01*
X84634216Y-80276491D01*
X84821660Y-80122660D01*
X84975491Y-79935216D01*
X85089798Y-79721363D01*
X85160188Y-79489318D01*
X85183956Y-79248000D01*
X85250044Y-79248000D01*
X85273812Y-79489318D01*
X85344202Y-79721363D01*
X85458509Y-79935216D01*
X85612340Y-80122660D01*
X85799784Y-80276491D01*
X86013637Y-80390798D01*
X86245682Y-80461188D01*
X86426528Y-80479000D01*
X86547472Y-80479000D01*
X86728318Y-80461188D01*
X86960363Y-80390798D01*
X87174216Y-80276491D01*
X87361660Y-80122660D01*
X87515491Y-79935216D01*
X87629798Y-79721363D01*
X87700188Y-79489318D01*
X87723956Y-79248000D01*
X89441044Y-79248000D01*
X89464812Y-79489318D01*
X89535202Y-79721363D01*
X89649509Y-79935216D01*
X89803340Y-80122660D01*
X89990784Y-80276491D01*
X90204637Y-80390798D01*
X90436682Y-80461188D01*
X90617528Y-80479000D01*
X90738472Y-80479000D01*
X90919318Y-80461188D01*
X91151363Y-80390798D01*
X91365216Y-80276491D01*
X91552660Y-80122660D01*
X91706491Y-79935216D01*
X91820798Y-79721363D01*
X91891188Y-79489318D01*
X91914956Y-79248000D01*
X91891188Y-79006682D01*
X91820798Y-78774637D01*
X91706491Y-78560784D01*
X91572898Y-78398000D01*
X91985157Y-78398000D01*
X91985157Y-80098000D01*
X91992513Y-80172689D01*
X92014299Y-80244508D01*
X92049678Y-80310696D01*
X92097289Y-80368711D01*
X92155304Y-80416322D01*
X92221492Y-80451701D01*
X92293311Y-80473487D01*
X92368000Y-80480843D01*
X94068000Y-80480843D01*
X94142689Y-80473487D01*
X94214508Y-80451701D01*
X94280696Y-80416322D01*
X94338711Y-80368711D01*
X94386322Y-80310696D01*
X94421701Y-80244508D01*
X94443487Y-80172689D01*
X94450843Y-80098000D01*
X94450843Y-79248000D01*
X98331044Y-79248000D01*
X98354812Y-79489318D01*
X98425202Y-79721363D01*
X98539509Y-79935216D01*
X98693340Y-80122660D01*
X98880784Y-80276491D01*
X99094637Y-80390798D01*
X99326682Y-80461188D01*
X99507528Y-80479000D01*
X99628472Y-80479000D01*
X99809318Y-80461188D01*
X100041363Y-80390798D01*
X100255216Y-80276491D01*
X100442660Y-80122660D01*
X100596491Y-79935216D01*
X100710798Y-79721363D01*
X100781188Y-79489318D01*
X100804956Y-79248000D01*
X100871044Y-79248000D01*
X100894812Y-79489318D01*
X100965202Y-79721363D01*
X101079509Y-79935216D01*
X101233340Y-80122660D01*
X101420784Y-80276491D01*
X101634637Y-80390798D01*
X101866682Y-80461188D01*
X102047528Y-80479000D01*
X102168472Y-80479000D01*
X102349318Y-80461188D01*
X102581363Y-80390798D01*
X102795216Y-80276491D01*
X102982660Y-80122660D01*
X103136491Y-79935216D01*
X103250798Y-79721363D01*
X103321188Y-79489318D01*
X103344956Y-79248000D01*
X103411044Y-79248000D01*
X103434812Y-79489318D01*
X103505202Y-79721363D01*
X103619509Y-79935216D01*
X103773340Y-80122660D01*
X103960784Y-80276491D01*
X104174637Y-80390798D01*
X104406682Y-80461188D01*
X104587528Y-80479000D01*
X104708472Y-80479000D01*
X104889318Y-80461188D01*
X105121363Y-80390798D01*
X105335216Y-80276491D01*
X105522660Y-80122660D01*
X105676491Y-79935216D01*
X105790798Y-79721363D01*
X105861188Y-79489318D01*
X105884956Y-79248000D01*
X105951044Y-79248000D01*
X105974812Y-79489318D01*
X106045202Y-79721363D01*
X106159509Y-79935216D01*
X106313340Y-80122660D01*
X106500784Y-80276491D01*
X106714637Y-80390798D01*
X106946682Y-80461188D01*
X107127528Y-80479000D01*
X107248472Y-80479000D01*
X107429318Y-80461188D01*
X107661363Y-80390798D01*
X107875216Y-80276491D01*
X108062660Y-80122660D01*
X108216491Y-79935216D01*
X108330798Y-79721363D01*
X108401188Y-79489318D01*
X108424956Y-79248000D01*
X108491044Y-79248000D01*
X108514812Y-79489318D01*
X108585202Y-79721363D01*
X108699509Y-79935216D01*
X108853340Y-80122660D01*
X109040784Y-80276491D01*
X109254637Y-80390798D01*
X109486682Y-80461188D01*
X109667528Y-80479000D01*
X109788472Y-80479000D01*
X109969318Y-80461188D01*
X110201363Y-80390798D01*
X110415216Y-80276491D01*
X110602660Y-80122660D01*
X110756491Y-79935216D01*
X110870798Y-79721363D01*
X110918235Y-79564981D01*
X111078505Y-79564981D01*
X111163201Y-79790949D01*
X111290353Y-79996052D01*
X111455076Y-80172408D01*
X111651039Y-80313239D01*
X111870712Y-80413134D01*
X111951020Y-80437489D01*
X112141000Y-80376627D01*
X112141000Y-79375000D01*
X112395000Y-79375000D01*
X112395000Y-80376627D01*
X112584980Y-80437489D01*
X112665288Y-80413134D01*
X112884961Y-80313239D01*
X113080924Y-80172408D01*
X113150423Y-80098000D01*
X113575157Y-80098000D01*
X113582513Y-80172689D01*
X113604299Y-80244508D01*
X113639678Y-80310696D01*
X113687289Y-80368711D01*
X113745304Y-80416322D01*
X113811492Y-80451701D01*
X113883311Y-80473487D01*
X113958000Y-80480843D01*
X114585750Y-80479000D01*
X114681000Y-80383750D01*
X114681000Y-79375000D01*
X114935000Y-79375000D01*
X114935000Y-80383750D01*
X115030250Y-80479000D01*
X115658000Y-80480843D01*
X115732689Y-80473487D01*
X115804508Y-80451701D01*
X115870696Y-80416322D01*
X115928711Y-80368711D01*
X115976322Y-80310696D01*
X116011701Y-80244508D01*
X116033487Y-80172689D01*
X116040843Y-80098000D01*
X116039000Y-79470250D01*
X115943750Y-79375000D01*
X114935000Y-79375000D01*
X114681000Y-79375000D01*
X113672250Y-79375000D01*
X113577000Y-79470250D01*
X113575157Y-80098000D01*
X113150423Y-80098000D01*
X113245647Y-79996052D01*
X113372799Y-79790949D01*
X113457495Y-79564981D01*
X113397187Y-79375000D01*
X112395000Y-79375000D01*
X112141000Y-79375000D01*
X111138813Y-79375000D01*
X111078505Y-79564981D01*
X110918235Y-79564981D01*
X110941188Y-79489318D01*
X110964956Y-79248000D01*
X110941188Y-79006682D01*
X110918236Y-78931019D01*
X111078505Y-78931019D01*
X111138813Y-79121000D01*
X112141000Y-79121000D01*
X112141000Y-78119373D01*
X112395000Y-78119373D01*
X112395000Y-79121000D01*
X113397187Y-79121000D01*
X113457495Y-78931019D01*
X113372799Y-78705051D01*
X113245647Y-78499948D01*
X113150424Y-78398000D01*
X113575157Y-78398000D01*
X113577000Y-79025750D01*
X113672250Y-79121000D01*
X114681000Y-79121000D01*
X114681000Y-78112250D01*
X114935000Y-78112250D01*
X114935000Y-79121000D01*
X115943750Y-79121000D01*
X116039000Y-79025750D01*
X116040843Y-78398000D01*
X116033487Y-78323311D01*
X116011701Y-78251492D01*
X115976322Y-78185304D01*
X115928711Y-78127289D01*
X115870696Y-78079678D01*
X115804508Y-78044299D01*
X115732689Y-78022513D01*
X115658000Y-78015157D01*
X115030250Y-78017000D01*
X114935000Y-78112250D01*
X114681000Y-78112250D01*
X114585750Y-78017000D01*
X113958000Y-78015157D01*
X113883311Y-78022513D01*
X113811492Y-78044299D01*
X113745304Y-78079678D01*
X113687289Y-78127289D01*
X113639678Y-78185304D01*
X113604299Y-78251492D01*
X113582513Y-78323311D01*
X113575157Y-78398000D01*
X113150424Y-78398000D01*
X113080924Y-78323592D01*
X112884961Y-78182761D01*
X112665288Y-78082866D01*
X112584980Y-78058511D01*
X112395000Y-78119373D01*
X112141000Y-78119373D01*
X111951020Y-78058511D01*
X111870712Y-78082866D01*
X111651039Y-78182761D01*
X111455076Y-78323592D01*
X111290353Y-78499948D01*
X111163201Y-78705051D01*
X111078505Y-78931019D01*
X110918236Y-78931019D01*
X110870798Y-78774637D01*
X110756491Y-78560784D01*
X110602660Y-78373340D01*
X110415216Y-78219509D01*
X110201363Y-78105202D01*
X109969318Y-78034812D01*
X109788472Y-78017000D01*
X109667528Y-78017000D01*
X109486682Y-78034812D01*
X109254637Y-78105202D01*
X109040784Y-78219509D01*
X108853340Y-78373340D01*
X108699509Y-78560784D01*
X108585202Y-78774637D01*
X108514812Y-79006682D01*
X108491044Y-79248000D01*
X108424956Y-79248000D01*
X108401188Y-79006682D01*
X108330798Y-78774637D01*
X108216491Y-78560784D01*
X108062660Y-78373340D01*
X107875216Y-78219509D01*
X107661363Y-78105202D01*
X107429318Y-78034812D01*
X107248472Y-78017000D01*
X107127528Y-78017000D01*
X106946682Y-78034812D01*
X106714637Y-78105202D01*
X106500784Y-78219509D01*
X106313340Y-78373340D01*
X106159509Y-78560784D01*
X106045202Y-78774637D01*
X105974812Y-79006682D01*
X105951044Y-79248000D01*
X105884956Y-79248000D01*
X105861188Y-79006682D01*
X105790798Y-78774637D01*
X105676491Y-78560784D01*
X105522660Y-78373340D01*
X105335216Y-78219509D01*
X105121363Y-78105202D01*
X104889318Y-78034812D01*
X104708472Y-78017000D01*
X104587528Y-78017000D01*
X104406682Y-78034812D01*
X104174637Y-78105202D01*
X103960784Y-78219509D01*
X103773340Y-78373340D01*
X103619509Y-78560784D01*
X103505202Y-78774637D01*
X103434812Y-79006682D01*
X103411044Y-79248000D01*
X103344956Y-79248000D01*
X103321188Y-79006682D01*
X103250798Y-78774637D01*
X103136491Y-78560784D01*
X102982660Y-78373340D01*
X102795216Y-78219509D01*
X102581363Y-78105202D01*
X102349318Y-78034812D01*
X102168472Y-78017000D01*
X102047528Y-78017000D01*
X101866682Y-78034812D01*
X101634637Y-78105202D01*
X101420784Y-78219509D01*
X101233340Y-78373340D01*
X101079509Y-78560784D01*
X100965202Y-78774637D01*
X100894812Y-79006682D01*
X100871044Y-79248000D01*
X100804956Y-79248000D01*
X100781188Y-79006682D01*
X100710798Y-78774637D01*
X100596491Y-78560784D01*
X100442660Y-78373340D01*
X100255216Y-78219509D01*
X100041363Y-78105202D01*
X99809318Y-78034812D01*
X99628472Y-78017000D01*
X99507528Y-78017000D01*
X99326682Y-78034812D01*
X99094637Y-78105202D01*
X98880784Y-78219509D01*
X98693340Y-78373340D01*
X98539509Y-78560784D01*
X98425202Y-78774637D01*
X98354812Y-79006682D01*
X98331044Y-79248000D01*
X94450843Y-79248000D01*
X94450843Y-78398000D01*
X94443487Y-78323311D01*
X94421701Y-78251492D01*
X94386322Y-78185304D01*
X94338711Y-78127289D01*
X94280696Y-78079678D01*
X94214508Y-78044299D01*
X94142689Y-78022513D01*
X94068000Y-78015157D01*
X92368000Y-78015157D01*
X92293311Y-78022513D01*
X92221492Y-78044299D01*
X92155304Y-78079678D01*
X92097289Y-78127289D01*
X92049678Y-78185304D01*
X92014299Y-78251492D01*
X91992513Y-78323311D01*
X91985157Y-78398000D01*
X91572898Y-78398000D01*
X91552660Y-78373340D01*
X91365216Y-78219509D01*
X91151363Y-78105202D01*
X90919318Y-78034812D01*
X90738472Y-78017000D01*
X90617528Y-78017000D01*
X90436682Y-78034812D01*
X90204637Y-78105202D01*
X89990784Y-78219509D01*
X89803340Y-78373340D01*
X89649509Y-78560784D01*
X89535202Y-78774637D01*
X89464812Y-79006682D01*
X89441044Y-79248000D01*
X87723956Y-79248000D01*
X87700188Y-79006682D01*
X87629798Y-78774637D01*
X87515491Y-78560784D01*
X87361660Y-78373340D01*
X87174216Y-78219509D01*
X86960363Y-78105202D01*
X86728318Y-78034812D01*
X86547472Y-78017000D01*
X86426528Y-78017000D01*
X86245682Y-78034812D01*
X86013637Y-78105202D01*
X85799784Y-78219509D01*
X85612340Y-78373340D01*
X85458509Y-78560784D01*
X85344202Y-78774637D01*
X85273812Y-79006682D01*
X85250044Y-79248000D01*
X85183956Y-79248000D01*
X85160188Y-79006682D01*
X85089798Y-78774637D01*
X84975491Y-78560784D01*
X84821660Y-78373340D01*
X84634216Y-78219509D01*
X84420363Y-78105202D01*
X84188318Y-78034812D01*
X84007472Y-78017000D01*
X83886528Y-78017000D01*
X83705682Y-78034812D01*
X83473637Y-78105202D01*
X83259784Y-78219509D01*
X83072340Y-78373340D01*
X82918509Y-78560784D01*
X82804202Y-78774637D01*
X82733812Y-79006682D01*
X82710044Y-79248000D01*
X82643956Y-79248000D01*
X82620188Y-79006682D01*
X82549798Y-78774637D01*
X82435491Y-78560784D01*
X82281660Y-78373340D01*
X82094216Y-78219509D01*
X81880363Y-78105202D01*
X81648318Y-78034812D01*
X81467472Y-78017000D01*
X81346528Y-78017000D01*
X81165682Y-78034812D01*
X80971221Y-78093801D01*
X80518000Y-77640580D01*
X80518000Y-76758078D01*
X81769000Y-76758078D01*
X81769000Y-76911922D01*
X81799013Y-77062809D01*
X81857887Y-77204942D01*
X81943358Y-77332859D01*
X82052141Y-77441642D01*
X82180058Y-77527113D01*
X82322191Y-77585987D01*
X82473078Y-77616000D01*
X82626922Y-77616000D01*
X82777809Y-77585987D01*
X82919942Y-77527113D01*
X83047859Y-77441642D01*
X83156642Y-77332859D01*
X83242113Y-77204942D01*
X83300987Y-77062809D01*
X83331000Y-76911922D01*
X83331000Y-76758078D01*
X83321460Y-76710117D01*
X83501378Y-76530200D01*
X99926550Y-76530200D01*
X99949000Y-76532411D01*
X99971450Y-76530200D01*
X99971460Y-76530200D01*
X100038627Y-76523585D01*
X100124809Y-76497441D01*
X100204236Y-76454987D01*
X100273853Y-76397853D01*
X100288174Y-76380403D01*
X102678378Y-73990200D01*
X103632969Y-73990200D01*
X103585304Y-74015678D01*
X103527289Y-74063289D01*
X103479678Y-74121304D01*
X103444299Y-74187492D01*
X103422513Y-74259311D01*
X103415157Y-74334000D01*
X103415157Y-76034000D01*
X103422513Y-76108689D01*
X103444299Y-76180508D01*
X103479678Y-76246696D01*
X103527289Y-76304711D01*
X103585304Y-76352322D01*
X103651492Y-76387701D01*
X103723311Y-76409487D01*
X103798000Y-76416843D01*
X105498000Y-76416843D01*
X105572689Y-76409487D01*
X105644508Y-76387701D01*
X105710696Y-76352322D01*
X105768711Y-76304711D01*
X105816322Y-76246696D01*
X105851701Y-76180508D01*
X105873487Y-76108689D01*
X105880843Y-76034000D01*
X105880843Y-74334000D01*
X105873487Y-74259311D01*
X105851701Y-74187492D01*
X105816322Y-74121304D01*
X105768711Y-74063289D01*
X105710696Y-74015678D01*
X105663031Y-73990200D01*
X106882768Y-73990200D01*
X106714637Y-74041202D01*
X106500784Y-74155509D01*
X106313340Y-74309340D01*
X106159509Y-74496784D01*
X106045202Y-74710637D01*
X105974812Y-74942682D01*
X105951044Y-75184000D01*
X105974812Y-75425318D01*
X106045202Y-75657363D01*
X106159509Y-75871216D01*
X106313340Y-76058660D01*
X106500784Y-76212491D01*
X106714637Y-76326798D01*
X106946682Y-76397188D01*
X107127528Y-76415000D01*
X107248472Y-76415000D01*
X107429318Y-76397188D01*
X107661363Y-76326798D01*
X107875216Y-76212491D01*
X108062660Y-76058660D01*
X108216491Y-75871216D01*
X108330798Y-75657363D01*
X108378235Y-75500981D01*
X108538505Y-75500981D01*
X108623201Y-75726949D01*
X108750353Y-75932052D01*
X108915076Y-76108408D01*
X109111039Y-76249239D01*
X109330712Y-76349134D01*
X109411020Y-76373489D01*
X109601000Y-76312627D01*
X109601000Y-75311000D01*
X109855000Y-75311000D01*
X109855000Y-76312627D01*
X110044980Y-76373489D01*
X110125288Y-76349134D01*
X110344961Y-76249239D01*
X110540924Y-76108408D01*
X110705647Y-75932052D01*
X110832799Y-75726949D01*
X110917495Y-75500981D01*
X110857187Y-75311000D01*
X109855000Y-75311000D01*
X109601000Y-75311000D01*
X108598813Y-75311000D01*
X108538505Y-75500981D01*
X108378235Y-75500981D01*
X108401188Y-75425318D01*
X108424956Y-75184000D01*
X108401188Y-74942682D01*
X108330798Y-74710637D01*
X108216491Y-74496784D01*
X108062660Y-74309340D01*
X107875216Y-74155509D01*
X107661363Y-74041202D01*
X107493232Y-73990200D01*
X109600998Y-73990200D01*
X109600998Y-74055372D01*
X109411020Y-73994511D01*
X109330712Y-74018866D01*
X109111039Y-74118761D01*
X108915076Y-74259592D01*
X108750353Y-74435948D01*
X108623201Y-74641051D01*
X108538505Y-74867019D01*
X108598813Y-75057000D01*
X109601000Y-75057000D01*
X109601000Y-75037000D01*
X109855000Y-75037000D01*
X109855000Y-75057000D01*
X110857187Y-75057000D01*
X110917495Y-74867019D01*
X110832799Y-74641051D01*
X110705647Y-74435948D01*
X110540924Y-74259592D01*
X110344961Y-74118761D01*
X110125288Y-74018866D01*
X110044980Y-73994511D01*
X109855002Y-74055372D01*
X109855002Y-73990200D01*
X111962768Y-73990200D01*
X111794637Y-74041202D01*
X111580784Y-74155509D01*
X111393340Y-74309340D01*
X111239509Y-74496784D01*
X111125202Y-74710637D01*
X111054812Y-74942682D01*
X111031044Y-75184000D01*
X111054812Y-75425318D01*
X111125202Y-75657363D01*
X111239509Y-75871216D01*
X111393340Y-76058660D01*
X111580784Y-76212491D01*
X111794637Y-76326798D01*
X112026682Y-76397188D01*
X112207528Y-76415000D01*
X112328472Y-76415000D01*
X112509318Y-76397188D01*
X112741363Y-76326798D01*
X112955216Y-76212491D01*
X113142660Y-76058660D01*
X113296491Y-75871216D01*
X113410798Y-75657363D01*
X113481188Y-75425318D01*
X113504956Y-75184000D01*
X113481188Y-74942682D01*
X113410798Y-74710637D01*
X113296491Y-74496784D01*
X113142660Y-74309340D01*
X112955216Y-74155509D01*
X112741363Y-74041202D01*
X112518025Y-73973453D01*
X112570809Y-73957441D01*
X112650236Y-73914987D01*
X112719853Y-73857853D01*
X112734174Y-73840403D01*
X114221735Y-72352843D01*
X115658000Y-72352843D01*
X115732689Y-72345487D01*
X115804508Y-72323701D01*
X115870696Y-72288322D01*
X115928711Y-72240711D01*
X115976322Y-72182696D01*
X116011701Y-72116508D01*
X116033487Y-72044689D01*
X116040843Y-71970000D01*
X116040843Y-70270000D01*
X116033487Y-70195311D01*
X116011701Y-70123492D01*
X115976322Y-70057304D01*
X115928711Y-69999289D01*
X115870696Y-69951678D01*
X115804508Y-69916299D01*
X115732689Y-69894513D01*
X115658000Y-69887157D01*
X113958000Y-69887157D01*
X113883311Y-69894513D01*
X113811492Y-69916299D01*
X113745304Y-69951678D01*
X113687289Y-69999289D01*
X113639678Y-70057304D01*
X113604299Y-70123492D01*
X113582513Y-70195311D01*
X113575157Y-70270000D01*
X113575157Y-71706265D01*
X112205623Y-73075800D01*
X110958777Y-73075800D01*
X111779741Y-72254836D01*
X111794637Y-72262798D01*
X112026682Y-72333188D01*
X112207528Y-72351000D01*
X112328472Y-72351000D01*
X112509318Y-72333188D01*
X112741363Y-72262798D01*
X112955216Y-72148491D01*
X113142660Y-71994660D01*
X113296491Y-71807216D01*
X113410798Y-71593363D01*
X113481188Y-71361318D01*
X113504956Y-71120000D01*
X113481188Y-70878682D01*
X113410798Y-70646637D01*
X113296491Y-70432784D01*
X113142660Y-70245340D01*
X112955216Y-70091509D01*
X112741363Y-69977202D01*
X112509318Y-69906812D01*
X112328472Y-69889000D01*
X112207528Y-69889000D01*
X112026682Y-69906812D01*
X111794637Y-69977202D01*
X111580784Y-70091509D01*
X111393340Y-70245340D01*
X111239509Y-70432784D01*
X111125202Y-70646637D01*
X111054812Y-70878682D01*
X111031044Y-71120000D01*
X111054812Y-71361318D01*
X111125202Y-71593363D01*
X111133164Y-71608259D01*
X110173623Y-72567800D01*
X102257450Y-72567800D01*
X102235000Y-72565589D01*
X102212550Y-72567800D01*
X102212540Y-72567800D01*
X102145373Y-72574415D01*
X102081030Y-72593934D01*
X102059190Y-72600559D01*
X101979764Y-72643013D01*
X101927592Y-72685829D01*
X101927586Y-72685835D01*
X101910147Y-72700147D01*
X101895835Y-72717586D01*
X99673833Y-74939590D01*
X90041809Y-74939590D01*
X90014642Y-74898931D01*
X89905859Y-74790148D01*
X89777942Y-74704677D01*
X89635809Y-74645803D01*
X89484922Y-74615790D01*
X89331078Y-74615790D01*
X89180191Y-74645803D01*
X89038058Y-74704677D01*
X88910141Y-74790148D01*
X88801358Y-74898931D01*
X88715887Y-75026848D01*
X88657013Y-75168981D01*
X88627000Y-75319868D01*
X88627000Y-75473712D01*
X88655263Y-75615800D01*
X83334450Y-75615800D01*
X83312000Y-75613589D01*
X83289550Y-75615800D01*
X83289540Y-75615800D01*
X83222373Y-75622415D01*
X83156249Y-75642474D01*
X83136190Y-75648559D01*
X83056764Y-75691013D01*
X83004592Y-75733829D01*
X83004586Y-75733835D01*
X82987147Y-75748147D01*
X82972834Y-75765587D01*
X82674883Y-76063540D01*
X82626922Y-76054000D01*
X82473078Y-76054000D01*
X82322191Y-76084013D01*
X82180058Y-76142887D01*
X82052141Y-76228358D01*
X81943358Y-76337141D01*
X81857887Y-76465058D01*
X81799013Y-76607191D01*
X81769000Y-76758078D01*
X80518000Y-76758078D01*
X80518000Y-76156420D01*
X82633421Y-74041000D01*
X92177056Y-74041000D01*
X92202000Y-74043457D01*
X92226944Y-74041000D01*
X92226947Y-74041000D01*
X92301585Y-74033649D01*
X92397343Y-74004601D01*
X92485595Y-73957429D01*
X92562948Y-73893948D01*
X92578855Y-73874565D01*
X94326852Y-72126568D01*
X94334808Y-72124986D01*
X94476941Y-72066112D01*
X94604858Y-71980641D01*
X94713641Y-71871858D01*
X94799112Y-71743941D01*
X94857986Y-71601808D01*
X94887999Y-71450921D01*
X94887999Y-71297077D01*
X94857986Y-71146190D01*
X94799112Y-71004057D01*
X94713641Y-70876140D01*
X94604858Y-70767357D01*
X94476941Y-70681886D01*
X94334808Y-70623012D01*
X94251208Y-70606383D01*
X94677391Y-70180200D01*
X101312713Y-70180200D01*
X101233340Y-70245340D01*
X101079509Y-70432784D01*
X100965202Y-70646637D01*
X100894812Y-70878682D01*
X100871044Y-71120000D01*
X100894812Y-71361318D01*
X100965202Y-71593363D01*
X101079509Y-71807216D01*
X101233340Y-71994660D01*
X101420784Y-72148491D01*
X101634637Y-72262798D01*
X101866682Y-72333188D01*
X102047528Y-72351000D01*
X102168472Y-72351000D01*
X102349318Y-72333188D01*
X102581363Y-72262798D01*
X102795216Y-72148491D01*
X102982660Y-71994660D01*
X103136491Y-71807216D01*
X103250798Y-71593363D01*
X103321188Y-71361318D01*
X103344956Y-71120000D01*
X103321188Y-70878682D01*
X103250798Y-70646637D01*
X103136491Y-70432784D01*
X102982660Y-70245340D01*
X102903287Y-70180200D01*
X103852713Y-70180200D01*
X103773340Y-70245340D01*
X103619509Y-70432784D01*
X103505202Y-70646637D01*
X103434812Y-70878682D01*
X103411044Y-71120000D01*
X103434812Y-71361318D01*
X103505202Y-71593363D01*
X103619509Y-71807216D01*
X103773340Y-71994660D01*
X103960784Y-72148491D01*
X104174637Y-72262798D01*
X104406682Y-72333188D01*
X104587528Y-72351000D01*
X104708472Y-72351000D01*
X104889318Y-72333188D01*
X105121363Y-72262798D01*
X105335216Y-72148491D01*
X105522660Y-71994660D01*
X105676491Y-71807216D01*
X105790798Y-71593363D01*
X105861188Y-71361318D01*
X105884956Y-71120000D01*
X105861188Y-70878682D01*
X105790798Y-70646637D01*
X105676491Y-70432784D01*
X105522660Y-70245340D01*
X105443287Y-70180200D01*
X106392713Y-70180200D01*
X106313340Y-70245340D01*
X106159509Y-70432784D01*
X106045202Y-70646637D01*
X105974812Y-70878682D01*
X105951044Y-71120000D01*
X105974812Y-71361318D01*
X106045202Y-71593363D01*
X106159509Y-71807216D01*
X106313340Y-71994660D01*
X106500784Y-72148491D01*
X106714637Y-72262798D01*
X106946682Y-72333188D01*
X107127528Y-72351000D01*
X107248472Y-72351000D01*
X107429318Y-72333188D01*
X107661363Y-72262798D01*
X107875216Y-72148491D01*
X108062660Y-71994660D01*
X108216491Y-71807216D01*
X108330798Y-71593363D01*
X108401188Y-71361318D01*
X108424956Y-71120000D01*
X108401188Y-70878682D01*
X108330798Y-70646637D01*
X108216491Y-70432784D01*
X108062660Y-70245340D01*
X107983287Y-70180200D01*
X108141623Y-70180200D01*
X108593164Y-70631741D01*
X108585202Y-70646637D01*
X108514812Y-70878682D01*
X108491044Y-71120000D01*
X108514812Y-71361318D01*
X108585202Y-71593363D01*
X108699509Y-71807216D01*
X108853340Y-71994660D01*
X109040784Y-72148491D01*
X109254637Y-72262798D01*
X109486682Y-72333188D01*
X109667528Y-72351000D01*
X109788472Y-72351000D01*
X109969318Y-72333188D01*
X110201363Y-72262798D01*
X110415216Y-72148491D01*
X110602660Y-71994660D01*
X110756491Y-71807216D01*
X110870798Y-71593363D01*
X110941188Y-71361318D01*
X110964956Y-71120000D01*
X110941188Y-70878682D01*
X110870798Y-70646637D01*
X110756491Y-70432784D01*
X110602660Y-70245340D01*
X110415216Y-70091509D01*
X110201363Y-69977202D01*
X109969318Y-69906812D01*
X109788472Y-69889000D01*
X109667528Y-69889000D01*
X109486682Y-69906812D01*
X109254637Y-69977202D01*
X109239741Y-69985164D01*
X108670174Y-69415597D01*
X108655853Y-69398147D01*
X108586236Y-69341013D01*
X108506809Y-69298559D01*
X108420627Y-69272415D01*
X108353460Y-69265800D01*
X108353450Y-69265800D01*
X108331000Y-69263589D01*
X108308550Y-69265800D01*
X94510462Y-69265800D01*
X94488012Y-69263589D01*
X94465562Y-69265800D01*
X94465552Y-69265800D01*
X94398385Y-69272415D01*
X94332261Y-69292474D01*
X94312202Y-69298559D01*
X94232776Y-69341013D01*
X94180604Y-69383829D01*
X94180598Y-69383835D01*
X94163159Y-69398147D01*
X94148847Y-69415586D01*
X91818883Y-71745552D01*
X91770922Y-71736012D01*
X91617078Y-71736012D01*
X91466191Y-71766025D01*
X91324058Y-71824899D01*
X91196141Y-71910370D01*
X91087358Y-72019153D01*
X91001887Y-72147070D01*
X90943013Y-72289203D01*
X90913000Y-72440090D01*
X90913000Y-72593934D01*
X90943013Y-72744821D01*
X91001887Y-72886954D01*
X91087358Y-73014871D01*
X91097487Y-73025000D01*
X82447943Y-73025000D01*
X82422999Y-73022543D01*
X82398055Y-73025000D01*
X82398053Y-73025000D01*
X82323415Y-73032351D01*
X82227657Y-73061399D01*
X82227655Y-73061400D01*
X82139404Y-73108571D01*
X82087688Y-73151013D01*
X82062052Y-73172052D01*
X82046150Y-73191429D01*
X79668430Y-75569150D01*
X79649053Y-75585052D01*
X79633151Y-75604429D01*
X79633150Y-75604430D01*
X79585571Y-75662405D01*
X79553908Y-75721643D01*
X79538400Y-75750657D01*
X79509352Y-75846415D01*
X79508606Y-75853990D01*
X79499543Y-75946000D01*
X78749024Y-75946000D01*
X82252024Y-72443001D01*
X82308682Y-72460188D01*
X82489528Y-72478000D01*
X82610472Y-72478000D01*
X82791318Y-72460188D01*
X83023363Y-72389798D01*
X83237216Y-72275491D01*
X83424660Y-72121660D01*
X83578491Y-71934216D01*
X83692798Y-71720363D01*
X83740235Y-71563981D01*
X83900505Y-71563981D01*
X83985201Y-71789949D01*
X84112353Y-71995052D01*
X84277076Y-72171408D01*
X84473039Y-72312239D01*
X84692712Y-72412134D01*
X84773020Y-72436489D01*
X84963000Y-72375627D01*
X84963000Y-71374000D01*
X85217000Y-71374000D01*
X85217000Y-72375627D01*
X85406980Y-72436489D01*
X85487288Y-72412134D01*
X85706961Y-72312239D01*
X85902924Y-72171408D01*
X86067647Y-71995052D01*
X86194799Y-71789949D01*
X86279495Y-71563981D01*
X86219187Y-71374000D01*
X85217000Y-71374000D01*
X84963000Y-71374000D01*
X83960813Y-71374000D01*
X83900505Y-71563981D01*
X83740235Y-71563981D01*
X83763188Y-71488318D01*
X83786956Y-71247000D01*
X83763188Y-71005682D01*
X83740236Y-70930019D01*
X83900505Y-70930019D01*
X83960813Y-71120000D01*
X84963000Y-71120000D01*
X84963000Y-70118373D01*
X85217000Y-70118373D01*
X85217000Y-71120000D01*
X86219187Y-71120000D01*
X86279495Y-70930019D01*
X86194799Y-70704051D01*
X86067647Y-70498948D01*
X85902924Y-70322592D01*
X85706961Y-70181761D01*
X85487288Y-70081866D01*
X85406980Y-70057511D01*
X85217000Y-70118373D01*
X84963000Y-70118373D01*
X84773020Y-70057511D01*
X84692712Y-70081866D01*
X84473039Y-70181761D01*
X84277076Y-70322592D01*
X84112353Y-70498948D01*
X83985201Y-70704051D01*
X83900505Y-70930019D01*
X83740236Y-70930019D01*
X83692798Y-70773637D01*
X83578491Y-70559784D01*
X83424660Y-70372340D01*
X83237216Y-70218509D01*
X83023363Y-70104202D01*
X82791318Y-70033812D01*
X82610472Y-70016000D01*
X82489528Y-70016000D01*
X82308682Y-70033812D01*
X82076637Y-70104202D01*
X81862784Y-70218509D01*
X81675340Y-70372340D01*
X81521509Y-70559784D01*
X81407202Y-70773637D01*
X81336812Y-71005682D01*
X81313044Y-71247000D01*
X81336812Y-71488318D01*
X81353999Y-71544976D01*
X81242843Y-71656132D01*
X81242843Y-70397000D01*
X81235487Y-70322311D01*
X81213701Y-70250492D01*
X81178322Y-70184304D01*
X81130711Y-70126289D01*
X81072696Y-70078678D01*
X81006508Y-70043299D01*
X80934689Y-70021513D01*
X80860000Y-70014157D01*
X79160000Y-70014157D01*
X79085311Y-70021513D01*
X79013492Y-70043299D01*
X78947304Y-70078678D01*
X78889289Y-70126289D01*
X78841678Y-70184304D01*
X78806299Y-70250492D01*
X78784513Y-70322311D01*
X78777157Y-70397000D01*
X78777157Y-72097000D01*
X78784513Y-72171689D01*
X78806299Y-72243508D01*
X78841678Y-72309696D01*
X78889289Y-72367711D01*
X78947304Y-72415322D01*
X79013492Y-72450701D01*
X79085311Y-72472487D01*
X79160000Y-72479843D01*
X80419132Y-72479843D01*
X75900046Y-76998930D01*
X75875816Y-77018815D01*
X75855932Y-77043044D01*
X75796463Y-77115507D01*
X75737498Y-77225821D01*
X75701189Y-77345519D01*
X75688929Y-77470000D01*
X75692001Y-77501191D01*
X75692001Y-78015157D01*
X75477000Y-78015157D01*
X75402311Y-78022513D01*
X75330492Y-78044299D01*
X75264304Y-78079678D01*
X75206289Y-78127289D01*
X75158678Y-78185304D01*
X75123299Y-78251492D01*
X75101513Y-78323311D01*
X75094157Y-78398000D01*
X75094157Y-78613000D01*
X73073025Y-78613000D01*
X72517000Y-78056976D01*
X72517000Y-72303401D01*
X72569216Y-72275491D01*
X72756660Y-72121660D01*
X72910491Y-71934216D01*
X73024798Y-71720363D01*
X73072235Y-71563981D01*
X73232505Y-71563981D01*
X73317201Y-71789949D01*
X73444353Y-71995052D01*
X73609076Y-72171408D01*
X73805039Y-72312239D01*
X74024712Y-72412134D01*
X74105020Y-72436489D01*
X74295000Y-72375627D01*
X74295000Y-71374000D01*
X74549000Y-71374000D01*
X74549000Y-72375627D01*
X74738980Y-72436489D01*
X74819288Y-72412134D01*
X75038961Y-72312239D01*
X75234924Y-72171408D01*
X75399647Y-71995052D01*
X75526799Y-71789949D01*
X75611495Y-71563981D01*
X75551187Y-71374000D01*
X74549000Y-71374000D01*
X74295000Y-71374000D01*
X73292813Y-71374000D01*
X73232505Y-71563981D01*
X73072235Y-71563981D01*
X73095188Y-71488318D01*
X73118956Y-71247000D01*
X73095188Y-71005682D01*
X73072236Y-70930019D01*
X73232505Y-70930019D01*
X73292813Y-71120000D01*
X74295000Y-71120000D01*
X74295000Y-70118373D01*
X74549000Y-70118373D01*
X74549000Y-71120000D01*
X75551187Y-71120000D01*
X75611495Y-70930019D01*
X75526799Y-70704051D01*
X75399647Y-70498948D01*
X75234924Y-70322592D01*
X75038961Y-70181761D01*
X74819288Y-70081866D01*
X74738980Y-70057511D01*
X74549000Y-70118373D01*
X74295000Y-70118373D01*
X74105020Y-70057511D01*
X74024712Y-70081866D01*
X73805039Y-70181761D01*
X73609076Y-70322592D01*
X73444353Y-70498948D01*
X73317201Y-70704051D01*
X73232505Y-70930019D01*
X73072236Y-70930019D01*
X73024798Y-70773637D01*
X72910491Y-70559784D01*
X72756660Y-70372340D01*
X72569216Y-70218509D01*
X72355363Y-70104202D01*
X72123318Y-70033812D01*
X71942472Y-70016000D01*
X71821528Y-70016000D01*
X71640682Y-70033812D01*
X71408637Y-70104202D01*
X71194784Y-70218509D01*
X71007340Y-70372340D01*
X70853509Y-70559784D01*
X70739202Y-70773637D01*
X70668812Y-71005682D01*
X70645044Y-71247000D01*
X70574843Y-71247000D01*
X70574843Y-70397000D01*
X70567487Y-70322311D01*
X70545701Y-70250492D01*
X70510322Y-70184304D01*
X70462711Y-70126289D01*
X70404696Y-70078678D01*
X70338508Y-70043299D01*
X70266689Y-70021513D01*
X70192000Y-70014157D01*
X68492000Y-70014157D01*
X68417311Y-70021513D01*
X68345492Y-70043299D01*
X68279304Y-70078678D01*
X68221289Y-70126289D01*
X68173678Y-70184304D01*
X68138299Y-70250492D01*
X68116513Y-70322311D01*
X68109157Y-70397000D01*
X66446000Y-70397000D01*
X66446000Y-68478000D01*
X116434001Y-68478000D01*
X116434000Y-82144000D01*
X116434000Y-82144000D01*
G37*
X116434000Y-82144000D02*
X66446000Y-82144000D01*
X66446000Y-78398000D01*
X66839157Y-78398000D01*
X66839157Y-80098000D01*
X66846513Y-80172689D01*
X66868299Y-80244508D01*
X66903678Y-80310696D01*
X66951289Y-80368711D01*
X67009304Y-80416322D01*
X67075492Y-80451701D01*
X67147311Y-80473487D01*
X67222000Y-80480843D01*
X68922000Y-80480843D01*
X68996689Y-80473487D01*
X69068508Y-80451701D01*
X69134696Y-80416322D01*
X69192711Y-80368711D01*
X69240322Y-80310696D01*
X69275701Y-80244508D01*
X69297487Y-80172689D01*
X69304843Y-80098000D01*
X69304843Y-78398000D01*
X69297487Y-78323311D01*
X69275701Y-78251492D01*
X69240322Y-78185304D01*
X69192711Y-78127289D01*
X69134696Y-78079678D01*
X69068508Y-78044299D01*
X68996689Y-78022513D01*
X68922000Y-78015157D01*
X67222000Y-78015157D01*
X67147311Y-78022513D01*
X67075492Y-78044299D01*
X67009304Y-78079678D01*
X66951289Y-78127289D01*
X66903678Y-78185304D01*
X66868299Y-78251492D01*
X66846513Y-78323311D01*
X66839157Y-78398000D01*
X66446000Y-78398000D01*
X66446000Y-77024980D01*
X66882511Y-77024980D01*
X66906866Y-77105288D01*
X67006761Y-77324961D01*
X67147592Y-77520924D01*
X67323948Y-77685647D01*
X67529051Y-77812799D01*
X67755019Y-77897495D01*
X67945000Y-77837187D01*
X67945000Y-76835000D01*
X68199000Y-76835000D01*
X68199000Y-77837187D01*
X68388981Y-77897495D01*
X68614949Y-77812799D01*
X68820052Y-77685647D01*
X68996408Y-77520924D01*
X69137239Y-77324961D01*
X69237134Y-77105288D01*
X69261489Y-77024980D01*
X69200627Y-76835000D01*
X68199000Y-76835000D01*
X67945000Y-76835000D01*
X66943373Y-76835000D01*
X66882511Y-77024980D01*
X66446000Y-77024980D01*
X66446000Y-76391020D01*
X66882511Y-76391020D01*
X66943373Y-76581000D01*
X67945000Y-76581000D01*
X67945000Y-75578813D01*
X68199000Y-75578813D01*
X68199000Y-76581000D01*
X69200627Y-76581000D01*
X69261489Y-76391020D01*
X69237134Y-76310712D01*
X69137239Y-76091039D01*
X68996408Y-75895076D01*
X68820052Y-75730353D01*
X68614949Y-75603201D01*
X68388981Y-75518505D01*
X68199000Y-75578813D01*
X67945000Y-75578813D01*
X67755019Y-75518505D01*
X67529051Y-75603201D01*
X67323948Y-75730353D01*
X67147592Y-75895076D01*
X67006761Y-76091039D01*
X66906866Y-76310712D01*
X66882511Y-76391020D01*
X66446000Y-76391020D01*
X66446000Y-70397000D01*
X68109157Y-70397000D01*
X68109157Y-72097000D01*
X68116513Y-72171689D01*
X68138299Y-72243508D01*
X68173678Y-72309696D01*
X68221289Y-72367711D01*
X68279304Y-72415322D01*
X68345492Y-72450701D01*
X68417311Y-72472487D01*
X68492000Y-72479843D01*
X70192000Y-72479843D01*
X70266689Y-72472487D01*
X70338508Y-72450701D01*
X70404696Y-72415322D01*
X70462711Y-72367711D01*
X70510322Y-72309696D01*
X70545701Y-72243508D01*
X70567487Y-72171689D01*
X70574843Y-72097000D01*
X70574843Y-71247000D01*
X70645044Y-71247000D01*
X70668812Y-71488318D01*
X70739202Y-71720363D01*
X70853509Y-71934216D01*
X71007340Y-72121660D01*
X71194784Y-72275491D01*
X71247001Y-72303402D01*
X71247000Y-78288819D01*
X71243929Y-78320000D01*
X71247000Y-78351181D01*
X71247000Y-78351191D01*
X71256188Y-78444481D01*
X71292498Y-78564179D01*
X71351463Y-78674493D01*
X71430815Y-78771185D01*
X71455050Y-78791074D01*
X72338930Y-79674955D01*
X72358815Y-79699185D01*
X72455506Y-79778537D01*
X72565820Y-79837502D01*
X72685518Y-79873812D01*
X72778808Y-79883000D01*
X72778818Y-79883000D01*
X72809999Y-79886071D01*
X72841180Y-79883000D01*
X75094157Y-79883000D01*
X75094157Y-80098000D01*
X75101513Y-80172689D01*
X75123299Y-80244508D01*
X75158678Y-80310696D01*
X75206289Y-80368711D01*
X75264304Y-80416322D01*
X75330492Y-80451701D01*
X75402311Y-80473487D01*
X75477000Y-80480843D01*
X77177000Y-80480843D01*
X77251689Y-80473487D01*
X77323508Y-80451701D01*
X77389696Y-80416322D01*
X77447711Y-80368711D01*
X77495322Y-80310696D01*
X77530701Y-80244508D01*
X77552487Y-80172689D01*
X77559843Y-80098000D01*
X77559843Y-79564981D01*
X77677505Y-79564981D01*
X77762201Y-79790949D01*
X77889353Y-79996052D01*
X78054076Y-80172408D01*
X78250039Y-80313239D01*
X78469712Y-80413134D01*
X78550020Y-80437489D01*
X78740000Y-80376627D01*
X78740000Y-79375000D01*
X78994000Y-79375000D01*
X78994000Y-80376627D01*
X79183980Y-80437489D01*
X79264288Y-80413134D01*
X79483961Y-80313239D01*
X79679924Y-80172408D01*
X79844647Y-79996052D01*
X79971799Y-79790949D01*
X80056495Y-79564981D01*
X79996187Y-79375000D01*
X78994000Y-79375000D01*
X78740000Y-79375000D01*
X77737813Y-79375000D01*
X77677505Y-79564981D01*
X77559843Y-79564981D01*
X77559843Y-78931019D01*
X77677505Y-78931019D01*
X77737813Y-79121000D01*
X78740000Y-79121000D01*
X78740000Y-78119373D01*
X78994000Y-78119373D01*
X78994000Y-79121000D01*
X79996187Y-79121000D01*
X80056495Y-78931019D01*
X79971799Y-78705051D01*
X79844647Y-78499948D01*
X79679924Y-78323592D01*
X79483961Y-78182761D01*
X79264288Y-78082866D01*
X79183980Y-78058511D01*
X78994000Y-78119373D01*
X78740000Y-78119373D01*
X78550020Y-78058511D01*
X78469712Y-78082866D01*
X78250039Y-78182761D01*
X78054076Y-78323592D01*
X77889353Y-78499948D01*
X77762201Y-78705051D01*
X77677505Y-78931019D01*
X77559843Y-78931019D01*
X77559843Y-78398000D01*
X77552487Y-78323311D01*
X77530701Y-78251492D01*
X77495322Y-78185304D01*
X77447711Y-78127289D01*
X77389696Y-78079678D01*
X77323508Y-78044299D01*
X77251689Y-78022513D01*
X77177000Y-78015157D01*
X76962000Y-78015157D01*
X76962000Y-77733024D01*
X78749024Y-75946000D01*
X79499543Y-75946000D01*
X79502001Y-75970954D01*
X79502000Y-77826056D01*
X79499543Y-77851000D01*
X79502000Y-77875944D01*
X79502000Y-77875946D01*
X79509351Y-77950584D01*
X79538399Y-78046342D01*
X79585571Y-78134595D01*
X79649052Y-78211948D01*
X79668435Y-78227855D01*
X80252801Y-78812221D01*
X80193812Y-79006682D01*
X80170044Y-79248000D01*
X80193812Y-79489318D01*
X80264202Y-79721363D01*
X80378509Y-79935216D01*
X80532340Y-80122660D01*
X80719784Y-80276491D01*
X80933637Y-80390798D01*
X81165682Y-80461188D01*
X81346528Y-80479000D01*
X81467472Y-80479000D01*
X81648318Y-80461188D01*
X81880363Y-80390798D01*
X82094216Y-80276491D01*
X82281660Y-80122660D01*
X82435491Y-79935216D01*
X82549798Y-79721363D01*
X82620188Y-79489318D01*
X82643956Y-79248000D01*
X82710044Y-79248000D01*
X82733812Y-79489318D01*
X82804202Y-79721363D01*
X82918509Y-79935216D01*
X83072340Y-80122660D01*
X83259784Y-80276491D01*
X83473637Y-80390798D01*
X83705682Y-80461188D01*
X83886528Y-80479000D01*
X84007472Y-80479000D01*
X84188318Y-80461188D01*
X84420363Y-80390798D01*
X84634216Y-80276491D01*
X84821660Y-80122660D01*
X84975491Y-79935216D01*
X85089798Y-79721363D01*
X85160188Y-79489318D01*
X85183956Y-79248000D01*
X85250044Y-79248000D01*
X85273812Y-79489318D01*
X85344202Y-79721363D01*
X85458509Y-79935216D01*
X85612340Y-80122660D01*
X85799784Y-80276491D01*
X86013637Y-80390798D01*
X86245682Y-80461188D01*
X86426528Y-80479000D01*
X86547472Y-80479000D01*
X86728318Y-80461188D01*
X86960363Y-80390798D01*
X87174216Y-80276491D01*
X87361660Y-80122660D01*
X87515491Y-79935216D01*
X87629798Y-79721363D01*
X87700188Y-79489318D01*
X87723956Y-79248000D01*
X89441044Y-79248000D01*
X89464812Y-79489318D01*
X89535202Y-79721363D01*
X89649509Y-79935216D01*
X89803340Y-80122660D01*
X89990784Y-80276491D01*
X90204637Y-80390798D01*
X90436682Y-80461188D01*
X90617528Y-80479000D01*
X90738472Y-80479000D01*
X90919318Y-80461188D01*
X91151363Y-80390798D01*
X91365216Y-80276491D01*
X91552660Y-80122660D01*
X91706491Y-79935216D01*
X91820798Y-79721363D01*
X91891188Y-79489318D01*
X91914956Y-79248000D01*
X91891188Y-79006682D01*
X91820798Y-78774637D01*
X91706491Y-78560784D01*
X91572898Y-78398000D01*
X91985157Y-78398000D01*
X91985157Y-80098000D01*
X91992513Y-80172689D01*
X92014299Y-80244508D01*
X92049678Y-80310696D01*
X92097289Y-80368711D01*
X92155304Y-80416322D01*
X92221492Y-80451701D01*
X92293311Y-80473487D01*
X92368000Y-80480843D01*
X94068000Y-80480843D01*
X94142689Y-80473487D01*
X94214508Y-80451701D01*
X94280696Y-80416322D01*
X94338711Y-80368711D01*
X94386322Y-80310696D01*
X94421701Y-80244508D01*
X94443487Y-80172689D01*
X94450843Y-80098000D01*
X94450843Y-79248000D01*
X98331044Y-79248000D01*
X98354812Y-79489318D01*
X98425202Y-79721363D01*
X98539509Y-79935216D01*
X98693340Y-80122660D01*
X98880784Y-80276491D01*
X99094637Y-80390798D01*
X99326682Y-80461188D01*
X99507528Y-80479000D01*
X99628472Y-80479000D01*
X99809318Y-80461188D01*
X100041363Y-80390798D01*
X100255216Y-80276491D01*
X100442660Y-80122660D01*
X100596491Y-79935216D01*
X100710798Y-79721363D01*
X100781188Y-79489318D01*
X100804956Y-79248000D01*
X100871044Y-79248000D01*
X100894812Y-79489318D01*
X100965202Y-79721363D01*
X101079509Y-79935216D01*
X101233340Y-80122660D01*
X101420784Y-80276491D01*
X101634637Y-80390798D01*
X101866682Y-80461188D01*
X102047528Y-80479000D01*
X102168472Y-80479000D01*
X102349318Y-80461188D01*
X102581363Y-80390798D01*
X102795216Y-80276491D01*
X102982660Y-80122660D01*
X103136491Y-79935216D01*
X103250798Y-79721363D01*
X103321188Y-79489318D01*
X103344956Y-79248000D01*
X103411044Y-79248000D01*
X103434812Y-79489318D01*
X103505202Y-79721363D01*
X103619509Y-79935216D01*
X103773340Y-80122660D01*
X103960784Y-80276491D01*
X104174637Y-80390798D01*
X104406682Y-80461188D01*
X104587528Y-80479000D01*
X104708472Y-80479000D01*
X104889318Y-80461188D01*
X105121363Y-80390798D01*
X105335216Y-80276491D01*
X105522660Y-80122660D01*
X105676491Y-79935216D01*
X105790798Y-79721363D01*
X105861188Y-79489318D01*
X105884956Y-79248000D01*
X105951044Y-79248000D01*
X105974812Y-79489318D01*
X106045202Y-79721363D01*
X106159509Y-79935216D01*
X106313340Y-80122660D01*
X106500784Y-80276491D01*
X106714637Y-80390798D01*
X106946682Y-80461188D01*
X107127528Y-80479000D01*
X107248472Y-80479000D01*
X107429318Y-80461188D01*
X107661363Y-80390798D01*
X107875216Y-80276491D01*
X108062660Y-80122660D01*
X108216491Y-79935216D01*
X108330798Y-79721363D01*
X108401188Y-79489318D01*
X108424956Y-79248000D01*
X108491044Y-79248000D01*
X108514812Y-79489318D01*
X108585202Y-79721363D01*
X108699509Y-79935216D01*
X108853340Y-80122660D01*
X109040784Y-80276491D01*
X109254637Y-80390798D01*
X109486682Y-80461188D01*
X109667528Y-80479000D01*
X109788472Y-80479000D01*
X109969318Y-80461188D01*
X110201363Y-80390798D01*
X110415216Y-80276491D01*
X110602660Y-80122660D01*
X110756491Y-79935216D01*
X110870798Y-79721363D01*
X110918235Y-79564981D01*
X111078505Y-79564981D01*
X111163201Y-79790949D01*
X111290353Y-79996052D01*
X111455076Y-80172408D01*
X111651039Y-80313239D01*
X111870712Y-80413134D01*
X111951020Y-80437489D01*
X112141000Y-80376627D01*
X112141000Y-79375000D01*
X112395000Y-79375000D01*
X112395000Y-80376627D01*
X112584980Y-80437489D01*
X112665288Y-80413134D01*
X112884961Y-80313239D01*
X113080924Y-80172408D01*
X113150423Y-80098000D01*
X113575157Y-80098000D01*
X113582513Y-80172689D01*
X113604299Y-80244508D01*
X113639678Y-80310696D01*
X113687289Y-80368711D01*
X113745304Y-80416322D01*
X113811492Y-80451701D01*
X113883311Y-80473487D01*
X113958000Y-80480843D01*
X114585750Y-80479000D01*
X114681000Y-80383750D01*
X114681000Y-79375000D01*
X114935000Y-79375000D01*
X114935000Y-80383750D01*
X115030250Y-80479000D01*
X115658000Y-80480843D01*
X115732689Y-80473487D01*
X115804508Y-80451701D01*
X115870696Y-80416322D01*
X115928711Y-80368711D01*
X115976322Y-80310696D01*
X116011701Y-80244508D01*
X116033487Y-80172689D01*
X116040843Y-80098000D01*
X116039000Y-79470250D01*
X115943750Y-79375000D01*
X114935000Y-79375000D01*
X114681000Y-79375000D01*
X113672250Y-79375000D01*
X113577000Y-79470250D01*
X113575157Y-80098000D01*
X113150423Y-80098000D01*
X113245647Y-79996052D01*
X113372799Y-79790949D01*
X113457495Y-79564981D01*
X113397187Y-79375000D01*
X112395000Y-79375000D01*
X112141000Y-79375000D01*
X111138813Y-79375000D01*
X111078505Y-79564981D01*
X110918235Y-79564981D01*
X110941188Y-79489318D01*
X110964956Y-79248000D01*
X110941188Y-79006682D01*
X110918236Y-78931019D01*
X111078505Y-78931019D01*
X111138813Y-79121000D01*
X112141000Y-79121000D01*
X112141000Y-78119373D01*
X112395000Y-78119373D01*
X112395000Y-79121000D01*
X113397187Y-79121000D01*
X113457495Y-78931019D01*
X113372799Y-78705051D01*
X113245647Y-78499948D01*
X113150424Y-78398000D01*
X113575157Y-78398000D01*
X113577000Y-79025750D01*
X113672250Y-79121000D01*
X114681000Y-79121000D01*
X114681000Y-78112250D01*
X114935000Y-78112250D01*
X114935000Y-79121000D01*
X115943750Y-79121000D01*
X116039000Y-79025750D01*
X116040843Y-78398000D01*
X116033487Y-78323311D01*
X116011701Y-78251492D01*
X115976322Y-78185304D01*
X115928711Y-78127289D01*
X115870696Y-78079678D01*
X115804508Y-78044299D01*
X115732689Y-78022513D01*
X115658000Y-78015157D01*
X115030250Y-78017000D01*
X114935000Y-78112250D01*
X114681000Y-78112250D01*
X114585750Y-78017000D01*
X113958000Y-78015157D01*
X113883311Y-78022513D01*
X113811492Y-78044299D01*
X113745304Y-78079678D01*
X113687289Y-78127289D01*
X113639678Y-78185304D01*
X113604299Y-78251492D01*
X113582513Y-78323311D01*
X113575157Y-78398000D01*
X113150424Y-78398000D01*
X113080924Y-78323592D01*
X112884961Y-78182761D01*
X112665288Y-78082866D01*
X112584980Y-78058511D01*
X112395000Y-78119373D01*
X112141000Y-78119373D01*
X111951020Y-78058511D01*
X111870712Y-78082866D01*
X111651039Y-78182761D01*
X111455076Y-78323592D01*
X111290353Y-78499948D01*
X111163201Y-78705051D01*
X111078505Y-78931019D01*
X110918236Y-78931019D01*
X110870798Y-78774637D01*
X110756491Y-78560784D01*
X110602660Y-78373340D01*
X110415216Y-78219509D01*
X110201363Y-78105202D01*
X109969318Y-78034812D01*
X109788472Y-78017000D01*
X109667528Y-78017000D01*
X109486682Y-78034812D01*
X109254637Y-78105202D01*
X109040784Y-78219509D01*
X108853340Y-78373340D01*
X108699509Y-78560784D01*
X108585202Y-78774637D01*
X108514812Y-79006682D01*
X108491044Y-79248000D01*
X108424956Y-79248000D01*
X108401188Y-79006682D01*
X108330798Y-78774637D01*
X108216491Y-78560784D01*
X108062660Y-78373340D01*
X107875216Y-78219509D01*
X107661363Y-78105202D01*
X107429318Y-78034812D01*
X107248472Y-78017000D01*
X107127528Y-78017000D01*
X106946682Y-78034812D01*
X106714637Y-78105202D01*
X106500784Y-78219509D01*
X106313340Y-78373340D01*
X106159509Y-78560784D01*
X106045202Y-78774637D01*
X105974812Y-79006682D01*
X105951044Y-79248000D01*
X105884956Y-79248000D01*
X105861188Y-79006682D01*
X105790798Y-78774637D01*
X105676491Y-78560784D01*
X105522660Y-78373340D01*
X105335216Y-78219509D01*
X105121363Y-78105202D01*
X104889318Y-78034812D01*
X104708472Y-78017000D01*
X104587528Y-78017000D01*
X104406682Y-78034812D01*
X104174637Y-78105202D01*
X103960784Y-78219509D01*
X103773340Y-78373340D01*
X103619509Y-78560784D01*
X103505202Y-78774637D01*
X103434812Y-79006682D01*
X103411044Y-79248000D01*
X103344956Y-79248000D01*
X103321188Y-79006682D01*
X103250798Y-78774637D01*
X103136491Y-78560784D01*
X102982660Y-78373340D01*
X102795216Y-78219509D01*
X102581363Y-78105202D01*
X102349318Y-78034812D01*
X102168472Y-78017000D01*
X102047528Y-78017000D01*
X101866682Y-78034812D01*
X101634637Y-78105202D01*
X101420784Y-78219509D01*
X101233340Y-78373340D01*
X101079509Y-78560784D01*
X100965202Y-78774637D01*
X100894812Y-79006682D01*
X100871044Y-79248000D01*
X100804956Y-79248000D01*
X100781188Y-79006682D01*
X100710798Y-78774637D01*
X100596491Y-78560784D01*
X100442660Y-78373340D01*
X100255216Y-78219509D01*
X100041363Y-78105202D01*
X99809318Y-78034812D01*
X99628472Y-78017000D01*
X99507528Y-78017000D01*
X99326682Y-78034812D01*
X99094637Y-78105202D01*
X98880784Y-78219509D01*
X98693340Y-78373340D01*
X98539509Y-78560784D01*
X98425202Y-78774637D01*
X98354812Y-79006682D01*
X98331044Y-79248000D01*
X94450843Y-79248000D01*
X94450843Y-78398000D01*
X94443487Y-78323311D01*
X94421701Y-78251492D01*
X94386322Y-78185304D01*
X94338711Y-78127289D01*
X94280696Y-78079678D01*
X94214508Y-78044299D01*
X94142689Y-78022513D01*
X94068000Y-78015157D01*
X92368000Y-78015157D01*
X92293311Y-78022513D01*
X92221492Y-78044299D01*
X92155304Y-78079678D01*
X92097289Y-78127289D01*
X92049678Y-78185304D01*
X92014299Y-78251492D01*
X91992513Y-78323311D01*
X91985157Y-78398000D01*
X91572898Y-78398000D01*
X91552660Y-78373340D01*
X91365216Y-78219509D01*
X91151363Y-78105202D01*
X90919318Y-78034812D01*
X90738472Y-78017000D01*
X90617528Y-78017000D01*
X90436682Y-78034812D01*
X90204637Y-78105202D01*
X89990784Y-78219509D01*
X89803340Y-78373340D01*
X89649509Y-78560784D01*
X89535202Y-78774637D01*
X89464812Y-79006682D01*
X89441044Y-79248000D01*
X87723956Y-79248000D01*
X87700188Y-79006682D01*
X87629798Y-78774637D01*
X87515491Y-78560784D01*
X87361660Y-78373340D01*
X87174216Y-78219509D01*
X86960363Y-78105202D01*
X86728318Y-78034812D01*
X86547472Y-78017000D01*
X86426528Y-78017000D01*
X86245682Y-78034812D01*
X86013637Y-78105202D01*
X85799784Y-78219509D01*
X85612340Y-78373340D01*
X85458509Y-78560784D01*
X85344202Y-78774637D01*
X85273812Y-79006682D01*
X85250044Y-79248000D01*
X85183956Y-79248000D01*
X85160188Y-79006682D01*
X85089798Y-78774637D01*
X84975491Y-78560784D01*
X84821660Y-78373340D01*
X84634216Y-78219509D01*
X84420363Y-78105202D01*
X84188318Y-78034812D01*
X84007472Y-78017000D01*
X83886528Y-78017000D01*
X83705682Y-78034812D01*
X83473637Y-78105202D01*
X83259784Y-78219509D01*
X83072340Y-78373340D01*
X82918509Y-78560784D01*
X82804202Y-78774637D01*
X82733812Y-79006682D01*
X82710044Y-79248000D01*
X82643956Y-79248000D01*
X82620188Y-79006682D01*
X82549798Y-78774637D01*
X82435491Y-78560784D01*
X82281660Y-78373340D01*
X82094216Y-78219509D01*
X81880363Y-78105202D01*
X81648318Y-78034812D01*
X81467472Y-78017000D01*
X81346528Y-78017000D01*
X81165682Y-78034812D01*
X80971221Y-78093801D01*
X80518000Y-77640580D01*
X80518000Y-76758078D01*
X81769000Y-76758078D01*
X81769000Y-76911922D01*
X81799013Y-77062809D01*
X81857887Y-77204942D01*
X81943358Y-77332859D01*
X82052141Y-77441642D01*
X82180058Y-77527113D01*
X82322191Y-77585987D01*
X82473078Y-77616000D01*
X82626922Y-77616000D01*
X82777809Y-77585987D01*
X82919942Y-77527113D01*
X83047859Y-77441642D01*
X83156642Y-77332859D01*
X83242113Y-77204942D01*
X83300987Y-77062809D01*
X83331000Y-76911922D01*
X83331000Y-76758078D01*
X83321460Y-76710117D01*
X83501378Y-76530200D01*
X99926550Y-76530200D01*
X99949000Y-76532411D01*
X99971450Y-76530200D01*
X99971460Y-76530200D01*
X100038627Y-76523585D01*
X100124809Y-76497441D01*
X100204236Y-76454987D01*
X100273853Y-76397853D01*
X100288174Y-76380403D01*
X102678378Y-73990200D01*
X103632969Y-73990200D01*
X103585304Y-74015678D01*
X103527289Y-74063289D01*
X103479678Y-74121304D01*
X103444299Y-74187492D01*
X103422513Y-74259311D01*
X103415157Y-74334000D01*
X103415157Y-76034000D01*
X103422513Y-76108689D01*
X103444299Y-76180508D01*
X103479678Y-76246696D01*
X103527289Y-76304711D01*
X103585304Y-76352322D01*
X103651492Y-76387701D01*
X103723311Y-76409487D01*
X103798000Y-76416843D01*
X105498000Y-76416843D01*
X105572689Y-76409487D01*
X105644508Y-76387701D01*
X105710696Y-76352322D01*
X105768711Y-76304711D01*
X105816322Y-76246696D01*
X105851701Y-76180508D01*
X105873487Y-76108689D01*
X105880843Y-76034000D01*
X105880843Y-74334000D01*
X105873487Y-74259311D01*
X105851701Y-74187492D01*
X105816322Y-74121304D01*
X105768711Y-74063289D01*
X105710696Y-74015678D01*
X105663031Y-73990200D01*
X106882768Y-73990200D01*
X106714637Y-74041202D01*
X106500784Y-74155509D01*
X106313340Y-74309340D01*
X106159509Y-74496784D01*
X106045202Y-74710637D01*
X105974812Y-74942682D01*
X105951044Y-75184000D01*
X105974812Y-75425318D01*
X106045202Y-75657363D01*
X106159509Y-75871216D01*
X106313340Y-76058660D01*
X106500784Y-76212491D01*
X106714637Y-76326798D01*
X106946682Y-76397188D01*
X107127528Y-76415000D01*
X107248472Y-76415000D01*
X107429318Y-76397188D01*
X107661363Y-76326798D01*
X107875216Y-76212491D01*
X108062660Y-76058660D01*
X108216491Y-75871216D01*
X108330798Y-75657363D01*
X108378235Y-75500981D01*
X108538505Y-75500981D01*
X108623201Y-75726949D01*
X108750353Y-75932052D01*
X108915076Y-76108408D01*
X109111039Y-76249239D01*
X109330712Y-76349134D01*
X109411020Y-76373489D01*
X109601000Y-76312627D01*
X109601000Y-75311000D01*
X109855000Y-75311000D01*
X109855000Y-76312627D01*
X110044980Y-76373489D01*
X110125288Y-76349134D01*
X110344961Y-76249239D01*
X110540924Y-76108408D01*
X110705647Y-75932052D01*
X110832799Y-75726949D01*
X110917495Y-75500981D01*
X110857187Y-75311000D01*
X109855000Y-75311000D01*
X109601000Y-75311000D01*
X108598813Y-75311000D01*
X108538505Y-75500981D01*
X108378235Y-75500981D01*
X108401188Y-75425318D01*
X108424956Y-75184000D01*
X108401188Y-74942682D01*
X108330798Y-74710637D01*
X108216491Y-74496784D01*
X108062660Y-74309340D01*
X107875216Y-74155509D01*
X107661363Y-74041202D01*
X107493232Y-73990200D01*
X109600998Y-73990200D01*
X109600998Y-74055372D01*
X109411020Y-73994511D01*
X109330712Y-74018866D01*
X109111039Y-74118761D01*
X108915076Y-74259592D01*
X108750353Y-74435948D01*
X108623201Y-74641051D01*
X108538505Y-74867019D01*
X108598813Y-75057000D01*
X109601000Y-75057000D01*
X109601000Y-75037000D01*
X109855000Y-75037000D01*
X109855000Y-75057000D01*
X110857187Y-75057000D01*
X110917495Y-74867019D01*
X110832799Y-74641051D01*
X110705647Y-74435948D01*
X110540924Y-74259592D01*
X110344961Y-74118761D01*
X110125288Y-74018866D01*
X110044980Y-73994511D01*
X109855002Y-74055372D01*
X109855002Y-73990200D01*
X111962768Y-73990200D01*
X111794637Y-74041202D01*
X111580784Y-74155509D01*
X111393340Y-74309340D01*
X111239509Y-74496784D01*
X111125202Y-74710637D01*
X111054812Y-74942682D01*
X111031044Y-75184000D01*
X111054812Y-75425318D01*
X111125202Y-75657363D01*
X111239509Y-75871216D01*
X111393340Y-76058660D01*
X111580784Y-76212491D01*
X111794637Y-76326798D01*
X112026682Y-76397188D01*
X112207528Y-76415000D01*
X112328472Y-76415000D01*
X112509318Y-76397188D01*
X112741363Y-76326798D01*
X112955216Y-76212491D01*
X113142660Y-76058660D01*
X113296491Y-75871216D01*
X113410798Y-75657363D01*
X113481188Y-75425318D01*
X113504956Y-75184000D01*
X113481188Y-74942682D01*
X113410798Y-74710637D01*
X113296491Y-74496784D01*
X113142660Y-74309340D01*
X112955216Y-74155509D01*
X112741363Y-74041202D01*
X112518025Y-73973453D01*
X112570809Y-73957441D01*
X112650236Y-73914987D01*
X112719853Y-73857853D01*
X112734174Y-73840403D01*
X114221735Y-72352843D01*
X115658000Y-72352843D01*
X115732689Y-72345487D01*
X115804508Y-72323701D01*
X115870696Y-72288322D01*
X115928711Y-72240711D01*
X115976322Y-72182696D01*
X116011701Y-72116508D01*
X116033487Y-72044689D01*
X116040843Y-71970000D01*
X116040843Y-70270000D01*
X116033487Y-70195311D01*
X116011701Y-70123492D01*
X115976322Y-70057304D01*
X115928711Y-69999289D01*
X115870696Y-69951678D01*
X115804508Y-69916299D01*
X115732689Y-69894513D01*
X115658000Y-69887157D01*
X113958000Y-69887157D01*
X113883311Y-69894513D01*
X113811492Y-69916299D01*
X113745304Y-69951678D01*
X113687289Y-69999289D01*
X113639678Y-70057304D01*
X113604299Y-70123492D01*
X113582513Y-70195311D01*
X113575157Y-70270000D01*
X113575157Y-71706265D01*
X112205623Y-73075800D01*
X110958777Y-73075800D01*
X111779741Y-72254836D01*
X111794637Y-72262798D01*
X112026682Y-72333188D01*
X112207528Y-72351000D01*
X112328472Y-72351000D01*
X112509318Y-72333188D01*
X112741363Y-72262798D01*
X112955216Y-72148491D01*
X113142660Y-71994660D01*
X113296491Y-71807216D01*
X113410798Y-71593363D01*
X113481188Y-71361318D01*
X113504956Y-71120000D01*
X113481188Y-70878682D01*
X113410798Y-70646637D01*
X113296491Y-70432784D01*
X113142660Y-70245340D01*
X112955216Y-70091509D01*
X112741363Y-69977202D01*
X112509318Y-69906812D01*
X112328472Y-69889000D01*
X112207528Y-69889000D01*
X112026682Y-69906812D01*
X111794637Y-69977202D01*
X111580784Y-70091509D01*
X111393340Y-70245340D01*
X111239509Y-70432784D01*
X111125202Y-70646637D01*
X111054812Y-70878682D01*
X111031044Y-71120000D01*
X111054812Y-71361318D01*
X111125202Y-71593363D01*
X111133164Y-71608259D01*
X110173623Y-72567800D01*
X102257450Y-72567800D01*
X102235000Y-72565589D01*
X102212550Y-72567800D01*
X102212540Y-72567800D01*
X102145373Y-72574415D01*
X102081030Y-72593934D01*
X102059190Y-72600559D01*
X101979764Y-72643013D01*
X101927592Y-72685829D01*
X101927586Y-72685835D01*
X101910147Y-72700147D01*
X101895835Y-72717586D01*
X99673833Y-74939590D01*
X90041809Y-74939590D01*
X90014642Y-74898931D01*
X89905859Y-74790148D01*
X89777942Y-74704677D01*
X89635809Y-74645803D01*
X89484922Y-74615790D01*
X89331078Y-74615790D01*
X89180191Y-74645803D01*
X89038058Y-74704677D01*
X88910141Y-74790148D01*
X88801358Y-74898931D01*
X88715887Y-75026848D01*
X88657013Y-75168981D01*
X88627000Y-75319868D01*
X88627000Y-75473712D01*
X88655263Y-75615800D01*
X83334450Y-75615800D01*
X83312000Y-75613589D01*
X83289550Y-75615800D01*
X83289540Y-75615800D01*
X83222373Y-75622415D01*
X83156249Y-75642474D01*
X83136190Y-75648559D01*
X83056764Y-75691013D01*
X83004592Y-75733829D01*
X83004586Y-75733835D01*
X82987147Y-75748147D01*
X82972834Y-75765587D01*
X82674883Y-76063540D01*
X82626922Y-76054000D01*
X82473078Y-76054000D01*
X82322191Y-76084013D01*
X82180058Y-76142887D01*
X82052141Y-76228358D01*
X81943358Y-76337141D01*
X81857887Y-76465058D01*
X81799013Y-76607191D01*
X81769000Y-76758078D01*
X80518000Y-76758078D01*
X80518000Y-76156420D01*
X82633421Y-74041000D01*
X92177056Y-74041000D01*
X92202000Y-74043457D01*
X92226944Y-74041000D01*
X92226947Y-74041000D01*
X92301585Y-74033649D01*
X92397343Y-74004601D01*
X92485595Y-73957429D01*
X92562948Y-73893948D01*
X92578855Y-73874565D01*
X94326852Y-72126568D01*
X94334808Y-72124986D01*
X94476941Y-72066112D01*
X94604858Y-71980641D01*
X94713641Y-71871858D01*
X94799112Y-71743941D01*
X94857986Y-71601808D01*
X94887999Y-71450921D01*
X94887999Y-71297077D01*
X94857986Y-71146190D01*
X94799112Y-71004057D01*
X94713641Y-70876140D01*
X94604858Y-70767357D01*
X94476941Y-70681886D01*
X94334808Y-70623012D01*
X94251208Y-70606383D01*
X94677391Y-70180200D01*
X101312713Y-70180200D01*
X101233340Y-70245340D01*
X101079509Y-70432784D01*
X100965202Y-70646637D01*
X100894812Y-70878682D01*
X100871044Y-71120000D01*
X100894812Y-71361318D01*
X100965202Y-71593363D01*
X101079509Y-71807216D01*
X101233340Y-71994660D01*
X101420784Y-72148491D01*
X101634637Y-72262798D01*
X101866682Y-72333188D01*
X102047528Y-72351000D01*
X102168472Y-72351000D01*
X102349318Y-72333188D01*
X102581363Y-72262798D01*
X102795216Y-72148491D01*
X102982660Y-71994660D01*
X103136491Y-71807216D01*
X103250798Y-71593363D01*
X103321188Y-71361318D01*
X103344956Y-71120000D01*
X103321188Y-70878682D01*
X103250798Y-70646637D01*
X103136491Y-70432784D01*
X102982660Y-70245340D01*
X102903287Y-70180200D01*
X103852713Y-70180200D01*
X103773340Y-70245340D01*
X103619509Y-70432784D01*
X103505202Y-70646637D01*
X103434812Y-70878682D01*
X103411044Y-71120000D01*
X103434812Y-71361318D01*
X103505202Y-71593363D01*
X103619509Y-71807216D01*
X103773340Y-71994660D01*
X103960784Y-72148491D01*
X104174637Y-72262798D01*
X104406682Y-72333188D01*
X104587528Y-72351000D01*
X104708472Y-72351000D01*
X104889318Y-72333188D01*
X105121363Y-72262798D01*
X105335216Y-72148491D01*
X105522660Y-71994660D01*
X105676491Y-71807216D01*
X105790798Y-71593363D01*
X105861188Y-71361318D01*
X105884956Y-71120000D01*
X105861188Y-70878682D01*
X105790798Y-70646637D01*
X105676491Y-70432784D01*
X105522660Y-70245340D01*
X105443287Y-70180200D01*
X106392713Y-70180200D01*
X106313340Y-70245340D01*
X106159509Y-70432784D01*
X106045202Y-70646637D01*
X105974812Y-70878682D01*
X105951044Y-71120000D01*
X105974812Y-71361318D01*
X106045202Y-71593363D01*
X106159509Y-71807216D01*
X106313340Y-71994660D01*
X106500784Y-72148491D01*
X106714637Y-72262798D01*
X106946682Y-72333188D01*
X107127528Y-72351000D01*
X107248472Y-72351000D01*
X107429318Y-72333188D01*
X107661363Y-72262798D01*
X107875216Y-72148491D01*
X108062660Y-71994660D01*
X108216491Y-71807216D01*
X108330798Y-71593363D01*
X108401188Y-71361318D01*
X108424956Y-71120000D01*
X108401188Y-70878682D01*
X108330798Y-70646637D01*
X108216491Y-70432784D01*
X108062660Y-70245340D01*
X107983287Y-70180200D01*
X108141623Y-70180200D01*
X108593164Y-70631741D01*
X108585202Y-70646637D01*
X108514812Y-70878682D01*
X108491044Y-71120000D01*
X108514812Y-71361318D01*
X108585202Y-71593363D01*
X108699509Y-71807216D01*
X108853340Y-71994660D01*
X109040784Y-72148491D01*
X109254637Y-72262798D01*
X109486682Y-72333188D01*
X109667528Y-72351000D01*
X109788472Y-72351000D01*
X109969318Y-72333188D01*
X110201363Y-72262798D01*
X110415216Y-72148491D01*
X110602660Y-71994660D01*
X110756491Y-71807216D01*
X110870798Y-71593363D01*
X110941188Y-71361318D01*
X110964956Y-71120000D01*
X110941188Y-70878682D01*
X110870798Y-70646637D01*
X110756491Y-70432784D01*
X110602660Y-70245340D01*
X110415216Y-70091509D01*
X110201363Y-69977202D01*
X109969318Y-69906812D01*
X109788472Y-69889000D01*
X109667528Y-69889000D01*
X109486682Y-69906812D01*
X109254637Y-69977202D01*
X109239741Y-69985164D01*
X108670174Y-69415597D01*
X108655853Y-69398147D01*
X108586236Y-69341013D01*
X108506809Y-69298559D01*
X108420627Y-69272415D01*
X108353460Y-69265800D01*
X108353450Y-69265800D01*
X108331000Y-69263589D01*
X108308550Y-69265800D01*
X94510462Y-69265800D01*
X94488012Y-69263589D01*
X94465562Y-69265800D01*
X94465552Y-69265800D01*
X94398385Y-69272415D01*
X94332261Y-69292474D01*
X94312202Y-69298559D01*
X94232776Y-69341013D01*
X94180604Y-69383829D01*
X94180598Y-69383835D01*
X94163159Y-69398147D01*
X94148847Y-69415586D01*
X91818883Y-71745552D01*
X91770922Y-71736012D01*
X91617078Y-71736012D01*
X91466191Y-71766025D01*
X91324058Y-71824899D01*
X91196141Y-71910370D01*
X91087358Y-72019153D01*
X91001887Y-72147070D01*
X90943013Y-72289203D01*
X90913000Y-72440090D01*
X90913000Y-72593934D01*
X90943013Y-72744821D01*
X91001887Y-72886954D01*
X91087358Y-73014871D01*
X91097487Y-73025000D01*
X82447943Y-73025000D01*
X82422999Y-73022543D01*
X82398055Y-73025000D01*
X82398053Y-73025000D01*
X82323415Y-73032351D01*
X82227657Y-73061399D01*
X82227655Y-73061400D01*
X82139404Y-73108571D01*
X82087688Y-73151013D01*
X82062052Y-73172052D01*
X82046150Y-73191429D01*
X79668430Y-75569150D01*
X79649053Y-75585052D01*
X79633151Y-75604429D01*
X79633150Y-75604430D01*
X79585571Y-75662405D01*
X79553908Y-75721643D01*
X79538400Y-75750657D01*
X79509352Y-75846415D01*
X79508606Y-75853990D01*
X79499543Y-75946000D01*
X78749024Y-75946000D01*
X82252024Y-72443001D01*
X82308682Y-72460188D01*
X82489528Y-72478000D01*
X82610472Y-72478000D01*
X82791318Y-72460188D01*
X83023363Y-72389798D01*
X83237216Y-72275491D01*
X83424660Y-72121660D01*
X83578491Y-71934216D01*
X83692798Y-71720363D01*
X83740235Y-71563981D01*
X83900505Y-71563981D01*
X83985201Y-71789949D01*
X84112353Y-71995052D01*
X84277076Y-72171408D01*
X84473039Y-72312239D01*
X84692712Y-72412134D01*
X84773020Y-72436489D01*
X84963000Y-72375627D01*
X84963000Y-71374000D01*
X85217000Y-71374000D01*
X85217000Y-72375627D01*
X85406980Y-72436489D01*
X85487288Y-72412134D01*
X85706961Y-72312239D01*
X85902924Y-72171408D01*
X86067647Y-71995052D01*
X86194799Y-71789949D01*
X86279495Y-71563981D01*
X86219187Y-71374000D01*
X85217000Y-71374000D01*
X84963000Y-71374000D01*
X83960813Y-71374000D01*
X83900505Y-71563981D01*
X83740235Y-71563981D01*
X83763188Y-71488318D01*
X83786956Y-71247000D01*
X83763188Y-71005682D01*
X83740236Y-70930019D01*
X83900505Y-70930019D01*
X83960813Y-71120000D01*
X84963000Y-71120000D01*
X84963000Y-70118373D01*
X85217000Y-70118373D01*
X85217000Y-71120000D01*
X86219187Y-71120000D01*
X86279495Y-70930019D01*
X86194799Y-70704051D01*
X86067647Y-70498948D01*
X85902924Y-70322592D01*
X85706961Y-70181761D01*
X85487288Y-70081866D01*
X85406980Y-70057511D01*
X85217000Y-70118373D01*
X84963000Y-70118373D01*
X84773020Y-70057511D01*
X84692712Y-70081866D01*
X84473039Y-70181761D01*
X84277076Y-70322592D01*
X84112353Y-70498948D01*
X83985201Y-70704051D01*
X83900505Y-70930019D01*
X83740236Y-70930019D01*
X83692798Y-70773637D01*
X83578491Y-70559784D01*
X83424660Y-70372340D01*
X83237216Y-70218509D01*
X83023363Y-70104202D01*
X82791318Y-70033812D01*
X82610472Y-70016000D01*
X82489528Y-70016000D01*
X82308682Y-70033812D01*
X82076637Y-70104202D01*
X81862784Y-70218509D01*
X81675340Y-70372340D01*
X81521509Y-70559784D01*
X81407202Y-70773637D01*
X81336812Y-71005682D01*
X81313044Y-71247000D01*
X81336812Y-71488318D01*
X81353999Y-71544976D01*
X81242843Y-71656132D01*
X81242843Y-70397000D01*
X81235487Y-70322311D01*
X81213701Y-70250492D01*
X81178322Y-70184304D01*
X81130711Y-70126289D01*
X81072696Y-70078678D01*
X81006508Y-70043299D01*
X80934689Y-70021513D01*
X80860000Y-70014157D01*
X79160000Y-70014157D01*
X79085311Y-70021513D01*
X79013492Y-70043299D01*
X78947304Y-70078678D01*
X78889289Y-70126289D01*
X78841678Y-70184304D01*
X78806299Y-70250492D01*
X78784513Y-70322311D01*
X78777157Y-70397000D01*
X78777157Y-72097000D01*
X78784513Y-72171689D01*
X78806299Y-72243508D01*
X78841678Y-72309696D01*
X78889289Y-72367711D01*
X78947304Y-72415322D01*
X79013492Y-72450701D01*
X79085311Y-72472487D01*
X79160000Y-72479843D01*
X80419132Y-72479843D01*
X75900046Y-76998930D01*
X75875816Y-77018815D01*
X75855932Y-77043044D01*
X75796463Y-77115507D01*
X75737498Y-77225821D01*
X75701189Y-77345519D01*
X75688929Y-77470000D01*
X75692001Y-77501191D01*
X75692001Y-78015157D01*
X75477000Y-78015157D01*
X75402311Y-78022513D01*
X75330492Y-78044299D01*
X75264304Y-78079678D01*
X75206289Y-78127289D01*
X75158678Y-78185304D01*
X75123299Y-78251492D01*
X75101513Y-78323311D01*
X75094157Y-78398000D01*
X75094157Y-78613000D01*
X73073025Y-78613000D01*
X72517000Y-78056976D01*
X72517000Y-72303401D01*
X72569216Y-72275491D01*
X72756660Y-72121660D01*
X72910491Y-71934216D01*
X73024798Y-71720363D01*
X73072235Y-71563981D01*
X73232505Y-71563981D01*
X73317201Y-71789949D01*
X73444353Y-71995052D01*
X73609076Y-72171408D01*
X73805039Y-72312239D01*
X74024712Y-72412134D01*
X74105020Y-72436489D01*
X74295000Y-72375627D01*
X74295000Y-71374000D01*
X74549000Y-71374000D01*
X74549000Y-72375627D01*
X74738980Y-72436489D01*
X74819288Y-72412134D01*
X75038961Y-72312239D01*
X75234924Y-72171408D01*
X75399647Y-71995052D01*
X75526799Y-71789949D01*
X75611495Y-71563981D01*
X75551187Y-71374000D01*
X74549000Y-71374000D01*
X74295000Y-71374000D01*
X73292813Y-71374000D01*
X73232505Y-71563981D01*
X73072235Y-71563981D01*
X73095188Y-71488318D01*
X73118956Y-71247000D01*
X73095188Y-71005682D01*
X73072236Y-70930019D01*
X73232505Y-70930019D01*
X73292813Y-71120000D01*
X74295000Y-71120000D01*
X74295000Y-70118373D01*
X74549000Y-70118373D01*
X74549000Y-71120000D01*
X75551187Y-71120000D01*
X75611495Y-70930019D01*
X75526799Y-70704051D01*
X75399647Y-70498948D01*
X75234924Y-70322592D01*
X75038961Y-70181761D01*
X74819288Y-70081866D01*
X74738980Y-70057511D01*
X74549000Y-70118373D01*
X74295000Y-70118373D01*
X74105020Y-70057511D01*
X74024712Y-70081866D01*
X73805039Y-70181761D01*
X73609076Y-70322592D01*
X73444353Y-70498948D01*
X73317201Y-70704051D01*
X73232505Y-70930019D01*
X73072236Y-70930019D01*
X73024798Y-70773637D01*
X72910491Y-70559784D01*
X72756660Y-70372340D01*
X72569216Y-70218509D01*
X72355363Y-70104202D01*
X72123318Y-70033812D01*
X71942472Y-70016000D01*
X71821528Y-70016000D01*
X71640682Y-70033812D01*
X71408637Y-70104202D01*
X71194784Y-70218509D01*
X71007340Y-70372340D01*
X70853509Y-70559784D01*
X70739202Y-70773637D01*
X70668812Y-71005682D01*
X70645044Y-71247000D01*
X70574843Y-71247000D01*
X70574843Y-70397000D01*
X70567487Y-70322311D01*
X70545701Y-70250492D01*
X70510322Y-70184304D01*
X70462711Y-70126289D01*
X70404696Y-70078678D01*
X70338508Y-70043299D01*
X70266689Y-70021513D01*
X70192000Y-70014157D01*
X68492000Y-70014157D01*
X68417311Y-70021513D01*
X68345492Y-70043299D01*
X68279304Y-70078678D01*
X68221289Y-70126289D01*
X68173678Y-70184304D01*
X68138299Y-70250492D01*
X68116513Y-70322311D01*
X68109157Y-70397000D01*
X66446000Y-70397000D01*
X66446000Y-68478000D01*
X116434001Y-68478000D01*
X116434000Y-82144000D01*
%TD*%
M02*
