%TF.GenerationSoftware,KiCad,Pcbnew,(5.1.4)-1*%
%TF.CreationDate,2020-11-13T13:28:28-08:00*%
%TF.ProjectId,powerglove_pcb,706f7765-7267-46c6-9f76-655f7063622e,rev?*%
%TF.SameCoordinates,Original*%
%TF.FileFunction,Soldermask,Top*%
%TF.FilePolarity,Negative*%
%FSLAX46Y46*%
G04 Gerber Fmt 4.6, Leading zero omitted, Abs format (unit mm)*
G04 Created by KiCad (PCBNEW (5.1.4)-1) date 2020-11-13 13:28:28*
%MOMM*%
%LPD*%
G04 APERTURE LIST*
%ADD10C,0.100000*%
%ADD11C,0.400000*%
%ADD12C,1.050000*%
%ADD13O,1.800000X1.800000*%
%ADD14R,1.800000X1.800000*%
%ADD15R,1.000000X0.900000*%
G04 APERTURE END LIST*
D10*
%TO.C,U1*%
G36*
X92930802Y-69542482D02*
G01*
X92940509Y-69543921D01*
X92950028Y-69546306D01*
X92959268Y-69549612D01*
X92968140Y-69553808D01*
X92976557Y-69558853D01*
X92984439Y-69564699D01*
X92991711Y-69571289D01*
X92998301Y-69578561D01*
X93004147Y-69586443D01*
X93009192Y-69594860D01*
X93013388Y-69603732D01*
X93016694Y-69612972D01*
X93019079Y-69622491D01*
X93020518Y-69632198D01*
X93021000Y-69642000D01*
X93021000Y-70992000D01*
X93020518Y-71001802D01*
X93019079Y-71011509D01*
X93016694Y-71021028D01*
X93013388Y-71030268D01*
X93009192Y-71039140D01*
X93004147Y-71047557D01*
X92998301Y-71055439D01*
X92991711Y-71062711D01*
X92984439Y-71069301D01*
X92976557Y-71075147D01*
X92968140Y-71080192D01*
X92959268Y-71084388D01*
X92950028Y-71087694D01*
X92940509Y-71090079D01*
X92930802Y-71091518D01*
X92921000Y-71092000D01*
X92721000Y-71092000D01*
X92711198Y-71091518D01*
X92701491Y-71090079D01*
X92691972Y-71087694D01*
X92682732Y-71084388D01*
X92673860Y-71080192D01*
X92665443Y-71075147D01*
X92657561Y-71069301D01*
X92650289Y-71062711D01*
X92643699Y-71055439D01*
X92637853Y-71047557D01*
X92632808Y-71039140D01*
X92628612Y-71030268D01*
X92625306Y-71021028D01*
X92622921Y-71011509D01*
X92621482Y-71001802D01*
X92621000Y-70992000D01*
X92621000Y-69642000D01*
X92621482Y-69632198D01*
X92622921Y-69622491D01*
X92625306Y-69612972D01*
X92628612Y-69603732D01*
X92632808Y-69594860D01*
X92637853Y-69586443D01*
X92643699Y-69578561D01*
X92650289Y-69571289D01*
X92657561Y-69564699D01*
X92665443Y-69558853D01*
X92673860Y-69553808D01*
X92682732Y-69549612D01*
X92691972Y-69546306D01*
X92701491Y-69543921D01*
X92711198Y-69542482D01*
X92721000Y-69542000D01*
X92921000Y-69542000D01*
X92930802Y-69542482D01*
X92930802Y-69542482D01*
G37*
D11*
X92821000Y-70317000D03*
D10*
G36*
X92430802Y-69542482D02*
G01*
X92440509Y-69543921D01*
X92450028Y-69546306D01*
X92459268Y-69549612D01*
X92468140Y-69553808D01*
X92476557Y-69558853D01*
X92484439Y-69564699D01*
X92491711Y-69571289D01*
X92498301Y-69578561D01*
X92504147Y-69586443D01*
X92509192Y-69594860D01*
X92513388Y-69603732D01*
X92516694Y-69612972D01*
X92519079Y-69622491D01*
X92520518Y-69632198D01*
X92521000Y-69642000D01*
X92521000Y-70992000D01*
X92520518Y-71001802D01*
X92519079Y-71011509D01*
X92516694Y-71021028D01*
X92513388Y-71030268D01*
X92509192Y-71039140D01*
X92504147Y-71047557D01*
X92498301Y-71055439D01*
X92491711Y-71062711D01*
X92484439Y-71069301D01*
X92476557Y-71075147D01*
X92468140Y-71080192D01*
X92459268Y-71084388D01*
X92450028Y-71087694D01*
X92440509Y-71090079D01*
X92430802Y-71091518D01*
X92421000Y-71092000D01*
X92221000Y-71092000D01*
X92211198Y-71091518D01*
X92201491Y-71090079D01*
X92191972Y-71087694D01*
X92182732Y-71084388D01*
X92173860Y-71080192D01*
X92165443Y-71075147D01*
X92157561Y-71069301D01*
X92150289Y-71062711D01*
X92143699Y-71055439D01*
X92137853Y-71047557D01*
X92132808Y-71039140D01*
X92128612Y-71030268D01*
X92125306Y-71021028D01*
X92122921Y-71011509D01*
X92121482Y-71001802D01*
X92121000Y-70992000D01*
X92121000Y-69642000D01*
X92121482Y-69632198D01*
X92122921Y-69622491D01*
X92125306Y-69612972D01*
X92128612Y-69603732D01*
X92132808Y-69594860D01*
X92137853Y-69586443D01*
X92143699Y-69578561D01*
X92150289Y-69571289D01*
X92157561Y-69564699D01*
X92165443Y-69558853D01*
X92173860Y-69553808D01*
X92182732Y-69549612D01*
X92191972Y-69546306D01*
X92201491Y-69543921D01*
X92211198Y-69542482D01*
X92221000Y-69542000D01*
X92421000Y-69542000D01*
X92430802Y-69542482D01*
X92430802Y-69542482D01*
G37*
D11*
X92321000Y-70317000D03*
D10*
G36*
X91930802Y-69542482D02*
G01*
X91940509Y-69543921D01*
X91950028Y-69546306D01*
X91959268Y-69549612D01*
X91968140Y-69553808D01*
X91976557Y-69558853D01*
X91984439Y-69564699D01*
X91991711Y-69571289D01*
X91998301Y-69578561D01*
X92004147Y-69586443D01*
X92009192Y-69594860D01*
X92013388Y-69603732D01*
X92016694Y-69612972D01*
X92019079Y-69622491D01*
X92020518Y-69632198D01*
X92021000Y-69642000D01*
X92021000Y-70992000D01*
X92020518Y-71001802D01*
X92019079Y-71011509D01*
X92016694Y-71021028D01*
X92013388Y-71030268D01*
X92009192Y-71039140D01*
X92004147Y-71047557D01*
X91998301Y-71055439D01*
X91991711Y-71062711D01*
X91984439Y-71069301D01*
X91976557Y-71075147D01*
X91968140Y-71080192D01*
X91959268Y-71084388D01*
X91950028Y-71087694D01*
X91940509Y-71090079D01*
X91930802Y-71091518D01*
X91921000Y-71092000D01*
X91721000Y-71092000D01*
X91711198Y-71091518D01*
X91701491Y-71090079D01*
X91691972Y-71087694D01*
X91682732Y-71084388D01*
X91673860Y-71080192D01*
X91665443Y-71075147D01*
X91657561Y-71069301D01*
X91650289Y-71062711D01*
X91643699Y-71055439D01*
X91637853Y-71047557D01*
X91632808Y-71039140D01*
X91628612Y-71030268D01*
X91625306Y-71021028D01*
X91622921Y-71011509D01*
X91621482Y-71001802D01*
X91621000Y-70992000D01*
X91621000Y-69642000D01*
X91621482Y-69632198D01*
X91622921Y-69622491D01*
X91625306Y-69612972D01*
X91628612Y-69603732D01*
X91632808Y-69594860D01*
X91637853Y-69586443D01*
X91643699Y-69578561D01*
X91650289Y-69571289D01*
X91657561Y-69564699D01*
X91665443Y-69558853D01*
X91673860Y-69553808D01*
X91682732Y-69549612D01*
X91691972Y-69546306D01*
X91701491Y-69543921D01*
X91711198Y-69542482D01*
X91721000Y-69542000D01*
X91921000Y-69542000D01*
X91930802Y-69542482D01*
X91930802Y-69542482D01*
G37*
D11*
X91821000Y-70317000D03*
D10*
G36*
X91430802Y-69542482D02*
G01*
X91440509Y-69543921D01*
X91450028Y-69546306D01*
X91459268Y-69549612D01*
X91468140Y-69553808D01*
X91476557Y-69558853D01*
X91484439Y-69564699D01*
X91491711Y-69571289D01*
X91498301Y-69578561D01*
X91504147Y-69586443D01*
X91509192Y-69594860D01*
X91513388Y-69603732D01*
X91516694Y-69612972D01*
X91519079Y-69622491D01*
X91520518Y-69632198D01*
X91521000Y-69642000D01*
X91521000Y-70992000D01*
X91520518Y-71001802D01*
X91519079Y-71011509D01*
X91516694Y-71021028D01*
X91513388Y-71030268D01*
X91509192Y-71039140D01*
X91504147Y-71047557D01*
X91498301Y-71055439D01*
X91491711Y-71062711D01*
X91484439Y-71069301D01*
X91476557Y-71075147D01*
X91468140Y-71080192D01*
X91459268Y-71084388D01*
X91450028Y-71087694D01*
X91440509Y-71090079D01*
X91430802Y-71091518D01*
X91421000Y-71092000D01*
X91221000Y-71092000D01*
X91211198Y-71091518D01*
X91201491Y-71090079D01*
X91191972Y-71087694D01*
X91182732Y-71084388D01*
X91173860Y-71080192D01*
X91165443Y-71075147D01*
X91157561Y-71069301D01*
X91150289Y-71062711D01*
X91143699Y-71055439D01*
X91137853Y-71047557D01*
X91132808Y-71039140D01*
X91128612Y-71030268D01*
X91125306Y-71021028D01*
X91122921Y-71011509D01*
X91121482Y-71001802D01*
X91121000Y-70992000D01*
X91121000Y-69642000D01*
X91121482Y-69632198D01*
X91122921Y-69622491D01*
X91125306Y-69612972D01*
X91128612Y-69603732D01*
X91132808Y-69594860D01*
X91137853Y-69586443D01*
X91143699Y-69578561D01*
X91150289Y-69571289D01*
X91157561Y-69564699D01*
X91165443Y-69558853D01*
X91173860Y-69553808D01*
X91182732Y-69549612D01*
X91191972Y-69546306D01*
X91201491Y-69543921D01*
X91211198Y-69542482D01*
X91221000Y-69542000D01*
X91421000Y-69542000D01*
X91430802Y-69542482D01*
X91430802Y-69542482D01*
G37*
D11*
X91321000Y-70317000D03*
D10*
G36*
X90930802Y-69542482D02*
G01*
X90940509Y-69543921D01*
X90950028Y-69546306D01*
X90959268Y-69549612D01*
X90968140Y-69553808D01*
X90976557Y-69558853D01*
X90984439Y-69564699D01*
X90991711Y-69571289D01*
X90998301Y-69578561D01*
X91004147Y-69586443D01*
X91009192Y-69594860D01*
X91013388Y-69603732D01*
X91016694Y-69612972D01*
X91019079Y-69622491D01*
X91020518Y-69632198D01*
X91021000Y-69642000D01*
X91021000Y-70992000D01*
X91020518Y-71001802D01*
X91019079Y-71011509D01*
X91016694Y-71021028D01*
X91013388Y-71030268D01*
X91009192Y-71039140D01*
X91004147Y-71047557D01*
X90998301Y-71055439D01*
X90991711Y-71062711D01*
X90984439Y-71069301D01*
X90976557Y-71075147D01*
X90968140Y-71080192D01*
X90959268Y-71084388D01*
X90950028Y-71087694D01*
X90940509Y-71090079D01*
X90930802Y-71091518D01*
X90921000Y-71092000D01*
X90721000Y-71092000D01*
X90711198Y-71091518D01*
X90701491Y-71090079D01*
X90691972Y-71087694D01*
X90682732Y-71084388D01*
X90673860Y-71080192D01*
X90665443Y-71075147D01*
X90657561Y-71069301D01*
X90650289Y-71062711D01*
X90643699Y-71055439D01*
X90637853Y-71047557D01*
X90632808Y-71039140D01*
X90628612Y-71030268D01*
X90625306Y-71021028D01*
X90622921Y-71011509D01*
X90621482Y-71001802D01*
X90621000Y-70992000D01*
X90621000Y-69642000D01*
X90621482Y-69632198D01*
X90622921Y-69622491D01*
X90625306Y-69612972D01*
X90628612Y-69603732D01*
X90632808Y-69594860D01*
X90637853Y-69586443D01*
X90643699Y-69578561D01*
X90650289Y-69571289D01*
X90657561Y-69564699D01*
X90665443Y-69558853D01*
X90673860Y-69553808D01*
X90682732Y-69549612D01*
X90691972Y-69546306D01*
X90701491Y-69543921D01*
X90711198Y-69542482D01*
X90721000Y-69542000D01*
X90921000Y-69542000D01*
X90930802Y-69542482D01*
X90930802Y-69542482D01*
G37*
D11*
X90821000Y-70317000D03*
D10*
G36*
X90930802Y-73942482D02*
G01*
X90940509Y-73943921D01*
X90950028Y-73946306D01*
X90959268Y-73949612D01*
X90968140Y-73953808D01*
X90976557Y-73958853D01*
X90984439Y-73964699D01*
X90991711Y-73971289D01*
X90998301Y-73978561D01*
X91004147Y-73986443D01*
X91009192Y-73994860D01*
X91013388Y-74003732D01*
X91016694Y-74012972D01*
X91019079Y-74022491D01*
X91020518Y-74032198D01*
X91021000Y-74042000D01*
X91021000Y-75392000D01*
X91020518Y-75401802D01*
X91019079Y-75411509D01*
X91016694Y-75421028D01*
X91013388Y-75430268D01*
X91009192Y-75439140D01*
X91004147Y-75447557D01*
X90998301Y-75455439D01*
X90991711Y-75462711D01*
X90984439Y-75469301D01*
X90976557Y-75475147D01*
X90968140Y-75480192D01*
X90959268Y-75484388D01*
X90950028Y-75487694D01*
X90940509Y-75490079D01*
X90930802Y-75491518D01*
X90921000Y-75492000D01*
X90721000Y-75492000D01*
X90711198Y-75491518D01*
X90701491Y-75490079D01*
X90691972Y-75487694D01*
X90682732Y-75484388D01*
X90673860Y-75480192D01*
X90665443Y-75475147D01*
X90657561Y-75469301D01*
X90650289Y-75462711D01*
X90643699Y-75455439D01*
X90637853Y-75447557D01*
X90632808Y-75439140D01*
X90628612Y-75430268D01*
X90625306Y-75421028D01*
X90622921Y-75411509D01*
X90621482Y-75401802D01*
X90621000Y-75392000D01*
X90621000Y-74042000D01*
X90621482Y-74032198D01*
X90622921Y-74022491D01*
X90625306Y-74012972D01*
X90628612Y-74003732D01*
X90632808Y-73994860D01*
X90637853Y-73986443D01*
X90643699Y-73978561D01*
X90650289Y-73971289D01*
X90657561Y-73964699D01*
X90665443Y-73958853D01*
X90673860Y-73953808D01*
X90682732Y-73949612D01*
X90691972Y-73946306D01*
X90701491Y-73943921D01*
X90711198Y-73942482D01*
X90721000Y-73942000D01*
X90921000Y-73942000D01*
X90930802Y-73942482D01*
X90930802Y-73942482D01*
G37*
D11*
X90821000Y-74717000D03*
D10*
G36*
X91430802Y-73942482D02*
G01*
X91440509Y-73943921D01*
X91450028Y-73946306D01*
X91459268Y-73949612D01*
X91468140Y-73953808D01*
X91476557Y-73958853D01*
X91484439Y-73964699D01*
X91491711Y-73971289D01*
X91498301Y-73978561D01*
X91504147Y-73986443D01*
X91509192Y-73994860D01*
X91513388Y-74003732D01*
X91516694Y-74012972D01*
X91519079Y-74022491D01*
X91520518Y-74032198D01*
X91521000Y-74042000D01*
X91521000Y-75392000D01*
X91520518Y-75401802D01*
X91519079Y-75411509D01*
X91516694Y-75421028D01*
X91513388Y-75430268D01*
X91509192Y-75439140D01*
X91504147Y-75447557D01*
X91498301Y-75455439D01*
X91491711Y-75462711D01*
X91484439Y-75469301D01*
X91476557Y-75475147D01*
X91468140Y-75480192D01*
X91459268Y-75484388D01*
X91450028Y-75487694D01*
X91440509Y-75490079D01*
X91430802Y-75491518D01*
X91421000Y-75492000D01*
X91221000Y-75492000D01*
X91211198Y-75491518D01*
X91201491Y-75490079D01*
X91191972Y-75487694D01*
X91182732Y-75484388D01*
X91173860Y-75480192D01*
X91165443Y-75475147D01*
X91157561Y-75469301D01*
X91150289Y-75462711D01*
X91143699Y-75455439D01*
X91137853Y-75447557D01*
X91132808Y-75439140D01*
X91128612Y-75430268D01*
X91125306Y-75421028D01*
X91122921Y-75411509D01*
X91121482Y-75401802D01*
X91121000Y-75392000D01*
X91121000Y-74042000D01*
X91121482Y-74032198D01*
X91122921Y-74022491D01*
X91125306Y-74012972D01*
X91128612Y-74003732D01*
X91132808Y-73994860D01*
X91137853Y-73986443D01*
X91143699Y-73978561D01*
X91150289Y-73971289D01*
X91157561Y-73964699D01*
X91165443Y-73958853D01*
X91173860Y-73953808D01*
X91182732Y-73949612D01*
X91191972Y-73946306D01*
X91201491Y-73943921D01*
X91211198Y-73942482D01*
X91221000Y-73942000D01*
X91421000Y-73942000D01*
X91430802Y-73942482D01*
X91430802Y-73942482D01*
G37*
D11*
X91321000Y-74717000D03*
D10*
G36*
X91930802Y-73942482D02*
G01*
X91940509Y-73943921D01*
X91950028Y-73946306D01*
X91959268Y-73949612D01*
X91968140Y-73953808D01*
X91976557Y-73958853D01*
X91984439Y-73964699D01*
X91991711Y-73971289D01*
X91998301Y-73978561D01*
X92004147Y-73986443D01*
X92009192Y-73994860D01*
X92013388Y-74003732D01*
X92016694Y-74012972D01*
X92019079Y-74022491D01*
X92020518Y-74032198D01*
X92021000Y-74042000D01*
X92021000Y-75392000D01*
X92020518Y-75401802D01*
X92019079Y-75411509D01*
X92016694Y-75421028D01*
X92013388Y-75430268D01*
X92009192Y-75439140D01*
X92004147Y-75447557D01*
X91998301Y-75455439D01*
X91991711Y-75462711D01*
X91984439Y-75469301D01*
X91976557Y-75475147D01*
X91968140Y-75480192D01*
X91959268Y-75484388D01*
X91950028Y-75487694D01*
X91940509Y-75490079D01*
X91930802Y-75491518D01*
X91921000Y-75492000D01*
X91721000Y-75492000D01*
X91711198Y-75491518D01*
X91701491Y-75490079D01*
X91691972Y-75487694D01*
X91682732Y-75484388D01*
X91673860Y-75480192D01*
X91665443Y-75475147D01*
X91657561Y-75469301D01*
X91650289Y-75462711D01*
X91643699Y-75455439D01*
X91637853Y-75447557D01*
X91632808Y-75439140D01*
X91628612Y-75430268D01*
X91625306Y-75421028D01*
X91622921Y-75411509D01*
X91621482Y-75401802D01*
X91621000Y-75392000D01*
X91621000Y-74042000D01*
X91621482Y-74032198D01*
X91622921Y-74022491D01*
X91625306Y-74012972D01*
X91628612Y-74003732D01*
X91632808Y-73994860D01*
X91637853Y-73986443D01*
X91643699Y-73978561D01*
X91650289Y-73971289D01*
X91657561Y-73964699D01*
X91665443Y-73958853D01*
X91673860Y-73953808D01*
X91682732Y-73949612D01*
X91691972Y-73946306D01*
X91701491Y-73943921D01*
X91711198Y-73942482D01*
X91721000Y-73942000D01*
X91921000Y-73942000D01*
X91930802Y-73942482D01*
X91930802Y-73942482D01*
G37*
D11*
X91821000Y-74717000D03*
D10*
G36*
X92430802Y-73942482D02*
G01*
X92440509Y-73943921D01*
X92450028Y-73946306D01*
X92459268Y-73949612D01*
X92468140Y-73953808D01*
X92476557Y-73958853D01*
X92484439Y-73964699D01*
X92491711Y-73971289D01*
X92498301Y-73978561D01*
X92504147Y-73986443D01*
X92509192Y-73994860D01*
X92513388Y-74003732D01*
X92516694Y-74012972D01*
X92519079Y-74022491D01*
X92520518Y-74032198D01*
X92521000Y-74042000D01*
X92521000Y-75392000D01*
X92520518Y-75401802D01*
X92519079Y-75411509D01*
X92516694Y-75421028D01*
X92513388Y-75430268D01*
X92509192Y-75439140D01*
X92504147Y-75447557D01*
X92498301Y-75455439D01*
X92491711Y-75462711D01*
X92484439Y-75469301D01*
X92476557Y-75475147D01*
X92468140Y-75480192D01*
X92459268Y-75484388D01*
X92450028Y-75487694D01*
X92440509Y-75490079D01*
X92430802Y-75491518D01*
X92421000Y-75492000D01*
X92221000Y-75492000D01*
X92211198Y-75491518D01*
X92201491Y-75490079D01*
X92191972Y-75487694D01*
X92182732Y-75484388D01*
X92173860Y-75480192D01*
X92165443Y-75475147D01*
X92157561Y-75469301D01*
X92150289Y-75462711D01*
X92143699Y-75455439D01*
X92137853Y-75447557D01*
X92132808Y-75439140D01*
X92128612Y-75430268D01*
X92125306Y-75421028D01*
X92122921Y-75411509D01*
X92121482Y-75401802D01*
X92121000Y-75392000D01*
X92121000Y-74042000D01*
X92121482Y-74032198D01*
X92122921Y-74022491D01*
X92125306Y-74012972D01*
X92128612Y-74003732D01*
X92132808Y-73994860D01*
X92137853Y-73986443D01*
X92143699Y-73978561D01*
X92150289Y-73971289D01*
X92157561Y-73964699D01*
X92165443Y-73958853D01*
X92173860Y-73953808D01*
X92182732Y-73949612D01*
X92191972Y-73946306D01*
X92201491Y-73943921D01*
X92211198Y-73942482D01*
X92221000Y-73942000D01*
X92421000Y-73942000D01*
X92430802Y-73942482D01*
X92430802Y-73942482D01*
G37*
D11*
X92321000Y-74717000D03*
D10*
G36*
X92930802Y-73942482D02*
G01*
X92940509Y-73943921D01*
X92950028Y-73946306D01*
X92959268Y-73949612D01*
X92968140Y-73953808D01*
X92976557Y-73958853D01*
X92984439Y-73964699D01*
X92991711Y-73971289D01*
X92998301Y-73978561D01*
X93004147Y-73986443D01*
X93009192Y-73994860D01*
X93013388Y-74003732D01*
X93016694Y-74012972D01*
X93019079Y-74022491D01*
X93020518Y-74032198D01*
X93021000Y-74042000D01*
X93021000Y-75392000D01*
X93020518Y-75401802D01*
X93019079Y-75411509D01*
X93016694Y-75421028D01*
X93013388Y-75430268D01*
X93009192Y-75439140D01*
X93004147Y-75447557D01*
X92998301Y-75455439D01*
X92991711Y-75462711D01*
X92984439Y-75469301D01*
X92976557Y-75475147D01*
X92968140Y-75480192D01*
X92959268Y-75484388D01*
X92950028Y-75487694D01*
X92940509Y-75490079D01*
X92930802Y-75491518D01*
X92921000Y-75492000D01*
X92721000Y-75492000D01*
X92711198Y-75491518D01*
X92701491Y-75490079D01*
X92691972Y-75487694D01*
X92682732Y-75484388D01*
X92673860Y-75480192D01*
X92665443Y-75475147D01*
X92657561Y-75469301D01*
X92650289Y-75462711D01*
X92643699Y-75455439D01*
X92637853Y-75447557D01*
X92632808Y-75439140D01*
X92628612Y-75430268D01*
X92625306Y-75421028D01*
X92622921Y-75411509D01*
X92621482Y-75401802D01*
X92621000Y-75392000D01*
X92621000Y-74042000D01*
X92621482Y-74032198D01*
X92622921Y-74022491D01*
X92625306Y-74012972D01*
X92628612Y-74003732D01*
X92632808Y-73994860D01*
X92637853Y-73986443D01*
X92643699Y-73978561D01*
X92650289Y-73971289D01*
X92657561Y-73964699D01*
X92665443Y-73958853D01*
X92673860Y-73953808D01*
X92682732Y-73949612D01*
X92691972Y-73946306D01*
X92701491Y-73943921D01*
X92711198Y-73942482D01*
X92721000Y-73942000D01*
X92921000Y-73942000D01*
X92930802Y-73942482D01*
X92930802Y-73942482D01*
G37*
D11*
X92821000Y-74717000D03*
%TD*%
D10*
%TO.C,R9*%
G36*
X99475229Y-69036264D02*
G01*
X99500711Y-69040044D01*
X99525700Y-69046303D01*
X99549954Y-69054982D01*
X99573242Y-69065996D01*
X99595337Y-69079239D01*
X99616028Y-69094585D01*
X99635116Y-69111884D01*
X99652415Y-69130972D01*
X99667761Y-69151663D01*
X99681004Y-69173758D01*
X99692018Y-69197046D01*
X99700697Y-69221300D01*
X99706956Y-69246289D01*
X99710736Y-69271771D01*
X99712000Y-69297500D01*
X99712000Y-69922500D01*
X99710736Y-69948229D01*
X99706956Y-69973711D01*
X99700697Y-69998700D01*
X99692018Y-70022954D01*
X99681004Y-70046242D01*
X99667761Y-70068337D01*
X99652415Y-70089028D01*
X99635116Y-70108116D01*
X99616028Y-70125415D01*
X99595337Y-70140761D01*
X99573242Y-70154004D01*
X99549954Y-70165018D01*
X99525700Y-70173697D01*
X99500711Y-70179956D01*
X99475229Y-70183736D01*
X99449500Y-70185000D01*
X98924500Y-70185000D01*
X98898771Y-70183736D01*
X98873289Y-70179956D01*
X98848300Y-70173697D01*
X98824046Y-70165018D01*
X98800758Y-70154004D01*
X98778663Y-70140761D01*
X98757972Y-70125415D01*
X98738884Y-70108116D01*
X98721585Y-70089028D01*
X98706239Y-70068337D01*
X98692996Y-70046242D01*
X98681982Y-70022954D01*
X98673303Y-69998700D01*
X98667044Y-69973711D01*
X98663264Y-69948229D01*
X98662000Y-69922500D01*
X98662000Y-69297500D01*
X98663264Y-69271771D01*
X98667044Y-69246289D01*
X98673303Y-69221300D01*
X98681982Y-69197046D01*
X98692996Y-69173758D01*
X98706239Y-69151663D01*
X98721585Y-69130972D01*
X98738884Y-69111884D01*
X98757972Y-69094585D01*
X98778663Y-69079239D01*
X98800758Y-69065996D01*
X98824046Y-69054982D01*
X98848300Y-69046303D01*
X98873289Y-69040044D01*
X98898771Y-69036264D01*
X98924500Y-69035000D01*
X99449500Y-69035000D01*
X99475229Y-69036264D01*
X99475229Y-69036264D01*
G37*
D12*
X99187000Y-69610000D03*
D10*
G36*
X99475229Y-70786264D02*
G01*
X99500711Y-70790044D01*
X99525700Y-70796303D01*
X99549954Y-70804982D01*
X99573242Y-70815996D01*
X99595337Y-70829239D01*
X99616028Y-70844585D01*
X99635116Y-70861884D01*
X99652415Y-70880972D01*
X99667761Y-70901663D01*
X99681004Y-70923758D01*
X99692018Y-70947046D01*
X99700697Y-70971300D01*
X99706956Y-70996289D01*
X99710736Y-71021771D01*
X99712000Y-71047500D01*
X99712000Y-71672500D01*
X99710736Y-71698229D01*
X99706956Y-71723711D01*
X99700697Y-71748700D01*
X99692018Y-71772954D01*
X99681004Y-71796242D01*
X99667761Y-71818337D01*
X99652415Y-71839028D01*
X99635116Y-71858116D01*
X99616028Y-71875415D01*
X99595337Y-71890761D01*
X99573242Y-71904004D01*
X99549954Y-71915018D01*
X99525700Y-71923697D01*
X99500711Y-71929956D01*
X99475229Y-71933736D01*
X99449500Y-71935000D01*
X98924500Y-71935000D01*
X98898771Y-71933736D01*
X98873289Y-71929956D01*
X98848300Y-71923697D01*
X98824046Y-71915018D01*
X98800758Y-71904004D01*
X98778663Y-71890761D01*
X98757972Y-71875415D01*
X98738884Y-71858116D01*
X98721585Y-71839028D01*
X98706239Y-71818337D01*
X98692996Y-71796242D01*
X98681982Y-71772954D01*
X98673303Y-71748700D01*
X98667044Y-71723711D01*
X98663264Y-71698229D01*
X98662000Y-71672500D01*
X98662000Y-71047500D01*
X98663264Y-71021771D01*
X98667044Y-70996289D01*
X98673303Y-70971300D01*
X98681982Y-70947046D01*
X98692996Y-70923758D01*
X98706239Y-70901663D01*
X98721585Y-70880972D01*
X98738884Y-70861884D01*
X98757972Y-70844585D01*
X98778663Y-70829239D01*
X98800758Y-70815996D01*
X98824046Y-70804982D01*
X98848300Y-70796303D01*
X98873289Y-70790044D01*
X98898771Y-70786264D01*
X98924500Y-70785000D01*
X99449500Y-70785000D01*
X99475229Y-70786264D01*
X99475229Y-70786264D01*
G37*
D12*
X99187000Y-71360000D03*
%TD*%
D10*
%TO.C,R8*%
G36*
X97570229Y-70786264D02*
G01*
X97595711Y-70790044D01*
X97620700Y-70796303D01*
X97644954Y-70804982D01*
X97668242Y-70815996D01*
X97690337Y-70829239D01*
X97711028Y-70844585D01*
X97730116Y-70861884D01*
X97747415Y-70880972D01*
X97762761Y-70901663D01*
X97776004Y-70923758D01*
X97787018Y-70947046D01*
X97795697Y-70971300D01*
X97801956Y-70996289D01*
X97805736Y-71021771D01*
X97807000Y-71047500D01*
X97807000Y-71672500D01*
X97805736Y-71698229D01*
X97801956Y-71723711D01*
X97795697Y-71748700D01*
X97787018Y-71772954D01*
X97776004Y-71796242D01*
X97762761Y-71818337D01*
X97747415Y-71839028D01*
X97730116Y-71858116D01*
X97711028Y-71875415D01*
X97690337Y-71890761D01*
X97668242Y-71904004D01*
X97644954Y-71915018D01*
X97620700Y-71923697D01*
X97595711Y-71929956D01*
X97570229Y-71933736D01*
X97544500Y-71935000D01*
X97019500Y-71935000D01*
X96993771Y-71933736D01*
X96968289Y-71929956D01*
X96943300Y-71923697D01*
X96919046Y-71915018D01*
X96895758Y-71904004D01*
X96873663Y-71890761D01*
X96852972Y-71875415D01*
X96833884Y-71858116D01*
X96816585Y-71839028D01*
X96801239Y-71818337D01*
X96787996Y-71796242D01*
X96776982Y-71772954D01*
X96768303Y-71748700D01*
X96762044Y-71723711D01*
X96758264Y-71698229D01*
X96757000Y-71672500D01*
X96757000Y-71047500D01*
X96758264Y-71021771D01*
X96762044Y-70996289D01*
X96768303Y-70971300D01*
X96776982Y-70947046D01*
X96787996Y-70923758D01*
X96801239Y-70901663D01*
X96816585Y-70880972D01*
X96833884Y-70861884D01*
X96852972Y-70844585D01*
X96873663Y-70829239D01*
X96895758Y-70815996D01*
X96919046Y-70804982D01*
X96943300Y-70796303D01*
X96968289Y-70790044D01*
X96993771Y-70786264D01*
X97019500Y-70785000D01*
X97544500Y-70785000D01*
X97570229Y-70786264D01*
X97570229Y-70786264D01*
G37*
D12*
X97282000Y-71360000D03*
D10*
G36*
X97570229Y-69036264D02*
G01*
X97595711Y-69040044D01*
X97620700Y-69046303D01*
X97644954Y-69054982D01*
X97668242Y-69065996D01*
X97690337Y-69079239D01*
X97711028Y-69094585D01*
X97730116Y-69111884D01*
X97747415Y-69130972D01*
X97762761Y-69151663D01*
X97776004Y-69173758D01*
X97787018Y-69197046D01*
X97795697Y-69221300D01*
X97801956Y-69246289D01*
X97805736Y-69271771D01*
X97807000Y-69297500D01*
X97807000Y-69922500D01*
X97805736Y-69948229D01*
X97801956Y-69973711D01*
X97795697Y-69998700D01*
X97787018Y-70022954D01*
X97776004Y-70046242D01*
X97762761Y-70068337D01*
X97747415Y-70089028D01*
X97730116Y-70108116D01*
X97711028Y-70125415D01*
X97690337Y-70140761D01*
X97668242Y-70154004D01*
X97644954Y-70165018D01*
X97620700Y-70173697D01*
X97595711Y-70179956D01*
X97570229Y-70183736D01*
X97544500Y-70185000D01*
X97019500Y-70185000D01*
X96993771Y-70183736D01*
X96968289Y-70179956D01*
X96943300Y-70173697D01*
X96919046Y-70165018D01*
X96895758Y-70154004D01*
X96873663Y-70140761D01*
X96852972Y-70125415D01*
X96833884Y-70108116D01*
X96816585Y-70089028D01*
X96801239Y-70068337D01*
X96787996Y-70046242D01*
X96776982Y-70022954D01*
X96768303Y-69998700D01*
X96762044Y-69973711D01*
X96758264Y-69948229D01*
X96757000Y-69922500D01*
X96757000Y-69297500D01*
X96758264Y-69271771D01*
X96762044Y-69246289D01*
X96768303Y-69221300D01*
X96776982Y-69197046D01*
X96787996Y-69173758D01*
X96801239Y-69151663D01*
X96816585Y-69130972D01*
X96833884Y-69111884D01*
X96852972Y-69094585D01*
X96873663Y-69079239D01*
X96895758Y-69065996D01*
X96919046Y-69054982D01*
X96943300Y-69046303D01*
X96968289Y-69040044D01*
X96993771Y-69036264D01*
X97019500Y-69035000D01*
X97544500Y-69035000D01*
X97570229Y-69036264D01*
X97570229Y-69036264D01*
G37*
D12*
X97282000Y-69610000D03*
%TD*%
D10*
%TO.C,R7*%
G36*
X95792229Y-69036264D02*
G01*
X95817711Y-69040044D01*
X95842700Y-69046303D01*
X95866954Y-69054982D01*
X95890242Y-69065996D01*
X95912337Y-69079239D01*
X95933028Y-69094585D01*
X95952116Y-69111884D01*
X95969415Y-69130972D01*
X95984761Y-69151663D01*
X95998004Y-69173758D01*
X96009018Y-69197046D01*
X96017697Y-69221300D01*
X96023956Y-69246289D01*
X96027736Y-69271771D01*
X96029000Y-69297500D01*
X96029000Y-69922500D01*
X96027736Y-69948229D01*
X96023956Y-69973711D01*
X96017697Y-69998700D01*
X96009018Y-70022954D01*
X95998004Y-70046242D01*
X95984761Y-70068337D01*
X95969415Y-70089028D01*
X95952116Y-70108116D01*
X95933028Y-70125415D01*
X95912337Y-70140761D01*
X95890242Y-70154004D01*
X95866954Y-70165018D01*
X95842700Y-70173697D01*
X95817711Y-70179956D01*
X95792229Y-70183736D01*
X95766500Y-70185000D01*
X95241500Y-70185000D01*
X95215771Y-70183736D01*
X95190289Y-70179956D01*
X95165300Y-70173697D01*
X95141046Y-70165018D01*
X95117758Y-70154004D01*
X95095663Y-70140761D01*
X95074972Y-70125415D01*
X95055884Y-70108116D01*
X95038585Y-70089028D01*
X95023239Y-70068337D01*
X95009996Y-70046242D01*
X94998982Y-70022954D01*
X94990303Y-69998700D01*
X94984044Y-69973711D01*
X94980264Y-69948229D01*
X94979000Y-69922500D01*
X94979000Y-69297500D01*
X94980264Y-69271771D01*
X94984044Y-69246289D01*
X94990303Y-69221300D01*
X94998982Y-69197046D01*
X95009996Y-69173758D01*
X95023239Y-69151663D01*
X95038585Y-69130972D01*
X95055884Y-69111884D01*
X95074972Y-69094585D01*
X95095663Y-69079239D01*
X95117758Y-69065996D01*
X95141046Y-69054982D01*
X95165300Y-69046303D01*
X95190289Y-69040044D01*
X95215771Y-69036264D01*
X95241500Y-69035000D01*
X95766500Y-69035000D01*
X95792229Y-69036264D01*
X95792229Y-69036264D01*
G37*
D12*
X95504000Y-69610000D03*
D10*
G36*
X95792229Y-70786264D02*
G01*
X95817711Y-70790044D01*
X95842700Y-70796303D01*
X95866954Y-70804982D01*
X95890242Y-70815996D01*
X95912337Y-70829239D01*
X95933028Y-70844585D01*
X95952116Y-70861884D01*
X95969415Y-70880972D01*
X95984761Y-70901663D01*
X95998004Y-70923758D01*
X96009018Y-70947046D01*
X96017697Y-70971300D01*
X96023956Y-70996289D01*
X96027736Y-71021771D01*
X96029000Y-71047500D01*
X96029000Y-71672500D01*
X96027736Y-71698229D01*
X96023956Y-71723711D01*
X96017697Y-71748700D01*
X96009018Y-71772954D01*
X95998004Y-71796242D01*
X95984761Y-71818337D01*
X95969415Y-71839028D01*
X95952116Y-71858116D01*
X95933028Y-71875415D01*
X95912337Y-71890761D01*
X95890242Y-71904004D01*
X95866954Y-71915018D01*
X95842700Y-71923697D01*
X95817711Y-71929956D01*
X95792229Y-71933736D01*
X95766500Y-71935000D01*
X95241500Y-71935000D01*
X95215771Y-71933736D01*
X95190289Y-71929956D01*
X95165300Y-71923697D01*
X95141046Y-71915018D01*
X95117758Y-71904004D01*
X95095663Y-71890761D01*
X95074972Y-71875415D01*
X95055884Y-71858116D01*
X95038585Y-71839028D01*
X95023239Y-71818337D01*
X95009996Y-71796242D01*
X94998982Y-71772954D01*
X94990303Y-71748700D01*
X94984044Y-71723711D01*
X94980264Y-71698229D01*
X94979000Y-71672500D01*
X94979000Y-71047500D01*
X94980264Y-71021771D01*
X94984044Y-70996289D01*
X94990303Y-70971300D01*
X94998982Y-70947046D01*
X95009996Y-70923758D01*
X95023239Y-70901663D01*
X95038585Y-70880972D01*
X95055884Y-70861884D01*
X95074972Y-70844585D01*
X95095663Y-70829239D01*
X95117758Y-70815996D01*
X95141046Y-70804982D01*
X95165300Y-70796303D01*
X95190289Y-70790044D01*
X95215771Y-70786264D01*
X95241500Y-70785000D01*
X95766500Y-70785000D01*
X95792229Y-70786264D01*
X95792229Y-70786264D01*
G37*
D12*
X95504000Y-71360000D03*
%TD*%
D13*
%TO.C,J2*%
X102108000Y-71120000D03*
X104648000Y-71120000D03*
X107188000Y-71120000D03*
X109728000Y-71120000D03*
X112268000Y-71120000D03*
D14*
X114808000Y-71120000D03*
%TD*%
D13*
%TO.C,J8*%
X112268000Y-75184000D03*
X109728000Y-75184000D03*
X107188000Y-75184000D03*
D14*
X104648000Y-75184000D03*
%TD*%
D10*
%TO.C,R6*%
G36*
X80094229Y-73390264D02*
G01*
X80119711Y-73394044D01*
X80144700Y-73400303D01*
X80168954Y-73408982D01*
X80192242Y-73419996D01*
X80214337Y-73433239D01*
X80235028Y-73448585D01*
X80254116Y-73465884D01*
X80271415Y-73484972D01*
X80286761Y-73505663D01*
X80300004Y-73527758D01*
X80311018Y-73551046D01*
X80319697Y-73575300D01*
X80325956Y-73600289D01*
X80329736Y-73625771D01*
X80331000Y-73651500D01*
X80331000Y-74176500D01*
X80329736Y-74202229D01*
X80325956Y-74227711D01*
X80319697Y-74252700D01*
X80311018Y-74276954D01*
X80300004Y-74300242D01*
X80286761Y-74322337D01*
X80271415Y-74343028D01*
X80254116Y-74362116D01*
X80235028Y-74379415D01*
X80214337Y-74394761D01*
X80192242Y-74408004D01*
X80168954Y-74419018D01*
X80144700Y-74427697D01*
X80119711Y-74433956D01*
X80094229Y-74437736D01*
X80068500Y-74439000D01*
X79443500Y-74439000D01*
X79417771Y-74437736D01*
X79392289Y-74433956D01*
X79367300Y-74427697D01*
X79343046Y-74419018D01*
X79319758Y-74408004D01*
X79297663Y-74394761D01*
X79276972Y-74379415D01*
X79257884Y-74362116D01*
X79240585Y-74343028D01*
X79225239Y-74322337D01*
X79211996Y-74300242D01*
X79200982Y-74276954D01*
X79192303Y-74252700D01*
X79186044Y-74227711D01*
X79182264Y-74202229D01*
X79181000Y-74176500D01*
X79181000Y-73651500D01*
X79182264Y-73625771D01*
X79186044Y-73600289D01*
X79192303Y-73575300D01*
X79200982Y-73551046D01*
X79211996Y-73527758D01*
X79225239Y-73505663D01*
X79240585Y-73484972D01*
X79257884Y-73465884D01*
X79276972Y-73448585D01*
X79297663Y-73433239D01*
X79319758Y-73419996D01*
X79343046Y-73408982D01*
X79367300Y-73400303D01*
X79392289Y-73394044D01*
X79417771Y-73390264D01*
X79443500Y-73389000D01*
X80068500Y-73389000D01*
X80094229Y-73390264D01*
X80094229Y-73390264D01*
G37*
D12*
X79756000Y-73914000D03*
D10*
G36*
X81844229Y-73390264D02*
G01*
X81869711Y-73394044D01*
X81894700Y-73400303D01*
X81918954Y-73408982D01*
X81942242Y-73419996D01*
X81964337Y-73433239D01*
X81985028Y-73448585D01*
X82004116Y-73465884D01*
X82021415Y-73484972D01*
X82036761Y-73505663D01*
X82050004Y-73527758D01*
X82061018Y-73551046D01*
X82069697Y-73575300D01*
X82075956Y-73600289D01*
X82079736Y-73625771D01*
X82081000Y-73651500D01*
X82081000Y-74176500D01*
X82079736Y-74202229D01*
X82075956Y-74227711D01*
X82069697Y-74252700D01*
X82061018Y-74276954D01*
X82050004Y-74300242D01*
X82036761Y-74322337D01*
X82021415Y-74343028D01*
X82004116Y-74362116D01*
X81985028Y-74379415D01*
X81964337Y-74394761D01*
X81942242Y-74408004D01*
X81918954Y-74419018D01*
X81894700Y-74427697D01*
X81869711Y-74433956D01*
X81844229Y-74437736D01*
X81818500Y-74439000D01*
X81193500Y-74439000D01*
X81167771Y-74437736D01*
X81142289Y-74433956D01*
X81117300Y-74427697D01*
X81093046Y-74419018D01*
X81069758Y-74408004D01*
X81047663Y-74394761D01*
X81026972Y-74379415D01*
X81007884Y-74362116D01*
X80990585Y-74343028D01*
X80975239Y-74322337D01*
X80961996Y-74300242D01*
X80950982Y-74276954D01*
X80942303Y-74252700D01*
X80936044Y-74227711D01*
X80932264Y-74202229D01*
X80931000Y-74176500D01*
X80931000Y-73651500D01*
X80932264Y-73625771D01*
X80936044Y-73600289D01*
X80942303Y-73575300D01*
X80950982Y-73551046D01*
X80961996Y-73527758D01*
X80975239Y-73505663D01*
X80990585Y-73484972D01*
X81007884Y-73465884D01*
X81026972Y-73448585D01*
X81047663Y-73433239D01*
X81069758Y-73419996D01*
X81093046Y-73408982D01*
X81117300Y-73400303D01*
X81142289Y-73394044D01*
X81167771Y-73390264D01*
X81193500Y-73389000D01*
X81818500Y-73389000D01*
X81844229Y-73390264D01*
X81844229Y-73390264D01*
G37*
D12*
X81506000Y-73914000D03*
%TD*%
D10*
%TO.C,R5*%
G36*
X69454229Y-73390264D02*
G01*
X69479711Y-73394044D01*
X69504700Y-73400303D01*
X69528954Y-73408982D01*
X69552242Y-73419996D01*
X69574337Y-73433239D01*
X69595028Y-73448585D01*
X69614116Y-73465884D01*
X69631415Y-73484972D01*
X69646761Y-73505663D01*
X69660004Y-73527758D01*
X69671018Y-73551046D01*
X69679697Y-73575300D01*
X69685956Y-73600289D01*
X69689736Y-73625771D01*
X69691000Y-73651500D01*
X69691000Y-74176500D01*
X69689736Y-74202229D01*
X69685956Y-74227711D01*
X69679697Y-74252700D01*
X69671018Y-74276954D01*
X69660004Y-74300242D01*
X69646761Y-74322337D01*
X69631415Y-74343028D01*
X69614116Y-74362116D01*
X69595028Y-74379415D01*
X69574337Y-74394761D01*
X69552242Y-74408004D01*
X69528954Y-74419018D01*
X69504700Y-74427697D01*
X69479711Y-74433956D01*
X69454229Y-74437736D01*
X69428500Y-74439000D01*
X68803500Y-74439000D01*
X68777771Y-74437736D01*
X68752289Y-74433956D01*
X68727300Y-74427697D01*
X68703046Y-74419018D01*
X68679758Y-74408004D01*
X68657663Y-74394761D01*
X68636972Y-74379415D01*
X68617884Y-74362116D01*
X68600585Y-74343028D01*
X68585239Y-74322337D01*
X68571996Y-74300242D01*
X68560982Y-74276954D01*
X68552303Y-74252700D01*
X68546044Y-74227711D01*
X68542264Y-74202229D01*
X68541000Y-74176500D01*
X68541000Y-73651500D01*
X68542264Y-73625771D01*
X68546044Y-73600289D01*
X68552303Y-73575300D01*
X68560982Y-73551046D01*
X68571996Y-73527758D01*
X68585239Y-73505663D01*
X68600585Y-73484972D01*
X68617884Y-73465884D01*
X68636972Y-73448585D01*
X68657663Y-73433239D01*
X68679758Y-73419996D01*
X68703046Y-73408982D01*
X68727300Y-73400303D01*
X68752289Y-73394044D01*
X68777771Y-73390264D01*
X68803500Y-73389000D01*
X69428500Y-73389000D01*
X69454229Y-73390264D01*
X69454229Y-73390264D01*
G37*
D12*
X69116000Y-73914000D03*
D10*
G36*
X71204229Y-73390264D02*
G01*
X71229711Y-73394044D01*
X71254700Y-73400303D01*
X71278954Y-73408982D01*
X71302242Y-73419996D01*
X71324337Y-73433239D01*
X71345028Y-73448585D01*
X71364116Y-73465884D01*
X71381415Y-73484972D01*
X71396761Y-73505663D01*
X71410004Y-73527758D01*
X71421018Y-73551046D01*
X71429697Y-73575300D01*
X71435956Y-73600289D01*
X71439736Y-73625771D01*
X71441000Y-73651500D01*
X71441000Y-74176500D01*
X71439736Y-74202229D01*
X71435956Y-74227711D01*
X71429697Y-74252700D01*
X71421018Y-74276954D01*
X71410004Y-74300242D01*
X71396761Y-74322337D01*
X71381415Y-74343028D01*
X71364116Y-74362116D01*
X71345028Y-74379415D01*
X71324337Y-74394761D01*
X71302242Y-74408004D01*
X71278954Y-74419018D01*
X71254700Y-74427697D01*
X71229711Y-74433956D01*
X71204229Y-74437736D01*
X71178500Y-74439000D01*
X70553500Y-74439000D01*
X70527771Y-74437736D01*
X70502289Y-74433956D01*
X70477300Y-74427697D01*
X70453046Y-74419018D01*
X70429758Y-74408004D01*
X70407663Y-74394761D01*
X70386972Y-74379415D01*
X70367884Y-74362116D01*
X70350585Y-74343028D01*
X70335239Y-74322337D01*
X70321996Y-74300242D01*
X70310982Y-74276954D01*
X70302303Y-74252700D01*
X70296044Y-74227711D01*
X70292264Y-74202229D01*
X70291000Y-74176500D01*
X70291000Y-73651500D01*
X70292264Y-73625771D01*
X70296044Y-73600289D01*
X70302303Y-73575300D01*
X70310982Y-73551046D01*
X70321996Y-73527758D01*
X70335239Y-73505663D01*
X70350585Y-73484972D01*
X70367884Y-73465884D01*
X70386972Y-73448585D01*
X70407663Y-73433239D01*
X70429758Y-73419996D01*
X70453046Y-73408982D01*
X70477300Y-73400303D01*
X70502289Y-73394044D01*
X70527771Y-73390264D01*
X70553500Y-73389000D01*
X71178500Y-73389000D01*
X71204229Y-73390264D01*
X71204229Y-73390264D01*
G37*
D12*
X70866000Y-73914000D03*
%TD*%
D10*
%TO.C,R4*%
G36*
X87918229Y-73622264D02*
G01*
X87943711Y-73626044D01*
X87968700Y-73632303D01*
X87992954Y-73640982D01*
X88016242Y-73651996D01*
X88038337Y-73665239D01*
X88059028Y-73680585D01*
X88078116Y-73697884D01*
X88095415Y-73716972D01*
X88110761Y-73737663D01*
X88124004Y-73759758D01*
X88135018Y-73783046D01*
X88143697Y-73807300D01*
X88149956Y-73832289D01*
X88153736Y-73857771D01*
X88155000Y-73883500D01*
X88155000Y-74508500D01*
X88153736Y-74534229D01*
X88149956Y-74559711D01*
X88143697Y-74584700D01*
X88135018Y-74608954D01*
X88124004Y-74632242D01*
X88110761Y-74654337D01*
X88095415Y-74675028D01*
X88078116Y-74694116D01*
X88059028Y-74711415D01*
X88038337Y-74726761D01*
X88016242Y-74740004D01*
X87992954Y-74751018D01*
X87968700Y-74759697D01*
X87943711Y-74765956D01*
X87918229Y-74769736D01*
X87892500Y-74771000D01*
X87367500Y-74771000D01*
X87341771Y-74769736D01*
X87316289Y-74765956D01*
X87291300Y-74759697D01*
X87267046Y-74751018D01*
X87243758Y-74740004D01*
X87221663Y-74726761D01*
X87200972Y-74711415D01*
X87181884Y-74694116D01*
X87164585Y-74675028D01*
X87149239Y-74654337D01*
X87135996Y-74632242D01*
X87124982Y-74608954D01*
X87116303Y-74584700D01*
X87110044Y-74559711D01*
X87106264Y-74534229D01*
X87105000Y-74508500D01*
X87105000Y-73883500D01*
X87106264Y-73857771D01*
X87110044Y-73832289D01*
X87116303Y-73807300D01*
X87124982Y-73783046D01*
X87135996Y-73759758D01*
X87149239Y-73737663D01*
X87164585Y-73716972D01*
X87181884Y-73697884D01*
X87200972Y-73680585D01*
X87221663Y-73665239D01*
X87243758Y-73651996D01*
X87267046Y-73640982D01*
X87291300Y-73632303D01*
X87316289Y-73626044D01*
X87341771Y-73622264D01*
X87367500Y-73621000D01*
X87892500Y-73621000D01*
X87918229Y-73622264D01*
X87918229Y-73622264D01*
G37*
D12*
X87630000Y-74196000D03*
D10*
G36*
X87918229Y-75372264D02*
G01*
X87943711Y-75376044D01*
X87968700Y-75382303D01*
X87992954Y-75390982D01*
X88016242Y-75401996D01*
X88038337Y-75415239D01*
X88059028Y-75430585D01*
X88078116Y-75447884D01*
X88095415Y-75466972D01*
X88110761Y-75487663D01*
X88124004Y-75509758D01*
X88135018Y-75533046D01*
X88143697Y-75557300D01*
X88149956Y-75582289D01*
X88153736Y-75607771D01*
X88155000Y-75633500D01*
X88155000Y-76258500D01*
X88153736Y-76284229D01*
X88149956Y-76309711D01*
X88143697Y-76334700D01*
X88135018Y-76358954D01*
X88124004Y-76382242D01*
X88110761Y-76404337D01*
X88095415Y-76425028D01*
X88078116Y-76444116D01*
X88059028Y-76461415D01*
X88038337Y-76476761D01*
X88016242Y-76490004D01*
X87992954Y-76501018D01*
X87968700Y-76509697D01*
X87943711Y-76515956D01*
X87918229Y-76519736D01*
X87892500Y-76521000D01*
X87367500Y-76521000D01*
X87341771Y-76519736D01*
X87316289Y-76515956D01*
X87291300Y-76509697D01*
X87267046Y-76501018D01*
X87243758Y-76490004D01*
X87221663Y-76476761D01*
X87200972Y-76461415D01*
X87181884Y-76444116D01*
X87164585Y-76425028D01*
X87149239Y-76404337D01*
X87135996Y-76382242D01*
X87124982Y-76358954D01*
X87116303Y-76334700D01*
X87110044Y-76309711D01*
X87106264Y-76284229D01*
X87105000Y-76258500D01*
X87105000Y-75633500D01*
X87106264Y-75607771D01*
X87110044Y-75582289D01*
X87116303Y-75557300D01*
X87124982Y-75533046D01*
X87135996Y-75509758D01*
X87149239Y-75487663D01*
X87164585Y-75466972D01*
X87181884Y-75447884D01*
X87200972Y-75430585D01*
X87221663Y-75415239D01*
X87243758Y-75401996D01*
X87267046Y-75390982D01*
X87291300Y-75382303D01*
X87316289Y-75376044D01*
X87341771Y-75372264D01*
X87367500Y-75371000D01*
X87892500Y-75371000D01*
X87918229Y-75372264D01*
X87918229Y-75372264D01*
G37*
D12*
X87630000Y-75946000D03*
%TD*%
D10*
%TO.C,R3*%
G36*
X77758229Y-73622264D02*
G01*
X77783711Y-73626044D01*
X77808700Y-73632303D01*
X77832954Y-73640982D01*
X77856242Y-73651996D01*
X77878337Y-73665239D01*
X77899028Y-73680585D01*
X77918116Y-73697884D01*
X77935415Y-73716972D01*
X77950761Y-73737663D01*
X77964004Y-73759758D01*
X77975018Y-73783046D01*
X77983697Y-73807300D01*
X77989956Y-73832289D01*
X77993736Y-73857771D01*
X77995000Y-73883500D01*
X77995000Y-74508500D01*
X77993736Y-74534229D01*
X77989956Y-74559711D01*
X77983697Y-74584700D01*
X77975018Y-74608954D01*
X77964004Y-74632242D01*
X77950761Y-74654337D01*
X77935415Y-74675028D01*
X77918116Y-74694116D01*
X77899028Y-74711415D01*
X77878337Y-74726761D01*
X77856242Y-74740004D01*
X77832954Y-74751018D01*
X77808700Y-74759697D01*
X77783711Y-74765956D01*
X77758229Y-74769736D01*
X77732500Y-74771000D01*
X77207500Y-74771000D01*
X77181771Y-74769736D01*
X77156289Y-74765956D01*
X77131300Y-74759697D01*
X77107046Y-74751018D01*
X77083758Y-74740004D01*
X77061663Y-74726761D01*
X77040972Y-74711415D01*
X77021884Y-74694116D01*
X77004585Y-74675028D01*
X76989239Y-74654337D01*
X76975996Y-74632242D01*
X76964982Y-74608954D01*
X76956303Y-74584700D01*
X76950044Y-74559711D01*
X76946264Y-74534229D01*
X76945000Y-74508500D01*
X76945000Y-73883500D01*
X76946264Y-73857771D01*
X76950044Y-73832289D01*
X76956303Y-73807300D01*
X76964982Y-73783046D01*
X76975996Y-73759758D01*
X76989239Y-73737663D01*
X77004585Y-73716972D01*
X77021884Y-73697884D01*
X77040972Y-73680585D01*
X77061663Y-73665239D01*
X77083758Y-73651996D01*
X77107046Y-73640982D01*
X77131300Y-73632303D01*
X77156289Y-73626044D01*
X77181771Y-73622264D01*
X77207500Y-73621000D01*
X77732500Y-73621000D01*
X77758229Y-73622264D01*
X77758229Y-73622264D01*
G37*
D12*
X77470000Y-74196000D03*
D10*
G36*
X77758229Y-75372264D02*
G01*
X77783711Y-75376044D01*
X77808700Y-75382303D01*
X77832954Y-75390982D01*
X77856242Y-75401996D01*
X77878337Y-75415239D01*
X77899028Y-75430585D01*
X77918116Y-75447884D01*
X77935415Y-75466972D01*
X77950761Y-75487663D01*
X77964004Y-75509758D01*
X77975018Y-75533046D01*
X77983697Y-75557300D01*
X77989956Y-75582289D01*
X77993736Y-75607771D01*
X77995000Y-75633500D01*
X77995000Y-76258500D01*
X77993736Y-76284229D01*
X77989956Y-76309711D01*
X77983697Y-76334700D01*
X77975018Y-76358954D01*
X77964004Y-76382242D01*
X77950761Y-76404337D01*
X77935415Y-76425028D01*
X77918116Y-76444116D01*
X77899028Y-76461415D01*
X77878337Y-76476761D01*
X77856242Y-76490004D01*
X77832954Y-76501018D01*
X77808700Y-76509697D01*
X77783711Y-76515956D01*
X77758229Y-76519736D01*
X77732500Y-76521000D01*
X77207500Y-76521000D01*
X77181771Y-76519736D01*
X77156289Y-76515956D01*
X77131300Y-76509697D01*
X77107046Y-76501018D01*
X77083758Y-76490004D01*
X77061663Y-76476761D01*
X77040972Y-76461415D01*
X77021884Y-76444116D01*
X77004585Y-76425028D01*
X76989239Y-76404337D01*
X76975996Y-76382242D01*
X76964982Y-76358954D01*
X76956303Y-76334700D01*
X76950044Y-76309711D01*
X76946264Y-76284229D01*
X76945000Y-76258500D01*
X76945000Y-75633500D01*
X76946264Y-75607771D01*
X76950044Y-75582289D01*
X76956303Y-75557300D01*
X76964982Y-75533046D01*
X76975996Y-75509758D01*
X76989239Y-75487663D01*
X77004585Y-75466972D01*
X77021884Y-75447884D01*
X77040972Y-75430585D01*
X77061663Y-75415239D01*
X77083758Y-75401996D01*
X77107046Y-75390982D01*
X77131300Y-75382303D01*
X77156289Y-75376044D01*
X77181771Y-75372264D01*
X77207500Y-75371000D01*
X77732500Y-75371000D01*
X77758229Y-75372264D01*
X77758229Y-75372264D01*
G37*
D12*
X77470000Y-75946000D03*
%TD*%
D10*
%TO.C,R2*%
G36*
X98840229Y-74102263D02*
G01*
X98865711Y-74106043D01*
X98890700Y-74112302D01*
X98914954Y-74120981D01*
X98938242Y-74131995D01*
X98960337Y-74145238D01*
X98981028Y-74160584D01*
X99000116Y-74177883D01*
X99017415Y-74196971D01*
X99032761Y-74217662D01*
X99046004Y-74239757D01*
X99057018Y-74263045D01*
X99065697Y-74287299D01*
X99071956Y-74312288D01*
X99075736Y-74337770D01*
X99077000Y-74363499D01*
X99077000Y-74988499D01*
X99075736Y-75014228D01*
X99071956Y-75039710D01*
X99065697Y-75064699D01*
X99057018Y-75088953D01*
X99046004Y-75112241D01*
X99032761Y-75134336D01*
X99017415Y-75155027D01*
X99000116Y-75174115D01*
X98981028Y-75191414D01*
X98960337Y-75206760D01*
X98938242Y-75220003D01*
X98914954Y-75231017D01*
X98890700Y-75239696D01*
X98865711Y-75245955D01*
X98840229Y-75249735D01*
X98814500Y-75250999D01*
X98289500Y-75250999D01*
X98263771Y-75249735D01*
X98238289Y-75245955D01*
X98213300Y-75239696D01*
X98189046Y-75231017D01*
X98165758Y-75220003D01*
X98143663Y-75206760D01*
X98122972Y-75191414D01*
X98103884Y-75174115D01*
X98086585Y-75155027D01*
X98071239Y-75134336D01*
X98057996Y-75112241D01*
X98046982Y-75088953D01*
X98038303Y-75064699D01*
X98032044Y-75039710D01*
X98028264Y-75014228D01*
X98027000Y-74988499D01*
X98027000Y-74363499D01*
X98028264Y-74337770D01*
X98032044Y-74312288D01*
X98038303Y-74287299D01*
X98046982Y-74263045D01*
X98057996Y-74239757D01*
X98071239Y-74217662D01*
X98086585Y-74196971D01*
X98103884Y-74177883D01*
X98122972Y-74160584D01*
X98143663Y-74145238D01*
X98165758Y-74131995D01*
X98189046Y-74120981D01*
X98213300Y-74112302D01*
X98238289Y-74106043D01*
X98263771Y-74102263D01*
X98289500Y-74100999D01*
X98814500Y-74100999D01*
X98840229Y-74102263D01*
X98840229Y-74102263D01*
G37*
D12*
X98552000Y-74675999D03*
D10*
G36*
X98840229Y-75852263D02*
G01*
X98865711Y-75856043D01*
X98890700Y-75862302D01*
X98914954Y-75870981D01*
X98938242Y-75881995D01*
X98960337Y-75895238D01*
X98981028Y-75910584D01*
X99000116Y-75927883D01*
X99017415Y-75946971D01*
X99032761Y-75967662D01*
X99046004Y-75989757D01*
X99057018Y-76013045D01*
X99065697Y-76037299D01*
X99071956Y-76062288D01*
X99075736Y-76087770D01*
X99077000Y-76113499D01*
X99077000Y-76738499D01*
X99075736Y-76764228D01*
X99071956Y-76789710D01*
X99065697Y-76814699D01*
X99057018Y-76838953D01*
X99046004Y-76862241D01*
X99032761Y-76884336D01*
X99017415Y-76905027D01*
X99000116Y-76924115D01*
X98981028Y-76941414D01*
X98960337Y-76956760D01*
X98938242Y-76970003D01*
X98914954Y-76981017D01*
X98890700Y-76989696D01*
X98865711Y-76995955D01*
X98840229Y-76999735D01*
X98814500Y-77000999D01*
X98289500Y-77000999D01*
X98263771Y-76999735D01*
X98238289Y-76995955D01*
X98213300Y-76989696D01*
X98189046Y-76981017D01*
X98165758Y-76970003D01*
X98143663Y-76956760D01*
X98122972Y-76941414D01*
X98103884Y-76924115D01*
X98086585Y-76905027D01*
X98071239Y-76884336D01*
X98057996Y-76862241D01*
X98046982Y-76838953D01*
X98038303Y-76814699D01*
X98032044Y-76789710D01*
X98028264Y-76764228D01*
X98027000Y-76738499D01*
X98027000Y-76113499D01*
X98028264Y-76087770D01*
X98032044Y-76062288D01*
X98038303Y-76037299D01*
X98046982Y-76013045D01*
X98057996Y-75989757D01*
X98071239Y-75967662D01*
X98086585Y-75946971D01*
X98103884Y-75927883D01*
X98122972Y-75910584D01*
X98143663Y-75895238D01*
X98165758Y-75881995D01*
X98189046Y-75870981D01*
X98213300Y-75862302D01*
X98238289Y-75856043D01*
X98263771Y-75852263D01*
X98289500Y-75850999D01*
X98814500Y-75850999D01*
X98840229Y-75852263D01*
X98840229Y-75852263D01*
G37*
D12*
X98552000Y-76425999D03*
%TD*%
D10*
%TO.C,R1*%
G36*
X100999229Y-74102263D02*
G01*
X101024711Y-74106043D01*
X101049700Y-74112302D01*
X101073954Y-74120981D01*
X101097242Y-74131995D01*
X101119337Y-74145238D01*
X101140028Y-74160584D01*
X101159116Y-74177883D01*
X101176415Y-74196971D01*
X101191761Y-74217662D01*
X101205004Y-74239757D01*
X101216018Y-74263045D01*
X101224697Y-74287299D01*
X101230956Y-74312288D01*
X101234736Y-74337770D01*
X101236000Y-74363499D01*
X101236000Y-74988499D01*
X101234736Y-75014228D01*
X101230956Y-75039710D01*
X101224697Y-75064699D01*
X101216018Y-75088953D01*
X101205004Y-75112241D01*
X101191761Y-75134336D01*
X101176415Y-75155027D01*
X101159116Y-75174115D01*
X101140028Y-75191414D01*
X101119337Y-75206760D01*
X101097242Y-75220003D01*
X101073954Y-75231017D01*
X101049700Y-75239696D01*
X101024711Y-75245955D01*
X100999229Y-75249735D01*
X100973500Y-75250999D01*
X100448500Y-75250999D01*
X100422771Y-75249735D01*
X100397289Y-75245955D01*
X100372300Y-75239696D01*
X100348046Y-75231017D01*
X100324758Y-75220003D01*
X100302663Y-75206760D01*
X100281972Y-75191414D01*
X100262884Y-75174115D01*
X100245585Y-75155027D01*
X100230239Y-75134336D01*
X100216996Y-75112241D01*
X100205982Y-75088953D01*
X100197303Y-75064699D01*
X100191044Y-75039710D01*
X100187264Y-75014228D01*
X100186000Y-74988499D01*
X100186000Y-74363499D01*
X100187264Y-74337770D01*
X100191044Y-74312288D01*
X100197303Y-74287299D01*
X100205982Y-74263045D01*
X100216996Y-74239757D01*
X100230239Y-74217662D01*
X100245585Y-74196971D01*
X100262884Y-74177883D01*
X100281972Y-74160584D01*
X100302663Y-74145238D01*
X100324758Y-74131995D01*
X100348046Y-74120981D01*
X100372300Y-74112302D01*
X100397289Y-74106043D01*
X100422771Y-74102263D01*
X100448500Y-74100999D01*
X100973500Y-74100999D01*
X100999229Y-74102263D01*
X100999229Y-74102263D01*
G37*
D12*
X100711000Y-74675999D03*
D10*
G36*
X100999229Y-75852263D02*
G01*
X101024711Y-75856043D01*
X101049700Y-75862302D01*
X101073954Y-75870981D01*
X101097242Y-75881995D01*
X101119337Y-75895238D01*
X101140028Y-75910584D01*
X101159116Y-75927883D01*
X101176415Y-75946971D01*
X101191761Y-75967662D01*
X101205004Y-75989757D01*
X101216018Y-76013045D01*
X101224697Y-76037299D01*
X101230956Y-76062288D01*
X101234736Y-76087770D01*
X101236000Y-76113499D01*
X101236000Y-76738499D01*
X101234736Y-76764228D01*
X101230956Y-76789710D01*
X101224697Y-76814699D01*
X101216018Y-76838953D01*
X101205004Y-76862241D01*
X101191761Y-76884336D01*
X101176415Y-76905027D01*
X101159116Y-76924115D01*
X101140028Y-76941414D01*
X101119337Y-76956760D01*
X101097242Y-76970003D01*
X101073954Y-76981017D01*
X101049700Y-76989696D01*
X101024711Y-76995955D01*
X100999229Y-76999735D01*
X100973500Y-77000999D01*
X100448500Y-77000999D01*
X100422771Y-76999735D01*
X100397289Y-76995955D01*
X100372300Y-76989696D01*
X100348046Y-76981017D01*
X100324758Y-76970003D01*
X100302663Y-76956760D01*
X100281972Y-76941414D01*
X100262884Y-76924115D01*
X100245585Y-76905027D01*
X100230239Y-76884336D01*
X100216996Y-76862241D01*
X100205982Y-76838953D01*
X100197303Y-76814699D01*
X100191044Y-76789710D01*
X100187264Y-76764228D01*
X100186000Y-76738499D01*
X100186000Y-76113499D01*
X100187264Y-76087770D01*
X100191044Y-76062288D01*
X100197303Y-76037299D01*
X100205982Y-76013045D01*
X100216996Y-75989757D01*
X100230239Y-75967662D01*
X100245585Y-75946971D01*
X100262884Y-75927883D01*
X100281972Y-75910584D01*
X100302663Y-75895238D01*
X100324758Y-75881995D01*
X100348046Y-75870981D01*
X100372300Y-75862302D01*
X100397289Y-75856043D01*
X100422771Y-75852263D01*
X100448500Y-75850999D01*
X100973500Y-75850999D01*
X100999229Y-75852263D01*
X100999229Y-75852263D01*
G37*
D12*
X100711000Y-76425999D03*
%TD*%
D15*
%TO.C,Q2*%
X83598000Y-74996000D03*
X85598000Y-74046000D03*
X85598000Y-75946000D03*
%TD*%
%TO.C,Q1*%
X72930000Y-74996000D03*
X74930000Y-74046000D03*
X74930000Y-75946000D03*
%TD*%
D13*
%TO.C,J7*%
X85090000Y-71247000D03*
X82550000Y-71247000D03*
D14*
X80010000Y-71247000D03*
%TD*%
D13*
%TO.C,J6*%
X74422000Y-71247000D03*
X71882000Y-71247000D03*
D14*
X69342000Y-71247000D03*
%TD*%
D13*
%TO.C,J5*%
X86487000Y-79248000D03*
X83947000Y-79248000D03*
X81407000Y-79248000D03*
X78867000Y-79248000D03*
D14*
X76327000Y-79248000D03*
%TD*%
D13*
%TO.C,J4*%
X90678000Y-79248000D03*
D14*
X93218000Y-79248000D03*
%TD*%
D13*
%TO.C,J3*%
X99568000Y-79248000D03*
X102108000Y-79248000D03*
X104648000Y-79248000D03*
X107188000Y-79248000D03*
X109728000Y-79248000D03*
X112268000Y-79248000D03*
D14*
X114808000Y-79248000D03*
%TD*%
D13*
%TO.C,J1*%
X68072000Y-76708000D03*
D14*
X68072000Y-79248000D03*
%TD*%
D10*
%TO.C,C2*%
G36*
X94903229Y-75626264D02*
G01*
X94928711Y-75630044D01*
X94953700Y-75636303D01*
X94977954Y-75644982D01*
X95001242Y-75655996D01*
X95023337Y-75669239D01*
X95044028Y-75684585D01*
X95063116Y-75701884D01*
X95080415Y-75720972D01*
X95095761Y-75741663D01*
X95109004Y-75763758D01*
X95120018Y-75787046D01*
X95128697Y-75811300D01*
X95134956Y-75836289D01*
X95138736Y-75861771D01*
X95140000Y-75887500D01*
X95140000Y-76512500D01*
X95138736Y-76538229D01*
X95134956Y-76563711D01*
X95128697Y-76588700D01*
X95120018Y-76612954D01*
X95109004Y-76636242D01*
X95095761Y-76658337D01*
X95080415Y-76679028D01*
X95063116Y-76698116D01*
X95044028Y-76715415D01*
X95023337Y-76730761D01*
X95001242Y-76744004D01*
X94977954Y-76755018D01*
X94953700Y-76763697D01*
X94928711Y-76769956D01*
X94903229Y-76773736D01*
X94877500Y-76775000D01*
X94352500Y-76775000D01*
X94326771Y-76773736D01*
X94301289Y-76769956D01*
X94276300Y-76763697D01*
X94252046Y-76755018D01*
X94228758Y-76744004D01*
X94206663Y-76730761D01*
X94185972Y-76715415D01*
X94166884Y-76698116D01*
X94149585Y-76679028D01*
X94134239Y-76658337D01*
X94120996Y-76636242D01*
X94109982Y-76612954D01*
X94101303Y-76588700D01*
X94095044Y-76563711D01*
X94091264Y-76538229D01*
X94090000Y-76512500D01*
X94090000Y-75887500D01*
X94091264Y-75861771D01*
X94095044Y-75836289D01*
X94101303Y-75811300D01*
X94109982Y-75787046D01*
X94120996Y-75763758D01*
X94134239Y-75741663D01*
X94149585Y-75720972D01*
X94166884Y-75701884D01*
X94185972Y-75684585D01*
X94206663Y-75669239D01*
X94228758Y-75655996D01*
X94252046Y-75644982D01*
X94276300Y-75636303D01*
X94301289Y-75630044D01*
X94326771Y-75626264D01*
X94352500Y-75625000D01*
X94877500Y-75625000D01*
X94903229Y-75626264D01*
X94903229Y-75626264D01*
G37*
D12*
X94615000Y-76200000D03*
D10*
G36*
X94903229Y-73876264D02*
G01*
X94928711Y-73880044D01*
X94953700Y-73886303D01*
X94977954Y-73894982D01*
X95001242Y-73905996D01*
X95023337Y-73919239D01*
X95044028Y-73934585D01*
X95063116Y-73951884D01*
X95080415Y-73970972D01*
X95095761Y-73991663D01*
X95109004Y-74013758D01*
X95120018Y-74037046D01*
X95128697Y-74061300D01*
X95134956Y-74086289D01*
X95138736Y-74111771D01*
X95140000Y-74137500D01*
X95140000Y-74762500D01*
X95138736Y-74788229D01*
X95134956Y-74813711D01*
X95128697Y-74838700D01*
X95120018Y-74862954D01*
X95109004Y-74886242D01*
X95095761Y-74908337D01*
X95080415Y-74929028D01*
X95063116Y-74948116D01*
X95044028Y-74965415D01*
X95023337Y-74980761D01*
X95001242Y-74994004D01*
X94977954Y-75005018D01*
X94953700Y-75013697D01*
X94928711Y-75019956D01*
X94903229Y-75023736D01*
X94877500Y-75025000D01*
X94352500Y-75025000D01*
X94326771Y-75023736D01*
X94301289Y-75019956D01*
X94276300Y-75013697D01*
X94252046Y-75005018D01*
X94228758Y-74994004D01*
X94206663Y-74980761D01*
X94185972Y-74965415D01*
X94166884Y-74948116D01*
X94149585Y-74929028D01*
X94134239Y-74908337D01*
X94120996Y-74886242D01*
X94109982Y-74862954D01*
X94101303Y-74838700D01*
X94095044Y-74813711D01*
X94091264Y-74788229D01*
X94090000Y-74762500D01*
X94090000Y-74137500D01*
X94091264Y-74111771D01*
X94095044Y-74086289D01*
X94101303Y-74061300D01*
X94109982Y-74037046D01*
X94120996Y-74013758D01*
X94134239Y-73991663D01*
X94149585Y-73970972D01*
X94166884Y-73951884D01*
X94185972Y-73934585D01*
X94206663Y-73919239D01*
X94228758Y-73905996D01*
X94252046Y-73894982D01*
X94276300Y-73886303D01*
X94301289Y-73880044D01*
X94326771Y-73876264D01*
X94352500Y-73875000D01*
X94877500Y-73875000D01*
X94903229Y-73876264D01*
X94903229Y-73876264D01*
G37*
D12*
X94615000Y-74450000D03*
%TD*%
D10*
%TO.C,C1*%
G36*
X89315229Y-71421264D02*
G01*
X89340711Y-71425044D01*
X89365700Y-71431303D01*
X89389954Y-71439982D01*
X89413242Y-71450996D01*
X89435337Y-71464239D01*
X89456028Y-71479585D01*
X89475116Y-71496884D01*
X89492415Y-71515972D01*
X89507761Y-71536663D01*
X89521004Y-71558758D01*
X89532018Y-71582046D01*
X89540697Y-71606300D01*
X89546956Y-71631289D01*
X89550736Y-71656771D01*
X89552000Y-71682500D01*
X89552000Y-72307500D01*
X89550736Y-72333229D01*
X89546956Y-72358711D01*
X89540697Y-72383700D01*
X89532018Y-72407954D01*
X89521004Y-72431242D01*
X89507761Y-72453337D01*
X89492415Y-72474028D01*
X89475116Y-72493116D01*
X89456028Y-72510415D01*
X89435337Y-72525761D01*
X89413242Y-72539004D01*
X89389954Y-72550018D01*
X89365700Y-72558697D01*
X89340711Y-72564956D01*
X89315229Y-72568736D01*
X89289500Y-72570000D01*
X88764500Y-72570000D01*
X88738771Y-72568736D01*
X88713289Y-72564956D01*
X88688300Y-72558697D01*
X88664046Y-72550018D01*
X88640758Y-72539004D01*
X88618663Y-72525761D01*
X88597972Y-72510415D01*
X88578884Y-72493116D01*
X88561585Y-72474028D01*
X88546239Y-72453337D01*
X88532996Y-72431242D01*
X88521982Y-72407954D01*
X88513303Y-72383700D01*
X88507044Y-72358711D01*
X88503264Y-72333229D01*
X88502000Y-72307500D01*
X88502000Y-71682500D01*
X88503264Y-71656771D01*
X88507044Y-71631289D01*
X88513303Y-71606300D01*
X88521982Y-71582046D01*
X88532996Y-71558758D01*
X88546239Y-71536663D01*
X88561585Y-71515972D01*
X88578884Y-71496884D01*
X88597972Y-71479585D01*
X88618663Y-71464239D01*
X88640758Y-71450996D01*
X88664046Y-71439982D01*
X88688300Y-71431303D01*
X88713289Y-71425044D01*
X88738771Y-71421264D01*
X88764500Y-71420000D01*
X89289500Y-71420000D01*
X89315229Y-71421264D01*
X89315229Y-71421264D01*
G37*
D12*
X89027000Y-71995000D03*
D10*
G36*
X89315229Y-69671264D02*
G01*
X89340711Y-69675044D01*
X89365700Y-69681303D01*
X89389954Y-69689982D01*
X89413242Y-69700996D01*
X89435337Y-69714239D01*
X89456028Y-69729585D01*
X89475116Y-69746884D01*
X89492415Y-69765972D01*
X89507761Y-69786663D01*
X89521004Y-69808758D01*
X89532018Y-69832046D01*
X89540697Y-69856300D01*
X89546956Y-69881289D01*
X89550736Y-69906771D01*
X89552000Y-69932500D01*
X89552000Y-70557500D01*
X89550736Y-70583229D01*
X89546956Y-70608711D01*
X89540697Y-70633700D01*
X89532018Y-70657954D01*
X89521004Y-70681242D01*
X89507761Y-70703337D01*
X89492415Y-70724028D01*
X89475116Y-70743116D01*
X89456028Y-70760415D01*
X89435337Y-70775761D01*
X89413242Y-70789004D01*
X89389954Y-70800018D01*
X89365700Y-70808697D01*
X89340711Y-70814956D01*
X89315229Y-70818736D01*
X89289500Y-70820000D01*
X88764500Y-70820000D01*
X88738771Y-70818736D01*
X88713289Y-70814956D01*
X88688300Y-70808697D01*
X88664046Y-70800018D01*
X88640758Y-70789004D01*
X88618663Y-70775761D01*
X88597972Y-70760415D01*
X88578884Y-70743116D01*
X88561585Y-70724028D01*
X88546239Y-70703337D01*
X88532996Y-70681242D01*
X88521982Y-70657954D01*
X88513303Y-70633700D01*
X88507044Y-70608711D01*
X88503264Y-70583229D01*
X88502000Y-70557500D01*
X88502000Y-69932500D01*
X88503264Y-69906771D01*
X88507044Y-69881289D01*
X88513303Y-69856300D01*
X88521982Y-69832046D01*
X88532996Y-69808758D01*
X88546239Y-69786663D01*
X88561585Y-69765972D01*
X88578884Y-69746884D01*
X88597972Y-69729585D01*
X88618663Y-69714239D01*
X88640758Y-69700996D01*
X88664046Y-69689982D01*
X88688300Y-69681303D01*
X88713289Y-69675044D01*
X88738771Y-69671264D01*
X88764500Y-69670000D01*
X89289500Y-69670000D01*
X89315229Y-69671264D01*
X89315229Y-69671264D01*
G37*
D12*
X89027000Y-70245000D03*
%TD*%
M02*
