M48
; DRILL file {KiCad (5.1.4)-1} date 11/13/2020 1:31:25 PM
; FORMAT={2:4/ absolute / inch / suppress leading zeros}
; #@! TF.CreationDate,2020-11-13T13:31:25-08:00
; #@! TF.GenerationSoftware,Kicad,Pcbnew,(5.1.4)-1
FMAT,2
INCH,TZ
T1C0.0157
T2C0.0394
%
G90
G05
T1
X32500Y-30250
X35200Y-29684
X35250Y-30300
X36100Y-28550
X36150Y-30250
X37050Y-28100
X37750Y-30800
X38850Y-28850
T2
X40200Y-28000
X41200Y-28000
X42200Y-28000
X43200Y-28000
X44200Y-28000
X45200Y-28000
X30050Y-31200
X31050Y-31200
X32050Y-31200
X33050Y-31200
X34050Y-31200
X26800Y-30200
X26800Y-31200
X27300Y-28050
X28300Y-28050
X29300Y-28050
X41200Y-29600
X42200Y-29600
X43200Y-29600
X44200Y-29600
X35700Y-31200
X36700Y-31200
X31500Y-28050
X32500Y-28050
X33500Y-28050
X39200Y-31200
X40200Y-31200
X41200Y-31200
X42200Y-31200
X43200Y-31200
X44200Y-31200
X45200Y-31200
T0
M30
